<svg width="50" height="50" viewBox="0 0 51 51" fill="none" xmlns="http://www.w3.org/2000/svg">
<path fill-rule="evenodd" clip-rule="evenodd" d="M34.4728 18.3214C34.4728 20.7013 33.5274 22.9836 31.8446 24.6664C30.1618 26.3492 27.8794 27.2946 25.4996 27.2946C23.1197 27.2946 20.8374 26.3492 19.1546 24.6664C17.4718 22.9836 16.5264 20.7013 16.5264 18.3214C16.5264 15.9416 17.4718 13.6592 19.1546 11.9764C20.8374 10.2936 23.1197 9.34821 25.4996 9.34821C27.8794 9.34821 30.1618 10.2936 31.8446 11.9764C33.5274 13.6592 34.4728 15.9416 34.4728 18.3214ZM29.9862 18.3214C29.9862 19.5113 29.5135 20.6525 28.6721 21.4939C27.8307 22.3353 26.6895 22.808 25.4996 22.808C24.3097 22.808 23.1685 22.3353 22.3271 21.4939C21.4857 20.6525 21.013 19.5113 21.013 18.3214C21.013 17.1315 21.4857 15.9903 22.3271 15.1489C23.1685 14.3075 24.3097 13.8348 25.4996 13.8348C26.6895 13.8348 27.8307 14.3075 28.6721 15.1489C29.5135 15.9903 29.9862 17.1315 29.9862 18.3214Z" fill="#FCB341"/>
<path fill-rule="evenodd" clip-rule="evenodd" d="M25.5 0.375C11.6241 0.375 0.375 11.6241 0.375 25.5C0.375 39.3759 11.6241 50.625 25.5 50.625C39.3759 50.625 50.625 39.3759 50.625 25.5C50.625 11.6241 39.3759 0.375 25.5 0.375ZM4.94318 25.5C4.94318 30.2738 6.57174 34.6683 9.30123 38.1584C11.2181 35.6411 13.691 33.6011 16.5268 32.1977C19.3626 30.7942 22.4844 30.0654 25.6485 30.0682C28.7716 30.0652 31.8541 30.7752 34.6613 32.1439C37.4685 33.5127 39.9262 35.5041 41.8472 37.9666C43.8263 35.3709 45.1588 32.3413 45.7345 29.1285C46.3102 25.9156 46.1126 22.6118 45.158 19.4905C44.2034 16.3692 42.5193 13.5201 40.2449 11.1788C37.9706 8.83762 35.1714 7.07163 32.0791 6.027C28.9867 4.98237 25.69 4.68913 22.4618 5.17153C19.2336 5.65393 16.1667 6.89812 13.5148 8.80113C10.863 10.7042 8.70236 13.2113 7.21181 16.1151C5.72125 19.0189 4.94359 22.236 4.94318 25.5ZM25.5 46.0568C20.781 46.0639 16.2044 44.4405 12.5446 41.4612C14.0177 39.3524 15.9784 37.6306 18.2599 36.4424C20.5413 35.2541 23.0761 34.6345 25.6485 34.6364C28.1887 34.6343 30.6929 35.2384 32.9528 36.3984C35.2128 37.5583 37.1634 39.2408 38.6427 41.3059C34.9545 44.3819 30.3025 46.0636 25.5 46.0568Z" fill="#FCB341"/>
</svg>
