<svg width="30" height="32" viewBox="0 0 37 32" fill="none" xmlns="http://www.w3.org/2000/svg">
<path d="M14.1893 0C12.3077 0 10.5032 0.749204 9.17265 2.0828C7.84214 3.41639 7.09467 5.22513 7.09467 7.11111C7.09467 8.9971 7.84214 10.8058 9.17265 12.1394C10.5032 13.473 12.3077 14.2222 14.1893 14.2222C16.071 14.2222 17.8755 13.473 19.206 12.1394C20.5365 10.8058 21.284 8.9971 21.284 7.11111C21.284 5.22513 20.5365 3.41639 19.206 2.0828C17.8755 0.749204 16.071 0 14.1893 0ZM26.605 14.2222C26.4966 14.2202 26.391 14.2565 26.3066 14.3248C26.2223 14.3931 26.1647 14.4889 26.1438 14.5956L25.8068 16.9422C25.2747 17.1733 24.7604 17.4578 24.2992 17.7778L22.0999 16.8889C21.9048 16.8889 21.6742 16.8889 21.55 17.12L19.7764 20.1956C19.67 20.3911 19.7054 20.6222 19.8828 20.7644L21.7629 22.2222C21.6921 22.8127 21.6921 23.4095 21.7629 24L19.8828 25.4578C19.8031 25.5263 19.7491 25.62 19.7298 25.7235C19.7104 25.8269 19.7269 25.9339 19.7764 26.0267L21.55 29.1022C21.6565 29.3333 21.887 29.3333 22.0999 29.3333L24.2992 28.4444C24.7604 28.7644 25.257 29.0667 25.8068 29.28L26.1438 31.6267C26.1793 31.84 26.3567 32 26.605 32H30.1523C30.3474 32 30.5425 31.84 30.578 31.6267L30.915 29.28C31.4471 29.0489 31.926 28.7644 32.4049 28.4444L34.5865 29.3333C34.8171 29.3333 35.0477 29.3333 35.1718 29.1022L36.9455 26.0267C36.995 25.9339 37.0115 25.8269 36.9921 25.7235C36.9727 25.62 36.9188 25.5263 36.8391 25.4578L34.9412 24C34.9767 23.6978 35.0122 23.4133 35.0122 23.1111C35.0122 22.8089 34.9944 22.5244 34.9412 22.2222L36.8213 20.7644C36.901 20.6959 36.955 20.6022 36.9744 20.4988C36.9937 20.3953 36.9773 20.2884 36.9277 20.1956L35.1541 17.12C35.0477 16.8889 34.8171 16.8889 34.5865 16.8889L32.4049 17.7778C31.926 17.4578 31.4471 17.1556 30.8973 16.9422L30.5603 14.5956C30.5491 14.4943 30.5015 14.4006 30.4265 14.3319C30.3514 14.2632 30.254 14.2242 30.1523 14.2222H26.605ZM14.1893 17.7778C6.34973 17.7778 0 20.96 0 24.8889V28.4444H17.1691C16.3775 26.7783 15.9655 24.9565 15.963 23.1111C15.9666 21.325 16.3538 19.5606 17.0981 17.9378C16.1581 17.8311 15.1826 17.7778 14.1893 17.7778ZM28.3787 20.4444C29.8508 20.4444 31.0392 21.6356 31.0392 23.1111C31.0392 24.5867 29.8508 25.7778 28.3787 25.7778C26.8888 25.7778 25.7182 24.5867 25.7182 23.1111C25.7182 21.6356 26.9065 20.4444 28.3787 20.4444Z" fill="white"/>
</svg>
