<svg width="28" height="26" viewBox="0 0 28 26" fill="none" xmlns="http://www.w3.org/2000/svg">
<path d="M0 26V2.6C0 1.885 0.2744 1.27313 0.8232 0.7644C1.372 0.255667 2.03093 0.000866667 2.8 0H25.2C25.97 0 26.6294 0.2548 27.1782 0.7644C27.727 1.274 28.0009 1.88587 28 2.6V18.2C28 18.915 27.7261 19.5273 27.1782 20.0369C26.6303 20.5465 25.9709 20.8009 25.2 20.8H5.6L0 26ZM14 16.9C14.3967 16.9 14.7294 16.7752 14.9982 16.5256C15.267 16.276 15.4009 15.9675 15.4 15.6C15.4 15.2317 15.2656 14.9231 14.9968 14.6744C14.728 14.4257 14.3957 14.3009 14 14.3C13.6033 14.3 13.2711 14.4248 13.0032 14.6744C12.7353 14.924 12.6009 15.2325 12.6 15.6C12.6 15.9683 12.7344 16.2773 13.0032 16.5269C13.272 16.7765 13.6043 16.9009 14 16.9ZM12.6 11.7H15.4V3.9H12.6V11.7Z" fill="white"/>
</svg>
