<svg width="27" height="26" viewBox="0 0 27 26" fill="none" xmlns="http://www.w3.org/2000/svg">
<path d="M13.4351 20.6667C13.8872 20.6667 14.2695 20.5104 14.5821 20.1978C14.8947 19.8852 15.0505 19.5033 15.0497 19.0521C15.0497 18.6 14.8938 18.2177 14.5821 17.9051C14.2704 17.5925 13.888 17.4366 13.4351 17.4375C12.983 17.4375 12.6011 17.5938 12.2894 17.9064C11.9777 18.219 11.8214 18.6009 11.8205 19.0521C11.8205 19.5042 11.9768 19.8865 12.2894 20.1991C12.602 20.5117 12.9839 20.6675 13.4351 20.6667ZM12.2726 15.6937H14.6622C14.6622 14.9833 14.7431 14.4236 14.905 14.0146C15.0669 13.6056 15.5241 13.0458 16.2768 12.3354C16.8365 11.7757 17.2778 11.2427 17.6007 10.7363C17.9236 10.23 18.0851 9.62206 18.0851 8.9125C18.0851 7.70694 17.6438 6.78125 16.7611 6.13542C15.8785 5.48958 14.8344 5.16667 13.6288 5.16667C12.4018 5.16667 11.4063 5.48958 10.6425 6.13542C9.8787 6.78125 9.34567 7.55625 9.04342 8.46042L11.1747 9.3C11.2823 8.9125 11.5247 8.49271 11.9019 8.04063C12.279 7.58854 12.8547 7.3625 13.6288 7.3625C14.3177 7.3625 14.8344 7.55108 15.1788 7.92825C15.5233 8.30542 15.6955 8.71961 15.6955 9.17083C15.6955 9.60139 15.5663 10.0052 15.308 10.3824C15.0497 10.7596 14.7268 11.1092 14.3393 11.4313C13.392 12.2708 12.8108 12.9059 12.5955 13.3365C12.3802 13.767 12.2726 14.5528 12.2726 15.6937ZM13.4997 25.8333C11.7129 25.8333 10.0337 25.4945 8.46217 24.8168C6.89065 24.1391 5.52363 23.2186 4.36113 22.0552C3.19863 20.8927 2.27854 19.5257 1.60084 17.9542C0.923147 16.3826 0.583869 14.7035 0.583008 12.9167C0.583008 11.1299 0.922286 9.4507 1.60084 7.87917C2.2794 6.30764 3.19949 4.94063 4.36113 3.77813C5.52363 2.61563 6.89065 1.69553 8.46217 1.01783C10.0337 0.340139 11.7129 0.000861111 13.4997 0C15.2865 0 16.9656 0.339278 18.5372 1.01783C20.1087 1.69639 21.4757 2.61649 22.6382 3.77813C23.8007 4.94063 24.7212 6.30764 25.3998 7.87917C26.0784 9.4507 26.4172 11.1299 26.4163 12.9167C26.4163 14.7035 26.0771 16.3826 25.3985 17.9542C24.72 19.5257 23.7999 20.8927 22.6382 22.0552C21.4757 23.2177 20.1087 24.1382 18.5372 24.8168C16.9656 25.4953 15.2865 25.8342 13.4997 25.8333Z" fill="white"/>
</svg>
