<svg width="28" height="28" viewBox="0 0 28 28" fill="none" xmlns="http://www.w3.org/2000/svg">
<path fill-rule="evenodd" clip-rule="evenodd" d="M0 3C0 2.20435 0.316085 1.44129 0.878721 0.87868C1.44136 0.31607 2.20445 0 3.00014 0L17.0008 0C17.7965 0 18.5596 0.31607 19.1222 0.87868C19.6849 1.44129 20.0009 2.20435 20.0009 3V6.878C19.1894 7.52799 18.6628 8.46843 18.5329 9.5H11.5005C10.9096 9.5 10.3244 9.6164 9.77839 9.84254C9.23239 10.0687 8.73629 10.4002 8.31841 10.818C7.90053 11.2359 7.56904 11.732 7.34289 12.2779C7.11673 12.8239 7.00033 13.4091 7.00033 14C7.00033 14.5909 7.11673 15.1761 7.34289 15.7221C7.56904 16.268 7.90053 16.7641 8.31841 17.182C8.73629 17.5998 9.23239 17.9313 9.77839 18.1575C10.3244 18.3836 10.9096 18.5 11.5005 18.5H18.5329C18.6628 19.5316 19.1894 20.472 20.0009 21.122V25C20.0009 25.7956 19.6849 26.5587 19.1222 27.1213C18.5596 27.6839 17.7965 28 17.0008 28H3.00014C2.20445 28 1.44136 27.6839 0.878721 27.1213C0.316085 26.5587 0 25.7956 0 25L0 3ZM21.927 8.614C21.6529 8.72754 21.4186 8.91982 21.2538 9.16653C21.0889 9.41324 21.001 9.70329 21.001 10V12H11.5005C10.9701 12 10.4614 12.2107 10.0863 12.5858C9.71117 12.9609 9.50045 13.4696 9.50045 14C9.50045 14.5304 9.71117 15.0391 10.0863 15.4142C10.4614 15.7893 10.9701 16 11.5005 16H21.001V18C21.0012 18.2965 21.0894 18.5862 21.2542 18.8327C21.4191 19.0791 21.6532 19.2712 21.9272 19.3846C22.2011 19.498 22.5025 19.5277 22.7933 19.4699C23.0842 19.4122 23.3513 19.2695 23.5611 19.06L27.5613 15.06C27.8422 14.7787 28 14.3975 28 14C28 13.6025 27.8422 13.2213 27.5613 12.94L23.5611 8.94C23.3515 8.73022 23.0844 8.58728 22.7935 8.52926C22.5027 8.47123 22.2011 8.50072 21.927 8.614Z" fill="white"/>
</svg>
