<svg width="35" height="12" viewBox="0 0 45 12" fill="none" xmlns="http://www.w3.org/2000/svg">
<path d="M39.8119 11.3898H38.5834C38.484 11.3627 38.3937 11.3176 38.2943 11.2995C35.7106 10.9024 33.669 8.75444 33.4973 6.23646C33.2985 3.42059 34.9066 1.03794 37.5264 0.261777C37.8697 0.1625 38.231 0.0902974 38.5833 4.54455e-05H39.8119C39.8932 0.027121 39.9655 0.0722479 40.0558 0.0812731C42.4407 0.469357 44.2565 2.18414 44.7715 4.53069C44.8076 4.7112 44.8618 4.8917 44.907 5.07221V6.29963C44.8799 6.38086 44.8347 6.46209 44.8257 6.54332C44.4462 8.88987 42.775 10.6768 40.4532 11.2184C40.2274 11.2725 40.0196 11.3357 39.8118 11.3898L39.8119 11.3898ZM5.086 0L6.31469 4.54455e-05C6.41406 0.027121 6.5044 0.0722479 6.60377 0.0812731C9.20551 0.487407 11.2381 2.64443 11.4007 5.18953C11.5814 7.99637 9.95532 10.37 7.32648 11.1371C6.99218 11.2364 6.64894 11.3086 6.31464 11.3898H5.08604C5.00474 11.3628 4.93247 11.3176 4.85116 11.2996C2.50237 10.8664 0.966619 9.50358 0.234879 7.22923C0.135507 6.9314 0.0813044 6.61552 0 6.30866V5.08123C0.0271015 5.00001 0.0722706 4.91878 0.0813045 4.83755C0.469759 2.48198 2.13198 0.704011 4.45368 0.162499C4.67049 0.108303 4.87827 0.0541512 5.086 0ZM21.8348 4.54455e-05H23.0634C23.1627 0.027121 23.2531 0.072247 23.3524 0.0902974C25.9451 0.496431 28.032 2.73468 28.1404 5.26174C28.2668 8.10467 26.5504 10.5144 23.9035 11.1913C23.6234 11.2635 23.3434 11.3267 23.0634 11.3898H21.8348C21.7354 11.3628 21.645 11.3176 21.5457 11.2996C18.953 10.9025 16.8661 8.65521 16.7487 6.12816C16.6132 3.28522 18.3387 0.875489 20.9856 0.1986C21.2747 0.126398 21.5547 0.0632218 21.8348 4.54455e-05Z" fill="#333333"/>
</svg>
