<svg width="49" height="48" viewBox="0 0 49 48" fill="none" xmlns="http://www.w3.org/2000/svg">
<path fill-rule="evenodd" clip-rule="evenodd" d="M32.9352 17.7254C32.9352 19.9536 32.0049 22.0906 30.3489 23.6662C28.6929 25.2418 26.447 26.127 24.1051 26.127C21.7632 26.127 19.5172 25.2418 17.8612 23.6662C16.2052 22.0906 15.2749 19.9536 15.2749 17.7254C15.2749 15.4971 16.2052 13.3601 17.8612 11.7845C19.5172 10.2089 21.7632 9.32373 24.1051 9.32373C26.447 9.32373 28.6929 10.2089 30.3489 11.7845C32.0049 13.3601 32.9352 15.4971 32.9352 17.7254ZM28.5201 17.7254C28.5201 18.8395 28.055 19.908 27.227 20.6958C26.399 21.4836 25.276 21.9262 24.1051 21.9262C22.9341 21.9262 21.8111 21.4836 20.9831 20.6958C20.1551 19.908 19.69 18.8395 19.69 17.7254C19.69 16.6112 20.1551 15.5427 20.9831 14.7549C21.8111 13.9671 22.9341 13.5246 24.1051 13.5246C25.276 13.5246 26.399 13.9671 27.227 14.7549C28.055 15.5427 28.5201 16.6112 28.5201 17.7254Z" fill="#FF9933"/>
<path fill-rule="evenodd" clip-rule="evenodd" d="M24.5255 0.0819092C11.0566 0.0819092 0.137451 10.8026 0.137451 24.0266C0.137451 37.2506 11.0566 47.9712 24.5255 47.9712C37.9943 47.9712 48.9135 37.2506 48.9135 24.0266C48.9135 10.8026 37.9943 0.0819092 24.5255 0.0819092ZM4.57164 24.0266C4.57164 28.5761 6.15243 32.7642 8.80186 36.0903C10.6625 33.6913 13.0629 31.7471 15.8155 30.4096C18.5681 29.0721 21.5984 28.3775 24.6696 28.3802C27.7011 28.3773 30.6933 29.0539 33.4181 30.3584C36.143 31.6628 38.5286 33.5607 40.3932 35.9075C42.3142 33.4338 43.6077 30.5465 44.1665 27.4846C44.7253 24.4227 44.5335 21.2741 43.6069 18.2994C42.6803 15.3247 41.0456 12.6094 38.8379 10.3782C36.6303 8.14697 33.9132 6.46395 30.9116 5.46839C27.9099 4.47283 24.71 4.19336 21.5764 4.65311C18.4429 5.11285 15.466 6.29858 12.8919 8.1122C10.3178 9.92581 8.22056 12.3152 6.77372 15.0826C5.32689 17.85 4.57204 20.9159 4.57164 24.0266ZM24.5255 43.6177C19.9449 43.6244 15.5025 42.0773 11.9501 39.238C13.38 37.2282 15.2832 35.5873 17.4977 34.4549C19.7123 33.3224 22.1727 32.732 24.6696 32.7337C27.1354 32.7318 29.566 33.3075 31.7597 34.413C33.9534 35.5184 35.8468 37.1218 37.2827 39.09C33.7027 42.0214 29.1871 43.6241 24.5255 43.6177Z" fill="#FF9933"/>
</svg>
