<svg width="41" height="36" viewBox="0 0 41 36" fill="none" xmlns="http://www.w3.org/2000/svg">
<g filter="url(#filter0_d_274_67)">
<path d="M4.59521 2.8321C4.59521 2.23971 4.8346 1.67159 5.2607 1.25271C5.6868 0.833834 6.26471 0.598511 6.86731 0.598511H34.1325C34.7351 0.598511 35.313 0.833834 35.7391 1.25271C36.1652 1.67159 36.4046 2.23971 36.4046 2.8321V5.06568C36.4046 5.65807 36.1652 6.22619 35.7391 6.64507C35.313 7.06394 34.7351 7.29927 34.1325 7.29927H6.86731C6.26471 7.29927 5.6868 7.06394 5.2607 6.64507C4.8346 6.22619 4.59521 5.65807 4.59521 5.06568V2.8321ZM6.86731 9.53285H34.1325V21.8176C34.1325 23.2985 33.534 24.7188 32.4688 25.766C31.4035 26.8132 29.9587 27.4015 28.4522 27.4015H12.5476C11.0411 27.4015 9.59627 26.8132 8.53101 25.766C7.46576 24.7188 6.86731 23.2985 6.86731 21.8176V9.53285ZM17.0917 14C16.7904 14 16.5015 14.1177 16.2884 14.3271C16.0754 14.5366 15.9557 14.8206 15.9557 15.1168C15.9557 15.413 16.0754 15.6971 16.2884 15.9065C16.5015 16.116 16.7904 16.2336 17.0917 16.2336H23.908C24.2093 16.2336 24.4983 16.116 24.7113 15.9065C24.9244 15.6971 25.0441 15.413 25.0441 15.1168C25.0441 14.8206 24.9244 14.5366 24.7113 14.3271C24.4983 14.1177 24.2093 14 23.908 14H17.0917Z" fill="white"/>
</g>
<defs>
<filter id="filter0_d_274_67" x="0.595215" y="0.598511" width="39.8096" height="34.803" filterUnits="userSpaceOnUse" color-interpolation-filters="sRGB">
<feFlood flood-opacity="0" result="BackgroundImageFix"/>
<feColorMatrix in="SourceAlpha" type="matrix" values="0 0 0 0 0 0 0 0 0 0 0 0 0 0 0 0 0 0 127 0" result="hardAlpha"/>
<feOffset dy="4"/>
<feGaussianBlur stdDeviation="2"/>
<feComposite in2="hardAlpha" operator="out"/>
<feColorMatrix type="matrix" values="0 0 0 0 1 0 0 0 0 0.462745 0 0 0 0 0.654902 0 0 0 0.25 0"/>
<feBlend mode="normal" in2="BackgroundImageFix" result="effect1_dropShadow_274_67"/>
<feBlend mode="normal" in="SourceGraphic" in2="effect1_dropShadow_274_67" result="shape"/>
</filter>
</defs>
</svg>
