<svg width="30" height="30" viewBox="0 0 40 42" fill="none" xmlns="http://www.w3.org/2000/svg">
<path fill-rule="evenodd" clip-rule="evenodd" d="M20.9767 41.2715C24.9013 39.2608 39.3337 31.0393 39.3337 18.7916C39.3337 7.91663 30.3122 0.666626 20.0003 0.666626C10.034 0.666626 0.666992 7.91663 0.666992 18.7916C0.666992 31.0393 15.0993 39.2608 19.024 41.2715C19.3258 41.4274 19.6606 41.5088 20.0003 41.5088C20.3401 41.5088 20.6748 41.4274 20.9767 41.2715ZM19.4421 26.6627L12.6778 19.5408C12.2529 19.0896 11.9289 18.5532 11.7275 17.967C11.526 17.3809 11.4517 16.7586 11.5095 16.1416C11.5672 15.5245 11.7558 14.9268 12.0625 14.3883C12.3692 13.8498 12.7871 13.3827 13.2884 13.0183C13.7897 12.6538 14.3628 12.4003 14.9697 12.2746C15.5766 12.1489 16.2033 12.1539 16.8081 12.2892C17.4129 12.4246 17.9819 12.6871 18.4773 13.0595C18.9728 13.4319 19.3832 13.9055 19.6813 14.4489L19.8505 14.7582C19.8648 14.7855 19.8864 14.8084 19.9128 14.8244C19.9392 14.8404 19.9695 14.8488 20.0003 14.8488C20.0312 14.8488 20.0615 14.8404 20.0879 14.8244C20.1143 14.8084 20.1358 14.7855 20.1502 14.7582L20.3193 14.4489C21.9095 11.5199 26.0637 11.3797 27.8448 14.1975C28.9154 15.8892 28.7003 18.0884 27.3228 19.5384L20.5586 26.6603C20.3362 26.8947 20.2227 27.0131 20.0873 27.0397C20.0299 27.0514 19.9707 27.0514 19.9133 27.0397C19.778 27.0131 19.6644 26.8947 19.4421 26.6603" fill="white"/>
</svg>
