<svg width="35" height="36" viewBox="0 0 35 36" fill="none" xmlns="http://www.w3.org/2000/svg">
<path fill-rule="evenodd" clip-rule="evenodd" d="M3.12227 23.6804C4.91133 21.9216 7.33781 20.9336 9.86793 20.9336H25.1316C27.6617 20.9336 30.0882 21.9216 31.8773 23.6804C33.6663 25.4391 34.6714 27.8245 34.6714 30.3117C34.6714 31.804 34.0684 33.2352 32.9949 34.2905C31.9215 35.3457 30.4656 35.9386 28.9475 35.9386H6.05201C4.53394 35.9386 3.07805 35.3457 2.00461 34.2905C0.931175 33.2352 0.328125 31.804 0.328125 30.3117C0.328125 27.8245 1.33321 25.4391 3.12227 23.6804Z" fill="white"/>
<path d="M19.4244 1.35161C18.921 -0.326026 16.5025 -0.326026 15.9991 1.35161L15.8772 1.75904C15.802 2.0102 15.6705 2.24163 15.4925 2.43634C15.3144 2.63106 15.0943 2.78413 14.8483 2.88433C14.6022 2.98454 14.3365 3.02933 14.0705 3.01542C13.8045 3.00151 13.5451 2.92927 13.3113 2.80397L12.9334 2.60026C11.3694 1.76383 9.65921 3.44507 10.5113 4.98131L10.7173 5.35398C11.2609 6.3366 10.7453 7.56008 9.65434 7.87643L9.23988 7.99626C7.53332 8.49117 7.53332 10.8686 9.23988 11.3635L9.65434 11.4834C9.90983 11.5573 10.1452 11.6865 10.3433 11.8616C10.5414 12.0366 10.6971 12.253 10.799 12.4949C10.901 12.7367 10.9465 12.998 10.9324 13.2594C10.9182 13.5209 10.8447 13.7759 10.7173 14.0058L10.5101 14.3773C9.65921 15.9147 11.3694 17.596 12.9322 16.7583L13.3113 16.5558C13.5451 16.4305 13.8045 16.3583 14.0705 16.3444C14.3365 16.3305 14.6022 16.3753 14.8483 16.4755C15.0943 16.5757 15.3144 16.7287 15.4925 16.9234C15.6705 17.1182 15.802 17.3496 15.8772 17.6007L15.9991 18.0082C16.5025 19.6858 18.921 19.6858 19.4244 18.0082L19.5463 17.6007C19.6215 17.3496 19.753 17.1182 19.931 16.9234C20.1091 16.7287 20.3292 16.5757 20.5753 16.4755C20.8213 16.3753 21.0871 16.3305 21.353 16.3444C21.619 16.3583 21.8784 16.4305 22.1123 16.5558L22.4901 16.7595C24.0541 17.596 25.7643 15.9147 24.9122 14.3785L24.7062 14.0058C24.5788 13.7759 24.5053 13.5209 24.4911 13.2594C24.477 12.998 24.5226 12.7367 24.6245 12.4949C24.7264 12.253 24.8821 12.0366 25.0802 11.8616C25.2783 11.6865 25.5137 11.5573 25.7692 11.4834L26.1836 11.3635C27.8902 10.8686 27.8902 8.49117 26.1836 7.99626L25.7692 7.87643C25.5137 7.80249 25.2783 7.67326 25.0802 7.49824C24.8821 7.32321 24.7264 7.10682 24.6245 6.86493C24.5226 6.62304 24.477 6.3618 24.4911 6.10035C24.5053 5.8389 24.5788 5.58387 24.7062 5.35398L24.9135 4.9825C25.7643 3.44507 24.0541 1.76383 22.4914 2.60146L22.1123 2.80397C21.8784 2.92927 21.619 3.00151 21.353 3.01542C21.0871 3.02933 20.8213 2.98454 20.5753 2.88433C20.3292 2.78413 20.1091 2.63106 19.931 2.43634C19.753 2.24163 19.6215 2.0102 19.5463 1.75904L19.4244 1.35161ZM17.7118 13.191C16.7645 13.191 15.8561 12.821 15.1863 12.1626C14.5165 11.5041 14.1402 10.6111 14.1402 9.6799C14.1402 8.7487 14.5165 7.85565 15.1863 7.1972C15.8561 6.53875 16.7645 6.16884 17.7118 6.16884C18.6587 6.16884 19.5668 6.53862 20.2364 7.19685C20.906 7.85508 21.2821 8.74782 21.2821 9.6787C21.2821 10.6096 20.906 11.5023 20.2364 12.1605C19.5668 12.8188 18.6587 13.1886 17.7118 13.1886V13.191Z" fill="white"/>
</svg>
