<svg width="29" height="32" viewBox="0 0 29 32" fill="none" xmlns="http://www.w3.org/2000/svg">
<path fill-rule="evenodd" clip-rule="evenodd" d="M28.9916 14.7462V22.3721C28.9916 27.1006 28.9916 29.4664 27.8441 30.4989C27.2969 30.9922 26.6059 31.3022 25.8695 31.3847C24.3264 31.5573 22.5239 29.9994 18.9202 26.8852C17.3256 25.5091 16.5298 24.8203 15.609 24.6401C15.155 24.5506 14.6872 24.5506 14.2332 24.6401C13.3108 24.8203 12.515 25.5091 10.9219 26.8852C7.31833 29.9994 5.51574 31.5573 3.97267 31.3832C3.23512 31.3005 2.5436 30.9908 1.99811 30.4989C0.850586 29.4664 0.850586 27.1021 0.850586 22.3721V14.7447C0.850586 8.19712 0.850586 4.92257 2.91113 2.88667C4.97168 0.850769 8.28919 0.850769 14.9211 0.850769C21.5546 0.850769 24.8705 0.850769 26.931 2.88514C28.9916 4.92104 28.9916 8.19712 28.9916 14.7462ZM9.05838 6.96C9.05838 6.6562 9.18192 6.36484 9.40181 6.15002C9.62171 5.9352 9.91994 5.81452 10.2309 5.81452H19.6113C19.9222 5.81452 20.2205 5.9352 20.4404 6.15002C20.6603 6.36484 20.7838 6.6562 20.7838 6.96C20.7838 7.2638 20.6603 7.55516 20.4404 7.76997C20.2205 7.98479 19.9222 8.10548 19.6113 8.10548H10.2309C9.91994 8.10548 9.62171 7.98479 9.40181 7.76997C9.18192 7.55516 9.05838 7.2638 9.05838 6.96Z" fill="white"/>
</svg>
