<svg width="30" height="30" viewBox="0 0 47 47" fill="none" xmlns="http://www.w3.org/2000/svg">
<path d="M10.5545 36.3545L28.1455 28.1455L36.3545 10.5545L18.7636 18.7636L10.5545 36.3545ZM23.4545 25.8C22.79 25.8 22.2333 25.5748 21.7846 25.1245C21.3358 24.6742 21.1107 24.1175 21.1091 23.4545C21.1091 22.79 21.3343 22.2333 21.7846 21.7846C22.2349 21.3358 22.7916 21.1107 23.4545 21.1091C24.1191 21.1091 24.6765 21.3343 25.1269 21.7846C25.5772 22.2349 25.8016 22.7916 25.8 23.4545C25.8 24.1191 25.5748 24.6765 25.1245 25.1269C24.6742 25.5772 24.1175 25.8016 23.4545 25.8ZM23.4545 46.9091C20.21 46.9091 17.1609 46.293 14.3073 45.0609C11.4536 43.8287 8.97136 42.158 6.86046 40.0486C4.74955 37.9377 3.0788 35.4555 1.84822 32.6018C0.617637 29.7482 0.00156364 26.6991 0 23.4545C0 20.21 0.616073 17.1609 1.84822 14.3073C3.08036 11.4536 4.75111 8.97136 6.86046 6.86046C8.97136 4.74955 11.4536 3.0788 14.3073 1.84822C17.1609 0.617637 20.21 0.00156364 23.4545 0C26.6991 0 29.7482 0.616073 32.6018 1.84822C35.4555 3.08036 37.9377 4.75111 40.0486 6.86046C42.1595 8.97136 43.8311 11.4536 45.0632 14.3073C46.2954 17.1609 46.9107 20.21 46.9091 23.4545C46.9091 26.6991 46.293 29.7482 45.0609 32.6018C43.8287 35.4555 42.158 37.9377 40.0486 40.0486C37.9377 42.1595 35.4555 43.8311 32.6018 45.0632C29.7482 46.2954 26.6991 46.9107 23.4545 46.9091Z" fill="#333333"/>
</svg>
