<svg width="38" height="32" viewBox="0 0 46 32" fill="none" xmlns="http://www.w3.org/2000/svg">
<path d="M13.8 16C18.2491 16 21.85 12.4214 21.85 8C21.85 3.57857 18.2491 0 13.8 0C9.35094 0 5.75 3.57857 5.75 8C5.75 12.4214 9.35094 16 13.8 16ZM19.32 18.2857H18.7234C17.2284 19 15.5681 19.4286 13.8 19.4286C12.0319 19.4286 10.3787 19 8.87656 18.2857H8.28C3.70875 18.2857 0 21.9714 0 26.5143V28.5714C0 30.4643 1.54531 32 3.45 32H24.15C26.0547 32 27.6 30.4643 27.6 28.5714V26.5143C27.6 21.9714 23.8912 18.2857 19.32 18.2857ZM34.5 16C38.3094 16 41.4 12.9286 41.4 9.14286C41.4 5.35714 38.3094 2.28571 34.5 2.28571C30.6906 2.28571 27.6 5.35714 27.6 9.14286C27.6 12.9286 30.6906 16 34.5 16ZM37.95 18.2857H37.6769C36.6778 18.6286 35.6213 18.8571 34.5 18.8571C33.3787 18.8571 32.3222 18.6286 31.3231 18.2857H31.05C29.5837 18.2857 28.2325 18.7071 27.0466 19.3857C28.8003 21.2643 29.9 23.7571 29.9 26.5143V29.2571C29.9 29.4143 29.8641 29.5643 29.8569 29.7143H42.55C44.4547 29.7143 46 28.1786 46 26.2857C46 21.8643 42.3991 18.2857 37.95 18.2857Z" fill="#333333"/>
</svg>
