<svg width="120" height="80" viewBox="0 0 182 103" fill="none" xmlns="http://www.w3.org/2000/svg">
<path d="M1.92423 84.1834C1.3934 84.1834 0.976318 83.7638 0.976318 83.2297V45.7206C0.976318 43.9276 2.45507 42.4398 4.29403 42.4398H17.3374C26.1719 42.4398 30.5513 48.162 30.5513 53.8938C30.5513 59.6256 29.1863 60.2741 26.3994 62.4771C30.7219 64.5657 32.9211 68.5618 32.9211 72.615C32.9211 78.404 28.5323 84.1834 19.6408 84.1834H1.92423ZM7.55486 60.5125H17.1004C21.7262 60.5125 24.0391 57.5274 24.0391 54.5519C24.0391 51.5763 21.7262 48.7057 17.1004 48.7057H7.55486V60.5125ZM7.55486 77.9271H19.4133C24.096 77.9271 26.4089 74.8848 26.4089 71.8997C26.4089 68.9146 24.096 65.9391 19.4133 65.9391H7.55486V77.9271Z" fill="#333333"/>
<path d="M66.1077 45.9018C66.1077 44.1088 67.5864 42.621 69.4254 42.621C71.2643 42.621 72.6862 44.1088 72.6862 45.9018V83.4109C72.6862 83.945 72.2122 84.3646 71.6814 84.3646H67.0556C66.5247 84.3646 66.1077 83.945 66.1077 83.4109V45.9018Z" fill="#333333"/>
<path d="M79.2079 45.9018C79.2079 44.1088 80.4497 42.621 82.5825 42.621C84.7153 42.621 85.6632 44.0516 86.5542 45.301L107.181 72.9107V45.8923C107.181 44.0993 108.603 42.6115 110.442 42.6115C112.281 42.6115 113.759 44.0993 113.759 45.8923V83.4014C113.759 83.9355 113.285 84.3551 112.755 84.3551H109.38C108.309 84.3551 107.721 83.821 107.247 83.2202L85.7864 54.4756V83.4014C85.7864 83.9355 85.3125 84.3551 84.7816 84.3551H80.1558C79.625 84.3551 79.2079 83.9355 79.2079 83.4014V45.8923V45.9018Z" fill="#333333"/>
<path d="M131.192 63.9077L126.395 68.6762V83.4014C126.395 83.9354 125.921 84.3551 125.39 84.3551H120.765C120.234 84.3551 119.817 83.9354 119.817 83.4014V45.8922C119.817 44.0992 121.295 42.6115 123.134 42.6115C124.973 42.6115 126.395 44.0992 126.395 45.8922V60.379L143.581 43.3267C144.178 42.7927 144.946 42.4875 145.657 42.4875C146.368 42.4875 147.136 42.7831 147.676 43.3267C148.804 44.5761 148.918 46.3691 147.733 47.504L135.761 59.368L149.989 79.5293C151.06 80.9599 150.52 82.8101 149.098 83.8782C148.567 84.2979 147.97 84.4695 147.316 84.4695C146.368 84.4695 145.42 83.9927 144.823 83.1534L131.192 63.8886V63.9077Z" fill="#333333"/>
<path d="M61.425 80.7692C61.425 80.7692 61.1975 82.2188 60.7709 83.3633C60.3538 84.4886 59.7566 85.4995 58.9888 86.3674C58.2305 87.2353 57.3395 87.9124 56.3536 88.3893C55.3299 88.8852 54.2398 89.1332 53.1212 89.1332H51.8036H50.96H47.102H45.8981H44.6943C43.5662 89.1332 42.4856 88.8852 41.4619 88.3988C40.495 87.9315 39.585 87.2353 38.8267 86.377C38.0588 85.4996 37.4616 84.4982 37.0446 83.3728C36.6085 82.2093 36.3905 80.9695 36.3905 79.6915V44.9958C36.3905 43.7273 36.618 42.0393 37.0351 40.9139C37.4522 39.7885 38.0494 38.7776 38.8172 37.9002C39.5755 37.0323 40.4665 36.3457 41.4619 35.8784C42.4761 35.392 43.5947 35.1345 44.6943 35.1345H53.1212C54.2398 35.1345 55.3204 35.3824 56.3536 35.8784C57.3395 36.3457 58.2305 37.0323 58.9888 37.9002C59.7472 38.7681 60.3538 39.7695 60.7709 40.9044C61.1975 42.0583 61.4155 43.7655 61.4155 44.9958V71.4896C61.4155 72.8344 60.4676 73.9216 59.2827 73.9216H54.8654C53.6805 73.9216 52.7231 72.8344 52.7231 71.4896V45.8732C52.7231 44.5284 51.7562 43.4412 50.5808 43.4412H47.2252C46.0403 43.4412 45.0924 44.538 45.0924 45.8732V78.3372C45.0924 79.682 46.0498 80.7692 47.2347 80.7692H61.425Z" fill="#333333"/>
<path d="M181.346 33.2461C176.872 33.723 173.27 34.2093 170.435 34.9246C167.203 35.7448 165.042 36.832 163.44 38.4438C161.828 40.0651 160.748 42.23 159.942 45.4821C159.231 48.3337 158.748 51.9578 158.274 56.4593C157.8 51.9482 157.316 48.3337 156.605 45.4821C155.79 42.23 154.709 40.0556 153.107 38.4438C151.496 36.8225 149.344 35.7353 146.112 34.9246C143.278 34.2093 139.675 33.723 135.201 33.2461C139.675 32.7693 143.278 32.2829 146.112 31.5676C149.344 30.7474 151.496 29.6602 153.107 28.0484C154.719 26.4271 155.8 24.2622 156.605 21.0101C157.316 18.1585 157.8 14.5344 158.274 10.033C158.748 14.5344 159.231 18.1585 159.942 21.0101C160.757 24.2622 161.838 26.4367 163.44 28.0484C165.051 29.6697 167.203 30.7569 170.435 31.5676C173.27 32.2829 176.872 32.7693 181.346 33.2461Z" fill="#FFC200"/>
</svg>
