<svg width="38" height="47" viewBox="0 0 44 47" fill="none" xmlns="http://www.w3.org/2000/svg">
<path d="M22.0172 0.0847168C17.4871 0.0847168 13.1425 1.89227 9.93917 5.10974C6.73587 8.3272 4.93628 12.691 4.93628 17.2412V25.8881C4.93663 26.2683 4.84891 26.6434 4.68006 26.9836L0.490347 35.3977C0.285684 35.8087 0.189044 36.2655 0.209606 36.7247C0.230167 37.1838 0.367248 37.63 0.607828 38.021C0.848408 38.4119 1.1845 38.7346 1.58418 38.9584C1.98386 39.1822 2.43386 39.2996 2.89144 39.2995H41.143C41.6006 39.2996 42.0506 39.1822 42.4503 38.9584C42.85 38.7346 43.1861 38.4119 43.4267 38.021C43.6672 37.63 43.8043 37.1838 43.8249 36.7247C43.8454 36.2655 43.7488 35.8087 43.5441 35.3977L39.3569 26.9836C39.1872 26.6436 39.0986 26.2685 39.0982 25.8881V17.2412C39.0982 12.691 37.2986 8.3272 34.0953 5.10974C30.892 1.89227 26.5474 0.0847168 22.0172 0.0847168ZM22.0172 46.6523C20.5028 46.6528 19.0256 46.1816 17.7888 45.3037C16.5521 44.4258 15.6168 43.1844 15.1117 41.7505H28.9228C28.4177 43.1844 27.4824 44.4258 26.2456 45.3037C25.0089 46.1816 23.5316 46.6528 22.0172 46.6523Z" fill="#333333"/>
</svg>
