<svg width="49" height="48" viewBox="0 0 49 48" fill="none" xmlns="http://www.w3.org/2000/svg">
<path fill-rule="evenodd" clip-rule="evenodd" d="M32.9347 17.7254C32.9347 19.9536 32.0044 22.0906 30.3484 23.6662C28.6925 25.2418 26.4465 26.127 24.1046 26.127C21.7627 26.127 19.5167 25.2418 17.8607 23.6662C16.2047 22.0906 15.2744 19.9536 15.2744 17.7254C15.2744 15.4971 16.2047 13.3601 17.8607 11.7845C19.5167 10.2089 21.7627 9.32373 24.1046 9.32373C26.4465 9.32373 28.6925 10.2089 30.3484 11.7845C32.0044 13.3601 32.9347 15.4971 32.9347 17.7254ZM28.5196 17.7254C28.5196 18.8395 28.0545 19.908 27.2265 20.6958C26.3985 21.4836 25.2755 21.9262 24.1046 21.9262C22.9336 21.9262 21.8106 21.4836 20.9826 20.6958C20.1546 19.908 19.6895 18.8395 19.6895 17.7254C19.6895 16.6112 20.1546 15.5427 20.9826 14.7549C21.8106 13.9671 22.9336 13.5246 24.1046 13.5246C25.2755 13.5246 26.3985 13.9671 27.2265 14.7549C28.0545 15.5427 28.5196 16.6112 28.5196 17.7254Z" fill="#FF9933"/>
<path fill-rule="evenodd" clip-rule="evenodd" d="M24.5252 0.0819092C11.0564 0.0819092 0.137207 10.8026 0.137207 24.0266C0.137207 37.2506 11.0564 47.9712 24.5252 47.9712C37.9941 47.9712 48.9133 37.2506 48.9133 24.0266C48.9133 10.8026 37.9941 0.0819092 24.5252 0.0819092ZM4.5714 24.0266C4.5714 28.5761 6.15218 32.7642 8.80161 36.0903C10.6623 33.6913 13.0626 31.7471 15.8152 30.4096C18.5678 29.0721 21.5981 28.3775 24.6694 28.3802C27.7009 28.3773 30.693 29.0539 33.4179 30.3584C36.1427 31.6628 38.5283 33.5607 40.393 35.9075C42.314 33.4338 43.6074 30.5465 44.1663 27.4846C44.7251 24.4227 44.5333 21.2741 43.6067 18.2994C42.6801 15.3247 41.0453 12.6094 38.8377 10.3782C36.63 8.14697 33.913 6.46395 30.9113 5.46839C27.9097 4.47283 24.7097 4.19336 21.5762 4.65311C18.4427 5.11285 15.4657 6.29858 12.8916 8.1122C10.3175 9.92581 8.22031 12.3152 6.77348 15.0826C5.32664 17.85 4.5718 20.9159 4.5714 24.0266ZM24.5252 43.6177C19.9446 43.6244 15.5023 42.0773 11.9499 39.238C13.3798 37.2282 15.2829 35.5873 17.4975 34.4549C19.712 33.3224 22.1724 32.732 24.6694 32.7337C27.1351 32.7318 29.5658 33.3075 31.7595 34.413C33.9531 35.5184 35.8465 37.1218 37.2824 39.09C33.7025 42.0214 29.1869 43.6241 24.5252 43.6177Z" fill="#FF9933"/>
</svg>
