<svg width="20" height="14" viewBox="0 0 20 14" fill="none" xmlns="http://www.w3.org/2000/svg">
<path d="M7.41626 6.85066C7.41626 6.33965 7.6431 5.84957 8.04689 5.48823C8.45067 5.12689 8.99832 4.92389 9.56936 4.92389C10.1404 4.92389 10.688 5.12689 11.0918 5.48823C11.4956 5.84957 11.7225 6.33965 11.7225 6.85066C11.7225 7.36167 11.4956 7.85175 11.0918 8.21309C10.688 8.57443 10.1404 8.77743 9.56936 8.77743C8.99832 8.77743 8.45067 8.57443 8.04689 8.21309C7.6431 7.85175 7.41626 7.36167 7.41626 6.85066Z" fill="white"/>
<path fill-rule="evenodd" clip-rule="evenodd" d="M0 6.85073C0 8.25513 0.406697 8.72698 1.22009 9.67323C2.84401 11.5606 5.56744 13.7015 9.56934 13.7015C13.5712 13.7015 16.2947 11.5606 17.9186 9.67323C18.732 8.72783 19.1387 8.25428 19.1387 6.85073C19.1387 5.44633 18.732 4.97449 17.9186 4.02823C16.2947 2.14085 13.5712 0 9.56934 0C5.56744 0 2.84401 2.14085 1.22009 4.02823C0.406697 4.97534 0 5.44719 0 6.85073ZM9.56934 3.63945C8.61761 3.63945 7.70486 3.97778 7.03188 4.58001C6.35891 5.18225 5.98083 5.99905 5.98083 6.85073C5.98083 7.70242 6.35891 8.51922 7.03188 9.12145C7.70486 9.72368 8.61761 10.062 9.56934 10.062C10.5211 10.062 11.4338 9.72368 12.1068 9.12145C12.7798 8.51922 13.1578 7.70242 13.1578 6.85073C13.1578 5.99905 12.7798 5.18225 12.1068 4.58001C11.4338 3.97778 10.5211 3.63945 9.56934 3.63945Z" fill="white"/>
</svg>
