<svg width="50" height="50" viewBox="0 0 32 32" fill="none" xmlns="http://www.w3.org/2000/svg">
<path fill-rule="evenodd" clip-rule="evenodd" d="M21.3334 12C21.3334 13.4144 20.7715 14.771 19.7713 15.7712C18.7711 16.7714 17.4146 17.3333 16.0001 17.3333C14.5856 17.3333 13.229 16.7714 12.2288 15.7712C11.2287 14.771 10.6667 13.4144 10.6667 12C10.6667 10.5855 11.2287 9.22892 12.2288 8.22872C13.229 7.22853 14.5856 6.66663 16.0001 6.66663C17.4146 6.66663 18.7711 7.22853 19.7713 8.22872C20.7715 9.22892 21.3334 10.5855 21.3334 12ZM18.6667 12C18.6667 12.7072 18.3858 13.3855 17.8857 13.8856C17.3856 14.3857 16.7073 14.6666 16.0001 14.6666C15.2928 14.6666 14.6146 14.3857 14.1145 13.8856C13.6144 13.3855 13.3334 12.7072 13.3334 12C13.3334 11.2927 13.6144 10.6144 14.1145 10.1143C14.6146 9.61424 15.2928 9.33329 16.0001 9.33329C16.7073 9.33329 17.3856 9.61424 17.8857 10.1143C18.3858 10.6144 18.6667 11.2927 18.6667 12Z" fill="#FFFFFF"/>
<path fill-rule="evenodd" clip-rule="evenodd" d="M16 1.33331C7.90004 1.33331 1.33337 7.89998 1.33337 16C1.33337 24.1 7.90004 30.6666 16 30.6666C24.1 30.6666 30.6667 24.1 30.6667 16C30.6667 7.89998 24.1 1.33331 16 1.33331ZM4.00004 16C4.00004 18.7866 4.95071 21.352 6.54404 23.3893C7.66301 21.9198 9.10657 20.729 10.762 19.9097C12.4173 19.0905 14.2397 18.665 16.0867 18.6666C17.9098 18.6649 19.7093 19.0793 21.3479 19.8784C22.9866 20.6774 24.4213 21.8399 25.5427 23.2773C26.698 21.7621 27.4758 19.9936 27.8119 18.1181C28.148 16.2426 28.0326 14.314 27.4754 12.492C26.9181 10.6699 25.935 9.00671 24.6074 7.64003C23.2797 6.27335 21.6457 5.24246 19.8405 4.63266C18.0354 4.02286 16.111 3.85167 14.2265 4.13328C12.3421 4.41488 10.5518 5.14117 9.00373 6.25205C7.4557 7.36293 6.19445 8.82647 5.32435 10.5216C4.45424 12.2167 4.00028 14.0946 4.00004 16ZM16 28C13.2453 28.0041 10.5737 27.0564 8.43737 25.3173C9.29728 24.0863 10.4418 23.0812 11.7736 22.3876C13.1054 21.6939 14.5851 21.3322 16.0867 21.3333C17.5696 21.3321 19.0314 21.6847 20.3506 22.3619C21.6699 23.039 22.8085 24.0211 23.672 25.2266C21.5191 27.0222 18.8035 28.0039 16 28Z" fill="#FFFFFF"/>
</svg>
