<svg width="1920" height="1080" viewBox="0 0 1920 1080" fill="none" xmlns="http://www.w3.org/2000/svg">
<path d="M928 444L733 411L750 626L928 444Z" fill="#FFB2E6" stroke="#FFB2E6" stroke-linejoin="bevel"/>
<path d="M750 626L982 681L928 444L750 626Z" fill="#F490EE" stroke="#F490EE" stroke-linejoin="bevel"/>
<path d="M928 444L739 253L733 411L928 444Z" fill="#FCA4E8" stroke="#FCA4E8" stroke-linejoin="bevel"/>
<path d="M502 215L511 455L733 411L502 215Z" fill="#E67DF7" stroke="#E67DF7" stroke-linejoin="bevel"/>
<path d="M733 411L511 455L750 626L733 411Z" fill="#E077FB" stroke="#E077FB" stroke-linejoin="bevel"/>
<path d="M1185 240L940 197L928 444L1185 240Z" fill="#F490EE" stroke="#F490EE" stroke-linejoin="bevel"/>
<path d="M928 444L940 197L739 253L928 444Z" fill="#EB83F4" stroke="#EB83F4" stroke-linejoin="bevel"/>
<path d="M459 841L749 877L750 626L459 841Z" fill="#EB83F4" stroke="#EB83F4" stroke-linejoin="bevel"/>
<path d="M750 626L749 877L982 681L750 626Z" fill="#F797EC" stroke="#F797EC" stroke-linejoin="bevel"/>
<path d="M749 877L971 863L982 681L749 877Z" fill="#D972FF" stroke="#D972FF" stroke-linejoin="bevel"/>
<path d="M511 455L453 665L750 626L511 455Z" fill="#FEABE7" stroke="#FEABE7" stroke-linejoin="bevel"/>
<path d="M1224 685L1227 422L982 681L1224 685Z" fill="#FCA4E8" stroke="#FCA4E8" stroke-linejoin="bevel"/>
<path d="M982 681L1227 422L928 444L982 681Z" fill="#F490EE" stroke="#F490EE" stroke-linejoin="bevel"/>
<path d="M739 253L502 215L733 411L739 253Z" fill="#F08AF1" stroke="#F08AF1" stroke-linejoin="bevel"/>
<path d="M511 455L249 466L453 665L511 455Z" fill="#D972FF" stroke="#D972FF" stroke-linejoin="bevel"/>
<path d="M735 0L502 215L739 253L735 0Z" fill="#F08AF1" stroke="#F08AF1" stroke-linejoin="bevel"/>
<path d="M1229 830L1224 685L982 681L1229 830Z" fill="#E67DF7" stroke="#E67DF7" stroke-linejoin="bevel"/>
<path d="M1227 422L1185 240L928 444L1227 422Z" fill="#F08AF1" stroke="#F08AF1" stroke-linejoin="bevel"/>
<path d="M453 665L459 841L750 626L453 665Z" fill="#EB83F4" stroke="#EB83F4" stroke-linejoin="bevel"/>
<path d="M976 0H735L940 197L976 0Z" fill="#FA9DEA" stroke="#FA9DEA" stroke-linejoin="bevel"/>
<path d="M940 197L735 0L739 253L940 197Z" fill="#E67DF7" stroke="#E67DF7" stroke-linejoin="bevel"/>
<path d="M971 863L1229 830L982 681L971 863Z" fill="#F490EE" stroke="#F490EE" stroke-linejoin="bevel"/>
<path d="M1224 685L1433 626L1227 422L1224 685Z" fill="#E67DF7" stroke="#E67DF7" stroke-linejoin="bevel"/>
<path d="M1185 240L976 0L940 197L1185 240Z" fill="#F08AF1" stroke="#F08AF1" stroke-linejoin="bevel"/>
<path d="M502 215L249 466L511 455L502 215Z" fill="#F490EE" stroke="#F490EE" stroke-linejoin="bevel"/>
<path d="M453 665L227 841H459L453 665Z" fill="#E077FB" stroke="#E077FB" stroke-linejoin="bevel"/>
<path d="M504 1080H745L749 877L504 1080Z" fill="#EB83F4" stroke="#EB83F4" stroke-linejoin="bevel"/>
<path d="M749 877L956 1080L971 863L749 877Z" fill="#FEABE7" stroke="#FEABE7" stroke-linejoin="bevel"/>
<path d="M971 863L1191 1080L1229 830L971 863Z" fill="#F490EE" stroke="#F490EE" stroke-linejoin="bevel"/>
<path d="M745 1080H956L749 877L745 1080Z" fill="#E67DF7" stroke="#E67DF7" stroke-linejoin="bevel"/>
<path d="M249 466L232 641L453 665L249 466Z" fill="#FCA4E8" stroke="#FCA4E8" stroke-linejoin="bevel"/>
<path d="M1229 830L1433 626L1224 685L1229 830Z" fill="#F797EC" stroke="#F797EC" stroke-linejoin="bevel"/>
<path d="M1227 422L1448 182L1185 240L1227 422Z" fill="#F797EC" stroke="#F797EC" stroke-linejoin="bevel"/>
<path d="M735 0H448L502 215L735 0Z" fill="#E67DF7" stroke="#E67DF7" stroke-linejoin="bevel"/>
<path d="M502 215L212 240L249 466L502 215Z" fill="#F08AF1" stroke="#F08AF1" stroke-linejoin="bevel"/>
<path d="M1185 240L1208 0H976L1185 240Z" fill="#E077FB" stroke="#E077FB" stroke-linejoin="bevel"/>
<path d="M1448 182L1208 0L1185 240L1448 182Z" fill="#FA9DEA" stroke="#FA9DEA" stroke-linejoin="bevel"/>
<path d="M1433 626L1460 460L1227 422L1433 626Z" fill="#F797EC" stroke="#F797EC" stroke-linejoin="bevel"/>
<path d="M459 841L504 1080L749 877L459 841Z" fill="#EB83F4" stroke="#EB83F4" stroke-linejoin="bevel"/>
<path d="M249 1080H504L459 841L249 1080Z" fill="#F490EE" stroke="#F490EE" stroke-linejoin="bevel"/>
<path d="M448 0L212 240L502 215L448 0Z" fill="#F490EE" stroke="#F490EE" stroke-linejoin="bevel"/>
<path d="M249 466L0 440L232 641L249 466Z" fill="#F490EE" stroke="#F490EE" stroke-linejoin="bevel"/>
<path d="M0 644L227 841L232 641L0 644Z" fill="#FFB2E6" stroke="#FFB2E6" stroke-linejoin="bevel"/>
<path d="M232 641L227 841L453 665L232 641Z" fill="#E077FB" stroke="#E077FB" stroke-linejoin="bevel"/>
<path d="M956 1080H1191L971 863L956 1080Z" fill="#F490EE" stroke="#F490EE" stroke-linejoin="bevel"/>
<path d="M1229 830L1453 894L1433 626L1229 830Z" fill="#E67DF7" stroke="#E67DF7" stroke-linejoin="bevel"/>
<path d="M1460 460L1448 182L1227 422L1460 460Z" fill="#E077FB" stroke="#E077FB" stroke-linejoin="bevel"/>
<path d="M1400 1080L1453 894L1229 830L1400 1080Z" fill="#D972FF" stroke="#D972FF" stroke-linejoin="bevel"/>
<path d="M1433 626L1694 641L1460 460L1433 626Z" fill="#FEABE7" stroke="#FEABE7" stroke-linejoin="bevel"/>
<path d="M1448 182L1422 0H1208L1448 182Z" fill="#D972FF" stroke="#D972FF" stroke-linejoin="bevel"/>
<path d="M448 0H200L212 240L448 0Z" fill="#FA9DEA" stroke="#FA9DEA" stroke-linejoin="bevel"/>
<path d="M212 240L0 440L249 466L212 240Z" fill="#FA9DEA" stroke="#FA9DEA" stroke-linejoin="bevel"/>
<path d="M227 841L249 1080L459 841H227Z" fill="#F08AF1" stroke="#F08AF1" stroke-linejoin="bevel"/>
<path d="M1191 1080H1400L1229 830L1191 1080Z" fill="#F797EC" stroke="#F797EC" stroke-linejoin="bevel"/>
<path d="M0 184V440L212 240L0 184Z" fill="#FEABE7" stroke="#FEABE7" stroke-linejoin="bevel"/>
<path d="M227 841L0 877L249 1080L227 841Z" fill="#E67DF7" stroke="#E67DF7" stroke-linejoin="bevel"/>
<path d="M0 440V644L232 641L0 440Z" fill="#EB83F4" stroke="#EB83F4" stroke-linejoin="bevel"/>
<path d="M200 0L0 184L212 240L200 0Z" fill="#F490EE" stroke="#F490EE" stroke-linejoin="bevel"/>
<path d="M1717 855L1694 641L1453 894L1717 855Z" fill="#F797EC" stroke="#F797EC" stroke-linejoin="bevel"/>
<path d="M1453 894L1694 641L1433 626L1453 894Z" fill="#D972FF" stroke="#D972FF" stroke-linejoin="bevel"/>
<path d="M1460 460L1679 186L1448 182L1460 460Z" fill="#F490EE" stroke="#F490EE" stroke-linejoin="bevel"/>
<path d="M1448 182L1658 0H1422L1448 182Z" fill="#E67DF7" stroke="#E67DF7" stroke-linejoin="bevel"/>
<path d="M0 644V877L227 841L0 644Z" fill="#FEABE7" stroke="#FEABE7" stroke-linejoin="bevel"/>
<path d="M1694 641L1719 411L1460 460L1694 641Z" fill="#E67DF7" stroke="#E67DF7" stroke-linejoin="bevel"/>
<path d="M1719 411L1679 186L1460 460L1719 411Z" fill="#FFB2E6" stroke="#FFB2E6" stroke-linejoin="bevel"/>
<path d="M200 0H0V184L200 0Z" fill="#E67DF7" stroke="#E67DF7" stroke-linejoin="bevel"/>
<path d="M1710 1080L1717 855L1453 894L1710 1080Z" fill="#F797EC" stroke="#F797EC" stroke-linejoin="bevel"/>
<path d="M1694 641L1920 458L1719 411L1694 641Z" fill="#F08AF1" stroke="#F08AF1" stroke-linejoin="bevel"/>
<path d="M1920 0H1658L1679 186L1920 0Z" fill="#FCA4E8" stroke="#FCA4E8" stroke-linejoin="bevel"/>
<path d="M1679 186L1658 0L1448 182L1679 186Z" fill="#FFB2E6" stroke="#FFB2E6" stroke-linejoin="bevel"/>
<path d="M0 877V1080H249L0 877Z" fill="#E077FB" stroke="#E077FB" stroke-linejoin="bevel"/>
<path d="M1400 1080H1710L1453 894L1400 1080Z" fill="#F490EE" stroke="#F490EE" stroke-linejoin="bevel"/>
<path d="M1920 671V458L1694 641L1920 671Z" fill="#FFB2E6" stroke="#FFB2E6" stroke-linejoin="bevel"/>
<path d="M1719 411L1920 194L1679 186L1719 411Z" fill="#F797EC" stroke="#F797EC" stroke-linejoin="bevel"/>
<path d="M1920 671L1694 641L1717 855L1920 671Z" fill="#D972FF" stroke="#D972FF" stroke-linejoin="bevel"/>
<path d="M1920 833V671L1717 855L1920 833Z" fill="#F490EE" stroke="#F490EE" stroke-linejoin="bevel"/>
<path d="M1920 458V194L1719 411L1920 458Z" fill="#F08AF1" stroke="#F08AF1" stroke-linejoin="bevel"/>
<path d="M1920 1080V833L1717 855L1920 1080Z" fill="#FA9DEA" stroke="#FA9DEA" stroke-linejoin="bevel"/>
<path d="M1920 194V0L1679 186L1920 194Z" fill="#FFB2E6" stroke="#FFB2E6" stroke-linejoin="bevel"/>
<path d="M1710 1080H1920L1717 855L1710 1080Z" fill="#E67DF7" stroke="#E67DF7" stroke-linejoin="bevel"/>
</svg>
