<svg width="29" height="29" viewBox="0 0 29 29" fill="none" xmlns="http://www.w3.org/2000/svg">
<path fill-rule="evenodd" clip-rule="evenodd" d="M14.5 28.5C18.213 28.5 21.774 27.025 24.3995 24.3995C27.025 21.774 28.5 18.213 28.5 14.5C28.5 10.787 27.025 7.22601 24.3995 4.6005C21.774 1.975 18.213 0.5 14.5 0.5C10.787 0.5 7.22601 1.975 4.6005 4.6005C1.975 7.22601 0.5 10.787 0.5 14.5C0.5 18.213 1.975 21.774 4.6005 24.3995C7.22601 27.025 10.787 28.5 14.5 28.5ZM20.987 12.237C21.3008 11.9061 21.473 11.4657 21.467 11.0096C21.4609 10.5536 21.2771 10.1179 20.9546 9.79544C20.6321 9.47295 20.1964 9.28909 19.7404 9.28303C19.2843 9.27697 18.844 9.44919 18.513 9.763L12.75 15.526L10.487 13.263C10.1561 12.9492 9.71566 12.777 9.25963 12.783C8.80359 12.7891 8.36794 12.9729 8.04544 13.2954C7.72295 13.6179 7.53909 14.0536 7.53303 14.5096C7.52697 14.9657 7.69919 15.406 8.013 15.737L11.513 19.237C11.8412 19.5649 12.2861 19.7491 12.75 19.7491C13.2139 19.7491 13.6588 19.5649 13.987 19.237L20.987 12.237Z" fill="white"/>
</svg>
