<svg width="302" height="302" viewBox="0 0 302 302" fill="none" xmlns="http://www.w3.org/2000/svg">
<rect width="302" height="302" rx="25" fill="#BABABA" fill-opacity="0.5"/>
<path d="M192.805 151.228C184.654 152.092 178.091 152.973 172.928 154.268C167.039 155.753 163.102 157.722 160.183 160.64C157.248 163.576 155.279 167.496 153.811 173.385C152.516 178.548 151.635 185.111 150.772 193.262C149.908 185.093 149.027 178.548 147.732 173.385C146.247 167.496 144.278 163.559 141.36 160.64C138.424 157.704 134.504 155.736 128.615 154.268C123.452 152.973 116.889 152.092 108.738 151.228C116.889 150.365 123.452 149.484 128.615 148.189C134.504 146.704 138.424 144.735 141.36 141.817C144.296 138.881 146.264 134.961 147.732 129.072C149.027 123.909 149.908 117.346 150.772 109.195C151.635 117.346 152.516 123.909 153.811 129.072C155.296 134.961 157.265 138.898 160.183 141.817C163.119 144.752 167.039 146.721 172.928 148.189C178.091 149.484 184.654 150.365 192.805 151.228Z" fill="#828282"/>
<path d="M279.25 16H231.75C229.127 16 227 18.1266 227 20.75V68.25C227 70.8734 229.127 73 231.75 73H279.25C281.873 73 284 70.8734 284 68.25V20.75C284 18.1266 281.873 16 279.25 16Z" fill="#FCB341"/>
<path fill-rule="evenodd" clip-rule="evenodd" d="M255.5 27C258.006 27 260.037 28.9733 260.037 31.4074V39.5926H268.463C270.969 39.5926 273 41.5659 273 44C273 46.4341 270.969 48.4074 268.463 48.4074H260.037V56.5926C260.037 59.0267 258.006 61 255.5 61C252.994 61 250.963 59.0267 250.963 56.5926V48.4074H242.537C240.031 48.4074 238 46.4341 238 44C238 41.5659 240.031 39.5926 242.537 39.5926H250.963V31.4074C250.963 28.9733 252.994 27 255.5 27Z" fill="white"/>
</svg>
