<svg width="167" height="167" viewBox="0 0 167 167" fill="none" xmlns="http://www.w3.org/2000/svg">
<rect width="167" height="167" rx="25" fill="#DCDCDC"/>
<path d="M106.617 83.6264C102.11 84.1039 98.4808 84.5909 95.6255 85.3071C92.3691 86.1284 90.1918 87.217 88.5779 88.8309C86.9545 90.4543 85.8659 92.622 85.0542 95.8784C84.338 98.7337 83.8509 102.363 83.3734 106.87C82.896 102.353 82.4089 98.7337 81.6927 95.8784C80.8715 92.622 79.7828 90.4448 78.1689 88.8309C76.5455 87.2075 74.3778 86.1188 71.1214 85.3071C68.2661 84.5909 64.6373 84.1039 60.1299 83.6264C64.6373 83.1489 68.2661 82.6619 71.1214 81.9457C74.3778 81.1244 76.5455 80.0358 78.1689 78.4219C79.7924 76.7985 80.881 74.6307 81.6927 71.3743C82.4089 68.519 82.896 64.8902 83.3734 60.3828C83.8509 64.8902 84.338 68.519 85.0542 71.3743C85.8754 74.6307 86.9641 76.808 88.5779 78.4219C90.2014 80.0453 92.3691 81.134 95.6255 81.9457C98.4808 82.6619 102.11 83.1489 106.617 83.6264Z" fill="#828282"/>
</svg>
