<svg width="14" height="14" viewBox="0 0 14 14" fill="none" xmlns="http://www.w3.org/2000/svg">
<path fill-rule="evenodd" clip-rule="evenodd" d="M7 0C5.14348 0 3.36301 0.737498 2.05025 2.05025C0.737498 3.36301 0 5.14348 0 7C0 8.85652 0.737498 10.637 2.05025 11.9497C3.36301 13.2625 5.14348 14 7 14C8.85652 14 10.637 13.2625 11.9497 11.9497C13.2625 10.637 14 8.85652 14 7C14 5.14348 13.2625 3.36301 11.9497 2.05025C10.637 0.737498 8.85652 0 7 0ZM3.343 8.223C3.343 8.1567 3.36934 8.09311 3.41622 8.04622C3.46311 7.99934 3.5267 7.973 3.593 7.973H10.375C10.4413 7.973 10.5049 7.99934 10.5518 8.04622C10.5987 8.09311 10.625 8.1567 10.625 8.223C10.625 8.775 10.355 9.56 9.773 10.206C9.183 10.862 8.269 11.379 6.983 11.379C5.699 11.379 4.785 10.862 4.194 10.206C3.613 9.56 3.344 8.776 3.344 8.223H3.343ZM4.582 5.976C4.31029 5.97573 4.04981 5.86754 3.85786 5.67522C3.76282 5.58 3.68747 5.46698 3.6361 5.34264C3.58474 5.21829 3.55837 5.08504 3.5585 4.9505C3.55863 4.81596 3.58526 4.68277 3.63687 4.55852C3.68848 4.43427 3.76405 4.3214 3.85928 4.22636C4.05159 4.03442 4.31229 3.92673 4.584 3.927H4.587C4.85871 3.9274 5.11914 4.03572 5.31099 4.22813C5.50284 4.42054 5.6104 4.68129 5.61 4.953C5.6096 5.22471 5.50128 5.48514 5.30887 5.67699C5.11646 5.86884 4.85571 5.9764 4.584 5.976H4.582ZM9.413 5.976C9.14129 5.9756 8.88086 5.86728 8.68901 5.67487C8.49716 5.48246 8.3896 5.22171 8.39 4.95C8.3904 4.67829 8.49872 4.41786 8.69113 4.22601C8.88354 4.03416 9.14429 3.9266 9.416 3.927H9.418C9.68971 3.92727 9.95019 4.03546 10.1421 4.22778C10.3341 4.42009 10.4418 4.68079 10.4415 4.9525C10.4412 5.22421 10.333 5.48469 10.1407 5.67664C9.94841 5.86858 9.68771 5.97626 9.416 5.976H9.413Z" fill="#333333"/>
</svg>
