<svg width="30" height="30" viewBox="0 0 44 41" fill="none" xmlns="http://www.w3.org/2000/svg">
<path d="M42.3309 19.9275L22.6912 0.443742C22.5498 0.303077 22.3819 0.191479 22.1969 0.115336C22.012 0.0391931 21.8138 0 21.6136 0C21.4135 0 21.2152 0.0391931 21.0303 0.115336C20.8454 0.191479 20.6775 0.303077 20.5361 0.443742L0.896397 19.9275C0.324228 20.4955 0 21.2671 0 22.0719C0 23.7428 1.36844 25.1014 3.05156 25.1014H5.1209V39.0042C5.1209 39.842 5.80274 40.5189 6.64669 40.5189H18.5621V29.9155H23.9023V40.5189H36.5806C37.4246 40.5189 38.1064 39.842 38.1064 39.0042V25.1014H40.1757C40.9863 25.1014 41.7635 24.7842 42.3357 24.2115C43.5229 23.0281 43.5229 21.1109 42.3309 19.9275Z" fill="#FCB341"/>
</svg>
