<svg width="45" height="46" viewBox="0 0 45 46" fill="none" xmlns="http://www.w3.org/2000/svg">
<path d="M41.2197 24.3296C41.9798 24.2457 42.5551 23.6034 42.5551 22.8387C42.5551 22.074 41.9798 21.4317 41.2197 21.3478C37.5317 20.9404 34.6579 20.5339 32.4368 19.953L32.4346 19.9524C29.9299 19.3015 28.4425 18.476 27.3706 17.3583C26.3025 16.2447 25.5003 14.6698 24.8616 12.0297C24.3014 9.70092 23.9105 6.69368 23.5198 2.84838C23.442 2.0826 22.7973 1.5 22.0275 1.5C21.2578 1.5 20.613 2.0826 20.5352 2.84838C20.1445 6.69415 19.7536 9.70166 19.1933 12.0306L19.1928 12.0326C18.5631 14.6665 17.7623 16.2339 16.686 17.3567C15.6128 18.4684 14.1229 19.2943 11.617 19.9533C9.39603 20.5341 6.52267 20.9405 2.83533 21.3478C2.07525 21.4317 1.5 22.074 1.5 22.8387C1.5 23.6034 2.07525 24.2457 2.83533 24.3296C6.52339 24.737 9.39714 25.1435 11.6183 25.7244L11.6205 25.725C14.1252 26.3759 15.6125 27.2014 16.6845 28.3191C17.7526 29.4328 18.5548 31.0076 19.1935 33.6477C19.7537 35.9766 20.1446 38.9759 20.5352 42.8287C20.6128 43.5946 21.2576 44.1773 22.0274 44.1774C22.7972 44.1775 23.442 43.5949 23.5198 42.829C23.9106 38.9833 24.3015 35.9758 24.8618 33.6469L24.8623 33.6448C25.4923 31.0097 26.2935 29.4421 27.3706 28.3191C28.4335 27.2109 29.9278 26.3842 32.4379 25.7241C34.6589 25.1434 37.5323 24.7369 41.2197 24.3296Z" fill="#828282" stroke="#333333" stroke-width="3" stroke-linejoin="round"/>
</svg>
