<svg width="41" height="41" viewBox="0 0 41 41" fill="none" xmlns="http://www.w3.org/2000/svg">
<path d="M6.8335 20.4999C6.8335 16.8753 8.27338 13.3991 10.8364 10.8361C13.3994 8.27311 16.8755 6.83323 20.5002 6.83323C24.1248 6.83323 27.601 8.27311 30.164 10.8361C32.727 13.3991 34.1668 16.8753 34.1668 20.4999C34.1668 24.5111 32.1544 25.5224 31.4608 25.56C31.0918 25.5805 30.5998 25.4506 30.1147 24.8151C29.5953 24.1386 29.0418 22.8061 29.0418 20.4999V12.8124C29.0413 12.247 28.8539 11.6977 28.5087 11.25C28.1634 10.8023 27.6799 10.4813 27.1332 10.337C26.5866 10.1927 26.0076 10.2333 25.4864 10.4524C24.9652 10.6715 24.5311 11.0567 24.2517 11.5482C22.8677 10.6941 21.2723 10.2443 19.646 10.2499C14.1793 10.2499 10.2502 15.1323 10.2502 20.4999C10.2502 25.8675 14.1793 30.7499 19.646 30.7499C22.2085 30.7499 24.4396 29.6736 26.0796 27.979C27.5146 29.824 29.5714 30.8011 31.7512 30.6781C36.1758 30.4287 39.2918 26.0691 39.2918 20.4999C39.2907 16.5697 38.0574 12.7388 35.7653 9.5462C33.4733 6.35358 30.238 3.95994 26.5145 2.70208C22.7911 1.44421 18.767 1.38543 15.0084 2.53401C11.2498 3.68259 7.9459 5.98071 5.5616 9.10503C3.1773 12.2293 1.83259 16.0226 1.71667 19.951C1.60076 23.8795 2.71947 27.7454 4.91541 31.0049C7.11134 34.2644 10.274 36.7533 13.9583 38.1215C17.6426 39.4897 21.6632 39.6683 25.4543 38.6321C26.1104 38.4536 26.6687 38.0218 27.0063 37.4317C27.344 36.8416 27.4334 36.1415 27.2549 35.4854C27.0764 34.8293 26.6446 34.2711 26.0545 33.9334C25.4643 33.5957 24.7642 33.5063 24.1082 33.6848C22.0803 34.2356 19.9528 34.3121 17.8905 33.9083C15.8283 33.5045 13.8868 32.6313 12.2164 31.3563C10.5459 30.0814 9.19152 28.4389 8.25805 26.5562C7.32458 24.6736 6.83714 22.6013 6.8335 20.4999ZM23.9168 20.4999C23.9168 23.6227 21.7302 25.6249 19.646 25.6249C17.5618 25.6249 15.3752 23.6227 15.3752 20.4999C15.3752 17.3771 17.5618 15.3749 19.646 15.3749C21.7302 15.3749 23.9168 17.3771 23.9168 20.4999Z" fill="white"/>
</svg>
