<svg width="56" height="56" viewBox="0 0 56 56" fill="none" xmlns="http://www.w3.org/2000/svg">
<path d="M21 19.001C20.9997 19.7966 20.6834 20.5596 20.1206 21.122C19.5578 21.6844 18.7947 22.0003 17.999 22C17.2034 21.9997 16.4404 21.6834 15.878 21.1206C15.3156 20.5578 14.9997 19.7947 15 18.999C15.0003 18.2034 15.3166 17.4404 15.8794 16.878C16.1581 16.5995 16.4888 16.3786 16.8529 16.228C17.2169 16.0773 17.607 15.9999 18.001 16C18.395 16.0001 18.785 16.0779 19.149 16.2287C19.5129 16.3796 19.8435 16.6007 20.122 16.8794C20.4005 17.1581 20.6214 17.4888 20.772 17.8529C20.9227 18.2169 21.0001 18.607 21 19.001Z" fill="white"/>
<path d="M17.875 11C13.6 11 10 14.6267 10 18.9333C10 23.24 13.6 26.8667 17.875 26.8667C22.15 26.8667 25.75 23.24 25.75 18.9333C25.75 14.6267 22.15 11 17.875 11ZM17.875 24.6C14.725 24.6 12.25 22.1067 12.25 18.9333C12.25 15.76 14.725 13.2667 17.875 13.2667C21.025 13.2667 23.5 15.76 23.5 18.9333C23.5 22.1067 21.025 24.6 17.875 24.6ZM17.875 29.1333C13.6 29.1333 10 32.76 10 37.0667C10 41.3733 13.6 45 17.875 45C22.15 45 25.75 41.3733 25.75 37.0667C25.75 32.76 22.15 29.1333 17.875 29.1333ZM17.875 42.7333C14.725 42.7333 12.25 40.24 12.25 37.0667C12.25 33.8933 14.725 31.4 17.875 31.4C21.025 31.4 23.5 33.8933 23.5 37.0667C23.5 40.24 21.025 42.7333 17.875 42.7333ZM28 18.9333C28 17.0556 29.5222 15.5333 31.4 15.5333H42.6C44.4778 15.5333 46 17.0556 46 18.9333C46 20.8111 44.4778 22.3333 42.6 22.3333H31.4C29.5222 22.3333 28 20.8111 28 18.9333ZM28 37.0667C28 35.1889 29.5222 33.6667 31.4 33.6667H42.6C44.4778 33.6667 46 35.1889 46 37.0667C46 38.9444 44.4778 40.4667 42.6 40.4667H31.4C29.5222 40.4667 28 38.9444 28 37.0667Z" fill="white"/>
</svg>
