<svg width="736" height="736" viewBox="0 0 736 736" fill="none" xmlns="http://www.w3.org/2000/svg">
<g clip-path="url(#clip0_429_1165)">
<path d="M285.348 187.29C291.005 183.969 296.592 180.876 301.922 177.984C337.01 158.945 380.083 159.716 417.485 170.198C502.607 194.054 547.132 287.368 604.834 311.805C662.538 336.243 741.281 590.787 521.203 625.275C301.122 659.762 187.188 721.48 97.7715 649.379C8.3563 577.276 97.7715 436.72 176.578 409.008C255.156 381.377 204.413 308.006 217.763 258.717C226.461 226.607 256.815 204.04 285.348 187.29Z" fill="#EBEBEB"/>
<path d="M254.604 345.549H80.4668V586.021H254.604V345.549Z" fill="#C7C7C7"/>
<path d="M248.359 361.597H75.0659V521.466H248.359V361.597Z" fill="#FFC061"/>
<path d="M248.279 521.466H74.9863V580.092H248.279V521.466Z" fill="white"/>
<path d="M248.429 332.676H75.1367V361.507H248.429V332.676Z" fill="white"/>
<path d="M115.883 539.382L114.05 536.274C114.388 535.578 114.592 534.805 114.594 533.979C114.595 531.047 112.221 528.668 109.289 528.666C106.356 528.664 103.978 531.038 103.975 533.971C103.973 536.903 106.347 539.282 109.28 539.285C110.503 539.286 111.617 538.856 112.515 538.161L115.883 539.382Z" stroke="#263238" stroke-width="0.8199" stroke-miterlimit="10"/>
<path d="M90.5396 531.261C92.3884 528.424 96.2392 529.861 96.2686 532.758C96.3084 536.594 90.6279 539.791 90.6279 539.791C90.6279 539.791 84.8827 536.712 84.843 532.877C84.812 529.979 88.6334 528.464 90.5396 531.261Z" stroke="#263238" stroke-width="0.8199" stroke-miterlimit="10"/>
<path d="M135.735 528.549L123.003 533.058L129.623 534.651L131.205 541.273L135.735 528.549Z" stroke="#263238" stroke-width="0.8199" stroke-miterlimit="10"/>
<path d="M129.623 534.651L135.735 528.549" stroke="#263238" stroke-width="0.8199" stroke-miterlimit="10"/>
<path d="M238.854 546.565H84.8105V550.46H238.854V546.565Z" fill="#A6A6A6"/>
<path d="M238.847 556.725H84.8032V560.62H238.847V556.725Z" fill="#A6A6A6"/>
<path d="M238.839 566.886H84.7959V570.78H238.839V566.886Z" fill="#A6A6A6"/>
<path d="M84.8403 347.034C84.8359 352.69 89.4168 357.276 95.0707 357.281C100.725 357.285 105.313 352.704 105.317 347.05C105.322 341.396 100.741 336.808 95.0855 336.804C89.4315 336.799 84.8448 341.379 84.8403 347.034Z" fill="#FFC061"/>
<path d="M99.3365 343.588C99.3351 345.814 97.5304 347.615 95.3047 347.614C93.0791 347.612 91.2773 345.808 91.2788 343.582C91.2803 341.358 93.085 339.555 95.3106 339.556C97.5363 339.558 99.338 341.364 99.3365 343.588Z" fill="white"/>
<path d="M95.3048 347.614C92.243 347.611 89.7598 350.091 89.7583 353.153L89.7568 355.776C91.3069 356.723 93.1218 357.279 95.0722 357.28C97.2125 357.282 99.1982 356.624 100.842 355.502L100.844 353.162C100.845 350.1 98.3666 347.617 95.3048 347.614Z" fill="white"/>
<path d="M188.164 350.078L131.57 350.036C129.199 350.034 127.262 348.093 127.263 345.723C127.265 343.351 129.206 341.414 131.576 341.416L188.17 341.458C190.54 341.46 192.479 343.401 192.477 345.771C192.476 348.143 190.534 350.08 188.164 350.078Z" fill="#A6A6A6"/>
<path d="M162.996 377.522C162.994 384.243 162.991 392.31 162.99 398.695C162.993 392.31 162.994 384.243 162.996 377.522C125.978 377.512 126.249 410.583 126.249 410.583L162.987 409.787L199.725 410.604C199.725 410.604 200.013 377.532 162.996 377.522Z" fill="#DB973E"/>
<path d="M162.987 409.787L199.725 410.604C199.725 410.604 199.787 403.397 196.089 395.712C171.679 386.89 144.578 391.324 130.314 394.849C126.187 402.841 126.25 410.583 126.25 410.583L162.987 409.787Z" fill="white"/>
<path d="M162.98 474.138C204.559 474.138 238.265 457.61 238.265 437.22C238.265 416.831 204.559 400.303 162.98 400.303C121.401 400.303 87.6943 416.831 87.6943 437.22C87.6943 457.61 121.401 474.138 162.98 474.138Z" fill="#FFD9A6"/>
<path d="M162.98 474.138C204.559 474.138 238.265 458.248 238.265 438.647C238.265 419.045 204.559 403.155 162.98 403.155C121.401 403.155 87.6943 419.045 87.6943 438.647C87.6943 458.248 121.401 474.138 162.98 474.138Z" fill="#DB973E"/>
<path d="M132.602 428.926C132.602 428.926 119.967 442.785 114.804 465.91C124.303 469.644 135.782 472.297 148.389 473.467L132.602 428.926Z" fill="#BC7D33"/>
<path d="M198.957 455.768C198.957 455.768 218.592 485.213 208.859 506.532C169.464 506.532 166.215 506.532 166.215 506.532V457.636L198.957 455.768Z" fill="#51200B"/>
<path d="M126.976 455.768C126.976 455.768 107.341 485.213 117.074 506.532C156.469 506.532 159.718 506.532 159.718 506.532V457.636L126.976 455.768Z" fill="#51200B"/>
<path d="M204.278 499.065C191.729 502.289 185.993 505.692 178.82 501.567C171.647 497.443 175.365 479.698 175.365 479.698L162.969 478.977L150.574 479.691C150.574 479.691 154.282 497.437 147.107 501.559C139.931 505.679 134.196 502.272 121.65 499.041C109.103 495.812 91.536 498.316 86.3311 521.438C158.031 521.457 162.957 521.459 162.957 521.459C162.957 521.459 167.884 521.46 239.584 521.479C234.392 498.357 216.825 495.843 204.278 499.065Z" fill="#BC6C64"/>
<path d="M175.364 479.698L162.968 478.977L150.572 479.691C150.572 479.691 152.05 486.768 151.333 493.022C162.827 493.308 171.139 487.588 174.648 484.633C174.932 481.757 175.364 479.698 175.364 479.698Z" fill="#6D3E3B"/>
<path d="M193.363 428.942C193.363 428.942 195.954 434.341 196.18 437.799C192.704 440.178 192.704 440.178 192.704 440.178L193.363 428.942Z" fill="#51200B"/>
<path d="M132.602 428.926C132.602 428.926 130.008 434.324 129.78 437.781C133.256 440.162 133.256 440.162 133.256 440.162L132.602 428.926Z" fill="#51200B"/>
<path fill-rule="evenodd" clip-rule="evenodd" d="M203.332 449.456C199.959 456.292 194.419 460.45 190.956 458.741C187.494 457.033 187.421 450.106 190.793 443.27C194.165 436.434 199.706 432.276 203.168 433.985C206.63 435.694 206.704 442.62 203.332 449.456Z" fill="#BC6C64"/>
<path fill-rule="evenodd" clip-rule="evenodd" d="M205.542 437.416C202.367 438.19 198.624 441.808 196.098 446.93C193.893 451.399 193.161 455.907 193.887 458.971C197.062 458.196 200.805 454.578 203.333 449.457C205.536 444.987 206.268 440.479 205.542 437.416Z" fill="#7C3D35"/>
<path fill-rule="evenodd" clip-rule="evenodd" d="M122.622 449.434C125.99 456.273 131.529 460.433 134.992 458.727C138.456 457.02 138.533 450.093 135.165 443.256C131.797 436.418 126.258 432.257 122.794 433.963C119.329 435.669 119.252 442.596 122.622 449.434Z" fill="#BC6C64"/>
<path fill-rule="evenodd" clip-rule="evenodd" d="M120.417 437.393C123.592 438.168 127.332 441.788 129.857 446.912C132.059 451.382 132.787 455.891 132.06 458.953C128.885 458.177 125.145 454.558 122.62 449.434C120.418 444.963 119.69 440.456 120.417 437.393Z" fill="#7C3D35"/>
<path d="M162.984 419.646C162.984 419.646 143.717 419.277 132.601 428.926C134.205 462.071 136.89 475.365 151.586 483.2C159.114 486.845 162.965 486.299 162.965 486.299C162.965 486.299 166.816 486.846 174.345 483.206C189.046 475.379 191.738 462.086 193.36 428.942C182.251 419.287 162.984 419.646 162.984 419.646Z" fill="#BC6C64"/>
<path d="M158.753 470.452C158.753 470.452 163.055 471.887 167.476 470.455C163.533 472.485 161.502 472.484 158.753 470.452Z" fill="#7A372E"/>
<path fill-rule="evenodd" clip-rule="evenodd" d="M178.841 421.751C170.494 419.507 162.984 419.646 162.984 419.646C162.984 419.646 143.717 419.277 132.601 428.926C144.387 429.443 176.927 426.817 178.841 421.751Z" fill="#51200B"/>
<path fill-rule="evenodd" clip-rule="evenodd" d="M173.105 432.445C173.105 432.445 183.024 431.062 189.476 434.238C185.891 430.823 183.231 429.019 173.105 430.37C173.105 432.445 173.105 432.445 173.105 432.445Z" fill="#51200B"/>
<path fill-rule="evenodd" clip-rule="evenodd" d="M152.855 432.442C152.855 432.442 142.937 431.054 136.483 434.228C140.069 430.814 142.732 429.011 152.856 430.367C152.855 432.442 152.855 432.442 152.855 432.442Z" fill="#51200B"/>
<path d="M162.96 507.659H162.395L158.905 507.657C158.253 507.657 157.876 508.398 158.26 508.925L161.119 512.845C162.029 514.091 163.888 514.093 164.798 512.846L167.658 508.928C168.042 508.401 167.666 507.66 167.014 507.66L162.96 507.659Z" fill="#7A372E"/>
<path d="M171.363 448.668C171.363 448.668 175.782 438.256 188.092 444.871C186.215 450.411 175.243 451.211 171.363 448.668Z" fill="#FFF6E7"/>
<path d="M174.008 445.15C173.95 445.479 173.906 445.815 173.906 446.162C173.906 447.598 174.439 448.894 175.291 449.916C178.552 450.328 182.609 449.778 185.333 448.088C185.544 447.483 185.682 446.843 185.682 446.165C185.682 445.203 185.429 444.308 185.02 443.506C179.675 441.638 176.139 443.246 174.008 445.15Z" fill="#51200B"/>
<path d="M171.363 448.668C171.363 448.668 176.184 438.123 188.092 444.872" stroke="#51200B" stroke-width="0.8258" stroke-miterlimit="10"/>
<path d="M154.591 448.662C154.591 448.662 150.178 438.248 137.864 444.856C139.737 450.399 150.709 451.204 154.591 448.662Z" fill="#FFF6E7"/>
<path d="M151.947 445.144C152.004 445.474 152.048 445.81 152.048 446.157C152.048 447.592 151.514 448.889 150.66 449.911C147.4 450.321 143.343 449.769 140.62 448.077C140.409 447.472 140.272 446.831 140.272 446.154C140.272 445.192 140.526 444.297 140.936 443.494C146.283 441.629 149.817 443.24 151.947 445.144Z" fill="#51200B"/>
<path d="M154.591 448.662C154.591 448.662 149.776 438.114 137.864 444.856" stroke="#51200B" stroke-width="0.8258" stroke-miterlimit="10"/>
<path opacity="0.27" d="M188.891 455.966C188.891 457.777 185.355 459.244 180.995 459.243C176.635 459.241 173.101 457.772 173.101 455.962C173.101 454.151 176.637 452.684 180.997 452.685C185.357 452.687 188.891 454.156 188.891 455.966Z" fill="#AF0808"/>
<path opacity="0.27" d="M137.059 455.951C137.059 457.762 140.593 459.231 144.953 459.233C149.313 459.234 152.849 457.766 152.849 455.956C152.849 454.145 149.315 452.676 144.955 452.675C140.595 452.673 137.059 454.141 137.059 455.951Z" fill="#AF0808"/>
<path d="M162.956 521.46C162.956 521.46 167.883 521.461 239.582 521.481C234.391 498.355 216.825 495.841 204.277 499.065C193.711 501.779 187.973 504.62 182.142 502.988C180.167 506.777 174.414 515.442 163.115 515.442C152.384 515.442 146.727 507.067 144.521 502.745C138.424 504.847 132.659 501.876 121.647 499.041C109.101 495.812 91.5331 498.316 86.3281 521.438C158.029 521.459 162.956 521.46 162.956 521.46Z" fill="#FFC061"/>
<path d="M162.956 519.666C177.41 519.666 184.677 510.214 188.061 503.303C185.981 503.572 184.065 503.528 182.142 502.989C180.167 506.778 174.414 515.444 163.115 515.444C152.384 515.444 146.727 507.068 144.521 502.747C142.096 503.583 139.719 503.608 137.049 503.168C140.15 509.608 147.469 519.666 162.956 519.666Z" fill="white"/>
<path d="M204.278 499.065C203.666 499.223 203.074 499.38 202.492 499.538C202.459 504.8 203.134 513.698 207.256 521.473C216.145 521.476 226.798 521.479 239.584 521.482C234.392 498.357 216.825 495.843 204.278 499.065Z" fill="#BC6C64"/>
<path d="M114.688 521.447C119.61 513.678 120.28 503.712 120.262 498.716C107.841 496.024 91.3462 499.155 86.3296 521.438C97.2651 521.443 106.639 521.445 114.688 521.447Z" fill="#BC6C64"/>
<path d="M163.96 443.385C164.721 446.303 165.16 449.273 165.394 452.264C165.501 453.761 165.56 455.264 165.534 456.775C165.497 458.285 165.404 459.804 164.995 461.339L164.828 461.96L164.307 461.675C162.932 460.92 161.575 460.125 160.25 459.258C161.768 459.705 163.253 460.223 164.719 460.781L164.034 461.117C164.219 459.723 164.2 458.241 164.176 456.772L164.045 452.338C163.942 449.373 163.864 446.397 163.96 443.385Z" fill="#7A372E"/>
<path d="M158.753 443.385C158.753 443.385 163.024 441.647 167.079 443.385" stroke="#455A64" stroke-width="2.86" stroke-miterlimit="10"/>
<path d="M164.887 438.361C168.188 436.405 179.497 430.87 193.612 436.888C194.141 437.113 194.507 437.622 194.548 438.195C196.067 459.973 171.325 469.139 164.165 440.07C164 439.405 164.297 438.71 164.887 438.361Z" fill="#455A64"/>
<path d="M168.114 439.483C167.338 439.796 166.939 440.656 167.206 441.449C168.57 445.5 173.214 456.889 181.956 455.616C190.855 454.32 191.892 443.372 191.997 439.868C192.016 439.203 191.619 438.602 190.997 438.365C188.164 437.284 179.567 434.852 168.114 439.483Z" fill="#C7C7C7"/>
<path d="M160.875 438.042C157.533 436.156 146.109 430.861 132.125 437.176C131.601 437.413 131.245 437.93 131.217 438.504C130.16 460.31 155.09 468.951 161.633 439.736C161.784 439.066 161.472 438.379 160.875 438.042Z" fill="#455A64"/>
<path d="M157.673 439.233C158.454 439.53 158.871 440.381 158.622 441.179C157.343 445.258 152.942 456.742 144.175 455.654C135.251 454.547 133.981 443.622 133.804 440.122C133.77 439.456 134.156 438.849 134.773 438.598C137.58 437.457 146.123 434.843 157.673 439.233Z" fill="#C7C7C7"/>
<path d="M191.997 439.869C192.016 439.203 191.619 438.603 190.998 438.366C188.86 437.55 183.441 435.969 175.991 437.228C175.995 437.279 175.994 437.331 175.998 437.382C176.725 444.476 182.942 449.665 189.998 449.201C191.622 445.698 191.941 441.731 191.997 439.869Z" fill="white"/>
<path d="M157.673 439.233C152.606 437.307 148.121 436.73 144.441 436.785C144.438 436.813 144.432 436.839 144.431 436.867C143.911 443.263 148.04 448.96 153.99 450.641C156.475 447.34 157.964 443.279 158.622 441.179C158.871 440.381 158.455 439.529 157.673 439.233Z" fill="white"/>
<path d="M153.291 465.631C155.078 465.883 156.84 466.032 158.601 466.141C160.363 466.232 162.119 466.292 163.876 466.264C165.634 466.233 167.393 466.183 169.156 466.046C170.924 465.939 172.685 465.74 174.494 465.633C172.819 466.31 171.074 466.818 169.293 467.133C167.516 467.496 165.701 467.611 163.889 467.667C162.076 467.669 160.258 467.545 158.471 467.226C156.691 466.906 154.916 466.442 153.291 465.631Z" fill="#7A372E"/>
<path d="M196.509 459.723C196.509 460.876 195.575 461.809 194.423 461.809C193.27 461.809 192.337 460.876 192.337 459.723C192.337 458.57 193.27 457.637 194.423 457.637C195.575 457.637 196.509 458.57 196.509 459.723Z" fill="white"/>
<path d="M133.681 459.723C133.681 460.876 132.748 461.809 131.595 461.809C130.443 461.809 129.509 460.876 129.509 459.723C129.509 458.57 130.443 457.637 131.595 457.637C132.748 457.637 133.681 458.57 133.681 459.723Z" fill="white"/>
<path d="M248.4 332.706H74.9644V580.028H248.4V332.706Z" stroke="#EBEBEB" stroke-width="0.9655" stroke-miterlimit="10"/>
<path d="M207.403 609.608H200.294V665.94H207.403V609.608Z" fill="#37474F"/>
<path d="M207.403 665.94C222.959 665.94 235.57 653.33 235.57 637.774C235.57 622.218 222.959 609.607 207.403 609.607C191.847 609.607 179.236 622.218 179.236 637.774C179.236 653.33 191.847 665.94 207.403 665.94Z" fill="#37474F"/>
<path d="M200.295 665.94C215.851 665.94 228.461 653.33 228.461 637.774C228.461 622.218 215.851 609.607 200.295 609.607C184.739 609.607 172.128 622.218 172.128 637.774C172.128 653.33 184.739 665.94 200.295 665.94Z" fill="#455A64"/>
<path d="M200.247 629.907C205.152 622.369 215.387 626.176 215.472 633.871C215.586 644.062 200.499 652.569 200.499 652.569C200.499 652.569 185.227 644.399 185.114 634.209C185.028 626.513 195.176 622.481 200.247 629.907Z" fill="white"/>
<path d="M620.705 581.555H632.422V488.7H620.705V581.555Z" fill="#37474F"/>
<path d="M645.404 574.471C667.129 560.851 673.7 532.197 660.079 510.472C646.459 488.746 617.805 482.176 596.08 495.796C574.354 509.416 567.784 538.07 581.404 559.796C595.025 581.521 623.678 588.092 645.404 574.471Z" fill="#37474F"/>
<path d="M652.843 576.802C675.874 565.53 685.407 537.722 674.135 514.691C662.864 491.661 635.056 482.129 612.024 493.401C588.993 504.673 579.46 532.481 590.732 555.511C602.003 578.542 629.811 588.074 652.843 576.802Z" fill="#455A64"/>
<path d="M632.499 522.162C624.413 509.737 607.542 516.011 607.401 528.698C607.214 545.496 632.082 559.519 632.082 559.519C632.082 559.519 657.256 546.053 657.443 529.254C657.584 516.566 640.858 509.918 632.499 522.162Z" fill="white"/>
<path d="M245.166 252.592L266.573 273.901V252.592H245.166Z" fill="#263238"/>
<path d="M272.848 273.901H266.573V254.34H272.629L272.848 273.901Z" fill="#455A64"/>
<path d="M247.093 255.903H294.734C301.193 255.903 306.431 250.667 306.431 244.206V196.565C306.431 190.106 301.195 184.87 294.736 184.87H247.094C240.635 184.87 235.398 190.106 235.398 196.565V244.206C235.398 250.667 240.634 255.903 247.093 255.903Z" fill="#455A64"/>
<path d="M237.797 255.903H285.438C291.898 255.903 297.135 250.667 297.135 244.206V196.565C297.135 190.106 291.899 184.87 285.438 184.87H237.797C231.338 184.87 226.102 190.106 226.102 196.565V244.206C226.102 250.667 231.338 255.903 237.797 255.903Z" fill="#263238"/>
<path d="M675.166 339.558C675.166 349.345 673.531 357.281 671.511 357.281C669.493 357.281 667.858 349.347 667.858 339.558C667.858 329.771 669.495 321.835 671.511 321.835C673.531 321.835 675.166 329.769 675.166 339.558Z" fill="#DBDBDB"/>
<path d="M671.513 335.903C681.302 335.903 689.236 337.538 689.236 339.556C689.236 341.574 681.302 343.21 671.513 343.21C661.726 343.21 653.79 341.574 653.79 339.556C653.79 337.54 661.724 335.903 671.513 335.903Z" fill="#DBDBDB"/>
<path d="M500.606 588.967C500.606 598.754 498.971 606.689 496.951 606.689C494.933 606.689 493.298 598.755 493.298 588.967C493.298 579.179 494.933 571.244 496.951 571.244C498.969 571.245 500.606 579.179 500.606 588.967Z" fill="white"/>
<path d="M496.951 585.313C506.74 585.313 514.674 586.95 514.674 588.968C514.674 590.986 506.74 592.621 496.951 592.621C487.164 592.621 479.229 590.986 479.229 588.968C479.23 586.948 487.164 585.313 496.951 585.313Z" fill="white"/>
<path d="M503.549 192.608C503.549 196.251 500.595 199.206 496.951 199.206C493.308 199.206 490.354 196.253 490.354 192.608C490.354 188.965 493.308 186.011 496.951 186.011C500.596 186.012 503.549 188.965 503.549 192.608Z" fill="#A6A6A6"/>
<path d="M198.845 247.097C198.845 252.271 194.65 256.465 189.476 256.465C184.302 256.465 180.108 252.271 180.108 247.097C180.108 241.923 184.302 237.729 189.476 237.729C194.65 237.729 198.845 241.923 198.845 247.097Z" fill="#DBDBDB"/>
<path d="M548.433 360.338L541.122 365.27L533.809 370.201L533.195 361.403L532.581 352.603L540.508 356.471L548.433 360.338Z" fill="#A6A6A6"/>
<path d="M300.535 499.607L293.224 504.539L285.911 509.468L285.297 500.67L284.683 491.872L292.608 495.74L300.535 499.607Z" fill="white"/>
<path d="M135.914 637.008L126.45 634.004L116.987 630.998L124.322 624.304L131.655 617.613L133.785 627.31L135.914 637.008Z" fill="#A6A6A6"/>
<path d="M381.277 208.116C381.277 208.116 407.54 191.645 417.78 190.755C428.017 189.864 465.411 204.536 472.534 241.493C474.759 268.211 465.857 283.793 465.857 283.793L381.277 208.116Z" fill="#FFC061"/>
<path d="M469.912 273.084C467.994 280.042 465.857 283.791 465.857 283.791L381.277 208.114C381.277 208.114 390.991 202.025 400.906 197.051C415.208 206.307 449.062 231.413 469.912 273.084Z" fill="white"/>
<path opacity="0.43" d="M443.062 199.755C455.678 207.733 468.638 221.27 472.534 241.492C472.862 245.425 472.943 249.11 472.852 252.545C447.046 233.461 443.385 209.585 443.062 199.755Z" fill="#CE8E3A"/>
<path d="M337.129 190.421C327.758 200.479 355.78 241.818 399.718 282.754C443.656 323.69 486.871 348.722 496.242 338.663C505.612 328.605 477.59 287.267 433.652 246.331C389.716 205.394 346.499 180.363 337.129 190.421Z" fill="#FFC061"/>
<path opacity="0.81" d="M379.051 219.986C379.051 219.986 435.274 230.181 482.528 339.679C464.209 334.524 432.17 312.987 399.72 282.753C395.756 279.06 391.925 275.364 388.235 271.687C380.444 252.962 377.36 234.507 379.051 219.986Z" fill="#846017"/>
<path d="M443.061 279.832C443.061 279.832 459.849 301.481 468.022 338.445C473.352 362.552 505.34 373.709 527.074 401.582C556.074 438.772 549.004 582.504 409.575 536.937C355.098 474.794 341.767 364.7 341.767 364.7C341.767 364.7 371.203 327.504 379.72 299.595C388.235 271.686 443.061 279.832 443.061 279.832Z" fill="#600E00"/>
<path opacity="0.65" d="M517.464 522.017C513.923 475.465 482.549 404.415 465.345 376.14C440.886 335.944 435.363 294.031 435.363 294.031C364.885 302.989 404.252 530.524 404.257 530.555L404.258 530.556C404.271 530.568 408.11 533.853 414.465 538.455C465.521 553.855 498.169 543.204 517.464 522.017Z" fill="#3F1506"/>
<path d="M306.937 600.445L286.904 736.557H472.534L457.974 612.91L306.937 600.445Z" fill="#455A64"/>
<path d="M342.895 624.299C342.895 624.299 346.555 678.199 363.47 708.469C359.463 656.386 361.671 628.016 361.671 628.016C361.671 628.016 353.034 621.147 342.895 624.299Z" stroke="#263238" stroke-width="1.0791" stroke-miterlimit="10"/>
<path d="M394.631 627.006C394.631 627.006 407.096 662.618 441.373 672.411C440.482 652.825 440.482 652.825 440.482 652.825C440.482 652.825 420.896 653.715 412.438 627.006C394.631 627.006 394.631 627.006 394.631 627.006Z" fill="#263238"/>
<path d="M299.163 653.257L301.57 636.899C308.843 633.117 318.253 626.384 321.626 615.796C331.419 618.548 333.645 618.992 333.645 618.992C333.645 618.992 325.649 645.506 299.163 653.257Z" fill="#263238"/>
<path d="M439.186 629.134L445.38 736.556" stroke="#263238" stroke-width="1.0791" stroke-miterlimit="10"/>
<path d="M305.397 610.902L306.935 600.445L457.973 612.91L459.549 626.301C374.942 640.475 323.142 619.958 305.397 610.902Z" fill="#263238"/>
<path d="M392.645 348.785C392.645 348.785 365.3 337.508 342.35 334.54C319.4 331.572 269.543 311.986 257.078 306.644C244.614 301.302 223.246 287.058 194.757 276.967C166.266 266.877 138.37 251.724 134.81 241.493C131.249 231.264 126.5 203.369 118.191 202.774C114.035 206.928 110.475 233.637 106.914 238.979C103.353 244.321 97.4165 264.542 97.4165 264.542C97.4165 264.542 154.396 300.395 189.415 324.887C224.434 349.378 263.014 367.185 287.349 377.274C311.684 387.364 328.896 401.609 337.8 419.416C346.703 437.222 392.645 348.785 392.645 348.785Z" fill="#BC6C64"/>
<path d="M212.771 322.075C227.696 322.075 239.794 334.174 239.794 349.098C239.794 351.062 239.573 352.971 239.176 354.815C224.864 347.338 209.727 338.618 195.04 328.739C199.788 324.6 205.978 322.075 212.771 322.075Z" fill="#A35652"/>
<path d="M386.475 349.971C386.475 349.971 331.272 392.706 321.181 433.067C317.092 452.152 321.025 467.322 325.116 476.783C328.828 485.367 329.711 494.903 327.737 504.047L306.935 600.445C306.935 600.445 384.059 628.341 457.973 612.91C439.294 471.053 449.385 384.397 456.506 370.746L428.906 352.643L386.475 349.971Z" fill="#FFC061"/>
<path d="M448.617 420.303C447.928 430.866 447.464 442.981 447.343 456.594C420.119 450.551 360.738 437.029 323.385 426.008C327.369 415.253 334.124 404.516 341.773 394.64C361.128 401.559 400.616 414.04 448.617 420.303Z" fill="white"/>
<path d="M328.696 496.497C328.998 489.767 327.816 483.024 325.116 476.782C322.976 471.833 320.891 465.309 319.962 457.493C343.146 466.958 393.674 484.893 447.617 486.805C447.875 496.726 448.303 507.236 448.93 518.307C421.564 514.125 363.23 504.827 328.696 496.497Z" fill="white"/>
<path d="M314.635 564.762L321.724 531.909C350.617 537.884 409.871 549.347 451.338 552.079C452.235 562.559 453.302 573.45 454.555 584.737C423.091 584.328 361.385 581.252 314.635 564.762Z" fill="white"/>
<path d="M456.508 370.745C456.508 370.745 475.501 376.68 496.275 418.229C517.05 459.778 540.851 507.699 540.851 507.699L510.208 542.816L447.565 443.749C447.565 443.749 425.644 392.113 456.508 370.745Z" fill="#BC6C64"/>
<path d="M368.59 396.862C361.006 394.655 367.09 375.711 372.817 361.61C380.825 354.347 386.473 349.973 386.473 349.973L428.908 352.643C428.908 352.643 428.917 352.649 434.921 356.586C424.128 368.551 389.604 404.3 368.59 396.862Z" fill="white"/>
<path d="M344.605 709.027L346.786 736.557" stroke="#263238" stroke-width="1.0577" stroke-miterlimit="10"/>
<path d="M84.3806 265.381L83.5327 174.303L88.0503 171.447V171.131C88.0503 167.948 90.2524 165.188 93.3568 164.483L102.268 162.458L108.642 158.429L115.195 159.996C115.282 160.014 115.366 160.035 115.45 160.057L115.574 160.086V160.101C117.583 160.701 119.117 162.539 119.117 164.822V257.328C119.117 260.668 116.697 263.516 113.401 264.055L93.794 267.264C93.192 267.363 92.6105 267.321 92.0512 267.211L92.0041 267.226L91.6699 267.145C91.6493 267.139 91.6287 267.136 91.6096 267.13L84.3806 265.381Z" fill="#455A64"/>
<path d="M86.733 265.571L106.34 262.362C109.636 261.822 112.056 258.975 112.056 255.635V163.129C112.056 159.956 109.11 157.604 106.016 158.308L86.2973 162.79C83.1943 163.495 80.9907 166.255 80.9907 169.438V260.691C80.9907 263.741 83.7242 266.063 86.733 265.571Z" fill="#263238"/>
<path d="M103.303 166.114C103.303 167.543 103.914 168.701 104.668 168.701C105.421 168.701 106.032 167.543 106.032 166.114C106.032 164.683 105.421 163.524 104.668 163.524C103.914 163.524 103.303 164.683 103.303 166.114Z" fill="white"/>
<path d="M90.3114 208.076C94.6097 208.076 98.1248 211.593 98.1248 215.89C98.1248 220.186 94.6082 223.703 90.3114 223.703C94.6097 223.703 98.1248 227.22 98.1248 231.516C98.1248 234.003 96.9266 236.202 95.1028 237.635C96.9266 239.069 98.1248 241.268 98.1248 243.754C98.1248 246.227 96.9384 248.416 95.1308 249.85C96.2215 251.112 96.9075 252.734 96.9075 254.524C96.9075 258.479 93.6705 261.714 89.7153 261.714H81.1041C81.0349 261.385 80.9907 261.045 80.9907 260.691V208.076H90.3114Z" fill="#0E1619"/>
<path d="M73.6805 258.975H87.4569C91.4122 258.975 94.6491 255.738 94.6491 251.784C94.6491 247.829 91.4137 244.592 87.4569 244.592H73.6805C69.7252 244.592 66.4883 247.827 66.4883 251.784C66.4883 255.739 69.7237 258.975 73.6805 258.975Z" fill="#BC6C64"/>
<path d="M73.0844 248.828H88.0517C92.3484 248.828 95.865 245.312 95.865 241.015C95.865 236.718 92.3484 233.202 88.0517 233.202H73.0844C68.7876 233.202 65.271 236.718 65.271 241.015C65.271 245.312 68.7876 248.828 73.0844 248.828Z" fill="#BC6C64"/>
<path d="M73.0844 236.59H88.0517C92.3484 236.59 95.865 233.074 95.865 228.777C95.865 224.48 92.3484 220.963 88.0517 220.963H73.0844C68.7876 220.963 65.271 224.48 65.271 228.777C65.271 233.075 68.7876 236.59 73.0844 236.59Z" fill="#BC6C64"/>
<path d="M73.0844 220.964H88.0517C92.3484 220.964 95.865 217.447 95.865 213.15C95.865 208.854 92.3484 205.337 88.0517 205.337H73.0844C68.7876 205.337 65.271 208.854 65.271 213.15C65.271 217.447 68.7876 220.964 73.0844 220.964Z" fill="#BC6C64"/>
<path d="M113.869 159.68C113.869 159.68 115.917 159.964 115.917 168.247V256.627C115.917 259.893 113.551 262.68 110.329 263.21L89.5342 266.631" stroke="#FFC061" stroke-width="0.4647" stroke-miterlimit="10"/>
<path d="M72.0806 220.894C74.7419 220.269 77.4048 220.128 80.0662 220.101C82.7275 220.125 85.3904 220.264 88.0518 220.894C85.3904 221.525 82.7275 221.664 80.0662 221.688C77.4033 221.663 74.7419 221.522 72.0806 220.894Z" fill="#75240E"/>
<path d="M68.2432 234.896C70.2745 235.463 72.3338 235.684 74.3814 235.875C76.4319 236.041 78.4883 236.107 80.5461 236.072C82.604 236.062 84.6589 235.948 86.7153 235.766C88.7673 235.551 90.8295 235.329 92.8962 234.896C91.0327 235.913 88.9792 236.564 86.8993 236.991C84.8164 237.432 82.6879 237.621 80.5623 237.659C78.4368 237.663 76.3009 237.525 74.2077 237.097C72.1234 236.692 70.0405 236.034 68.2432 234.896Z" fill="#75240E"/>
<path d="M68.2432 247.097C69.1175 247.664 70.2053 247.702 71.224 247.804C72.2544 247.905 73.2951 247.935 74.3328 247.97C76.4128 248.013 78.4956 248.044 80.5859 248.032C82.6879 248.041 84.7958 248.133 86.8434 248.119C88.885 248.089 90.9046 247.742 92.9419 247.097C91.1961 248.295 89.0999 249.114 86.9376 249.355C84.787 249.628 82.6835 249.6 80.58 249.62C78.4647 249.601 76.3406 249.501 74.2268 249.202C73.1699 249.058 72.1175 248.858 71.0812 248.566C70.5645 248.416 70.0537 248.232 69.5562 248.022C69.0778 247.795 68.5331 247.568 68.2432 247.097Z" fill="#75240E"/>
<path d="M387.064 316.436C387.064 316.436 387.064 344.036 383.205 354.72C372.819 372.526 366.289 387.067 375.193 391.52C384.096 395.971 428.908 352.643 428.908 352.643C428.908 352.643 416.899 336.203 432.697 282.546C410.212 288.243 387.064 316.436 387.064 316.436Z" fill="#BC6C64"/>
<path opacity="0.55" d="M386.475 333.297C387.063 324.324 387.065 316.436 387.065 316.436C387.065 316.436 390.464 312.301 395.91 306.882L413.476 304.248C413.476 304.248 401.529 328.16 386.475 333.297Z" fill="#600E00"/>
<path d="M379.051 219.986C379.051 219.986 360.058 233.044 355.309 251.74C350.561 270.436 342.549 308.126 347 318.513C351.451 328.899 384.689 324.152 394.186 321.183C403.682 318.215 439.592 274.294 439.592 274.294C439.592 274.294 427.128 239.572 379.051 219.986Z" fill="#BC6C64"/>
<path opacity="0.17" d="M421.308 264.542L418.739 245.217C409.542 236.412 396.705 227.179 379.051 219.987C379.051 219.987 360.058 233.045 355.309 251.741C350.561 270.437 342.549 308.128 347 318.514C348.549 322.126 353.581 323.905 359.883 324.568C402.409 316.757 421.308 264.542 421.308 264.542Z" fill="white"/>
<path d="M446.238 281.552C446.238 281.552 435.276 279.574 429.245 286.591C428.664 284.2 427.521 279.985 425.347 273.331C395.077 253.299 379.051 219.987 379.051 219.987C427.084 238.164 446.238 281.552 446.238 281.552Z" fill="#600E00"/>
<path opacity="0.57" d="M372.82 289.005C372.82 289.005 379.718 294.985 390.624 290.246C401.53 285.506 403.311 273.901 403.311 273.901L427.836 281.388L430.564 279.832L398.414 267.321C398.414 267.321 390.406 292.217 372.82 289.005Z" fill="#C4553B"/>
<path d="M375.935 248.179C375.935 248.179 391.292 245.731 399.082 257.528C397.303 248.848 386.619 238.386 375.935 248.179Z" fill="#600E00"/>
<path d="M357.624 245.171C358.19 243.908 358.813 242.682 359.477 241.492C360.679 242.233 361.917 243.79 362.135 247.065C361.318 245.159 359.169 245.004 357.624 245.171Z" fill="#600E00"/>
<path d="M366.586 258.863L360.576 257.528C360.576 257.528 352.564 248.847 343.215 251.518C336.092 273.998 340.321 279.784 346.776 281.343C353.231 282.902 360.576 265.095 360.576 265.095C360.576 265.095 363.915 263.982 365.696 267.321C364.583 280.675 368.59 289.133 378.161 291.136C387.732 293.14 396.087 284.545 399.974 269.769C431.58 280.675 431.58 280.675 431.58 280.675L435.363 278.894L399.974 265.984C399.974 265.984 394.871 249.305 366.586 258.863Z" fill="#455A64"/>
<path d="M396.412 267.099C396.412 267.099 390.402 254.858 368.59 262.425C368.59 274 368.518 284.361 377.27 287.354C386.023 290.346 394.531 279.292 396.412 267.099Z" fill="#C7C7C7"/>
<path d="M358.352 260.644C358.352 260.644 353.078 254.412 345.699 254.412C340.769 265.54 341.726 276.001 345.699 278.005C349.67 280.008 358.128 266.653 358.352 260.644Z" fill="#C7C7C7"/>
<path d="M360.046 266.31C358.833 269.753 357.529 273.127 356.257 276.499C355.615 278.182 355.009 279.876 354.432 281.569C353.877 283.266 353.322 284.969 352.979 286.688L352.772 286.108C353.232 286.527 353.714 286.942 354.279 287.227C354.829 287.538 355.426 287.789 356.059 287.941C357.317 288.297 358.685 288.331 360.045 288.143C358.776 288.695 357.342 288.877 355.913 288.749C354.476 288.617 353.066 288.003 351.909 287.071L351.654 286.867L351.7 286.491C351.931 284.626 352.406 282.839 352.964 281.089C353.506 279.333 354.188 277.633 354.902 275.953C355.623 274.277 356.41 272.631 357.264 271.02C358.119 269.412 359.039 267.834 360.046 266.31Z" fill="#600E00"/>
<path d="M354.567 294.031V301.376C354.567 301.376 367.921 304.27 379.718 299.595C369.702 298.704 354.567 294.031 354.567 294.031Z" fill="white"/>
<path d="M424.923 283.469C417.459 289.746 415.385 299.562 420.29 305.396C425.194 311.229 435.222 310.87 442.686 304.594C450.151 298.317 452.225 288.5 447.32 282.667C442.415 276.833 432.388 277.192 424.923 283.469Z" fill="#BC6C64"/>
<path d="M426.987 293.097C434.452 286.821 444.479 286.462 449.383 292.295C449.517 292.454 449.626 292.628 449.75 292.794C449.049 296.976 446.629 301.279 442.686 304.594C435.221 310.87 425.194 311.229 420.289 305.396C420.155 305.237 420.046 305.063 419.923 304.897C420.624 300.715 423.045 296.412 426.987 293.097Z" fill="#A35652"/>
<path d="M334.981 703.721L363.47 708.469" stroke="#263238" stroke-width="1.0791" stroke-miterlimit="10"/>
<path opacity="0.41" d="M377.27 516.756C356.444 514.394 339.372 509.549 327.471 505.279L327.737 504.047C329.196 497.286 329.084 490.313 327.431 483.666C335.037 488.597 349.295 495.384 373.942 499.544C416.147 506.666 419.115 521.505 377.27 516.756Z" fill="#CE8E3A"/>
<path opacity="0.41" d="M421.308 536.937C421.308 536.937 393.45 558.733 339.509 559.409C285.569 560.084 373.051 580.265 421.308 536.937Z" fill="#CE8E3A"/>
<path d="M425.395 309.142C425.395 311.465 427.277 313.348 429.6 313.348C431.923 313.348 433.806 311.465 433.806 309.142C433.806 306.819 431.923 304.937 429.6 304.937C427.277 304.937 425.395 306.819 425.395 309.142Z" fill="#F9F4D4"/>
<path opacity="0.51" d="M382.455 266.732C382.455 264.37 382.927 262.119 383.769 260.058C393.367 260.915 396.412 267.099 396.412 267.099C395.575 272.522 393.425 277.715 390.528 281.552C385.674 278.404 382.455 272.948 382.455 266.732Z" fill="#F9F4D4"/>
<path opacity="0.51" d="M358.352 260.644C358.254 263.31 356.533 267.421 354.303 270.997C351.025 267.791 348.984 263.323 348.984 258.376C348.984 257.192 349.105 256.037 349.327 254.918C354.743 256.394 358.352 260.644 358.352 260.644Z" fill="#F9F4D4"/>
<path d="M601.504 370.508L610.855 358.722L615.615 339.431C616.18 337.139 618.31 335.582 620.665 335.739C623.397 335.922 625.444 338.321 625.189 341.049L623.236 362.044L601.504 370.508Z" fill="#A35652"/>
<path d="M601.504 370.508L636.024 345.085C637.875 343.722 640.442 343.917 642.067 345.542C643.729 347.204 643.889 349.846 642.438 351.696L629.577 368.104L601.504 370.508Z" fill="#A35652"/>
<path d="M553.173 386.806C553.173 386.806 567.064 372.008 574.01 366.875C580.957 361.741 590.621 352.984 594.848 350.265C599.076 347.546 605.115 351.472 601.189 358.72C597.264 365.968 592.433 376.236 592.433 376.236L553.173 386.806Z" fill="#A35652"/>
<path d="M637.73 359.627C635.315 356.003 627.463 357.815 600.284 371.103C576.126 374.123 556.193 383.182 553.174 386.806C550.155 390.43 523.58 459.888 523.58 459.888L523.514 459.791L503.954 509.616C498.482 523.553 503.488 539.738 516.355 547.392C518.94 548.931 521.372 549.817 523.58 549.88C556.798 549.88 557.403 516.056 587.602 397.073C592.434 395.261 615.989 381.973 623.841 377.746C631.691 373.52 640.146 363.251 637.73 359.627Z" fill="#BC6C64"/>
<path d="M623.988 353.95C620.403 357.315 616.537 360.29 612.6 363.17C608.636 366.011 604.602 368.755 600.283 371.104C603.866 367.736 607.731 364.762 611.67 361.884C615.636 359.046 619.67 356.302 623.988 353.95Z" fill="#75240E"/>
<path d="M555.939 520.305C551.103 514.752 544.001 511.227 536.059 511.227C521.494 511.227 509.686 523.035 509.686 537.601C509.686 539.386 509.868 541.131 510.207 542.816C515.1 547.097 519.688 549.77 523.577 549.882C539.653 549.882 548.09 541.961 555.939 520.305Z" fill="#7A3026"/>
<path d="M520.649 467.086C518.448 474.404 515.799 481.544 513.04 488.642C510.236 495.723 507.322 502.759 503.954 509.618C506.151 502.3 508.801 495.159 511.562 488.062C514.368 480.982 517.284 473.946 520.649 467.086Z" fill="#75240E"/>
<path d="M632.573 162.787H517.985V326.059H632.573V162.787Z" fill="#C7C7C7"/>
<path d="M637.597 177.183H524.001V281.979H637.597V177.183Z" fill="#FFC061"/>
<path d="M637.543 281.979H523.948V320.409H637.543V281.979Z" fill="white"/>
<path d="M637.644 158.225H524.048V177.124H637.644V158.225Z" fill="white"/>
<path d="M550.756 293.723L549.555 291.685C549.775 291.229 549.909 290.723 549.911 290.181C549.912 288.259 548.355 286.7 546.432 286.698C544.51 286.697 542.951 288.254 542.95 290.177C542.948 292.099 544.506 293.658 546.428 293.659C547.23 293.659 547.96 293.378 548.549 292.923L550.756 293.723Z" stroke="#263238" stroke-width="0.5375" stroke-miterlimit="10"/>
<path d="M534.144 288.398C535.356 286.539 537.88 287.48 537.899 289.379C537.926 291.893 534.202 293.989 534.202 293.989C534.202 293.989 530.435 291.971 530.41 289.457C530.389 287.559 532.895 286.566 534.144 288.398Z" stroke="#263238" stroke-width="0.5375" stroke-miterlimit="10"/>
<path d="M563.77 286.622L555.423 289.577L559.763 290.621L560.801 294.962L563.77 286.622Z" stroke="#263238" stroke-width="0.5375" stroke-miterlimit="10"/>
<path d="M559.763 290.621L563.77 286.622" stroke="#263238" stroke-width="0.5375" stroke-miterlimit="10"/>
<path d="M631.365 298.432H530.389V300.984H631.365V298.432Z" fill="#A6A6A6"/>
<path d="M631.36 305.091H530.383V307.643H631.36V305.091Z" fill="#A6A6A6"/>
<path d="M631.355 311.752H530.379V314.304H631.355V311.752Z" fill="#A6A6A6"/>
<path d="M530.408 167.636C530.405 171.342 533.408 174.349 537.115 174.352C540.821 174.355 543.828 171.352 543.831 167.646C543.834 163.939 540.831 160.932 537.125 160.929C533.417 160.928 530.411 163.929 530.408 167.636Z" fill="#FFC061"/>
<path d="M539.91 165.378C539.908 166.836 538.725 168.017 537.268 168.017C535.809 168.015 534.628 166.832 534.628 165.375C534.63 163.916 535.813 162.734 537.272 162.735C538.729 162.737 539.911 163.919 539.91 165.378Z" fill="white"/>
<path d="M537.268 168.017C535.261 168.016 533.633 169.641 533.632 171.647L533.63 173.366C534.646 173.988 535.837 174.351 537.115 174.353C538.517 174.354 539.82 173.923 540.898 173.187L540.899 171.651C540.899 169.647 539.274 168.019 537.268 168.017Z" fill="white"/>
<path d="M598.138 169.632L561.041 169.604C559.486 169.602 558.216 168.33 558.217 166.776C558.219 165.222 559.491 163.951 561.045 163.953L598.142 163.981C599.697 163.982 600.967 165.254 600.966 166.808C600.964 168.363 599.691 169.633 598.138 169.632Z" fill="#A6A6A6"/>
<path d="M637.65 158.266H523.935V320.366H637.65V158.266Z" stroke="#EBEBEB" stroke-miterlimit="10"/>
<mask id="mask0_429_1165" style="mask-type:luminance" maskUnits="userSpaceOnUse" x="530" y="180" width="99" height="102">
<path d="M628.116 180.376H530.41V281.941H628.116V180.376Z" fill="white"/>
</mask>
<g mask="url(#mask0_429_1165)">
<path d="M599.023 193.592C599.023 193.592 587.831 184.724 583.189 183.798C578.546 182.874 560.686 187.701 555.558 204.259C553.188 216.378 556.476 223.962 556.476 223.962L599.023 193.592Z" fill="#DB973E"/>
<path d="M555.162 218.855C555.689 222.138 556.478 223.962 556.478 223.962L599.025 193.591C599.025 193.591 594.885 190.313 590.598 187.534C583.581 191.048 566.813 200.831 555.162 218.855Z" fill="white"/>
<path opacity="0.43" d="M571.161 186.641C564.981 189.656 558.365 195.198 555.558 204.259C555.209 206.044 554.985 207.726 554.854 209.304C567.632 201.87 570.515 191.125 571.161 186.641Z" fill="#CE8E3A"/>
<path d="M620.129 187.723C623.91 192.801 608.992 210.309 586.807 226.829C564.623 243.35 543.573 252.625 539.792 247.546C536.01 242.468 550.929 224.96 573.113 208.44C595.298 191.919 616.347 182.644 620.129 187.723Z" fill="#DB973E"/>
<path opacity="0.81" d="M549.635 247.838C558.373 245.207 571.594 237.978 585.396 227.868L580.744 208.326C580.744 208.326 556.297 228.284 549.635 247.838Z" fill="#846017"/>
<path d="M571.126 226.354C571.126 226.354 553.959 234.117 557.876 252.909C559.909 262.662 564.502 275.584 564.502 275.584L585.848 241.126L575.197 222.736L571.126 226.354Z" fill="#600E00"/>
<path d="M598.791 198.939C598.791 198.939 576.197 202.206 571.126 226.354C583.67 229.007 583.67 229.007 583.67 229.007L598.791 198.939Z" fill="#600E00"/>
<path d="M584.25 236.967C584.253 236.96 584.254 236.952 584.256 236.945C584.266 236.948 584.276 236.951 584.287 236.954C584.285 236.961 584.282 236.968 584.279 236.976C584.192 237.33 584.257 237.685 584.428 237.978C584.394 237.996 584.362 238.015 584.325 238.03C583.955 238.171 583.559 238.089 583.274 237.856C583.718 237.751 584.098 237.431 584.25 236.967Z" fill="#381612"/>
<path d="M611.289 241.248L592.549 244.629L585.924 264.395L567.703 262.403C567.703 262.403 576.061 244.04 576.65 231.68C591.011 232.622 611.289 241.248 611.289 241.248Z" fill="#BC6C64"/>
<path opacity="0.24" d="M600.638 237.248L588.494 237.523C588.494 237.523 589.188 243.235 592.549 244.63L611.289 241.249C611.289 241.249 606.842 239.356 600.638 237.248Z" fill="#600E00"/>
<path d="M611.562 225.749C612.237 225.435 612.973 224.979 613.549 224.517C614.061 224.106 614.13 223.354 613.714 222.846C612.629 221.52 610.512 218.97 609.42 217.884C607.911 216.384 608.171 214.209 606.838 210.055C605.021 204.177 598.79 198.939 598.79 198.939C590.619 202.403 583.747 210.352 579.144 219.993C575.789 219.075 571.734 220.532 571.149 224.925C570.565 229.317 574.691 234.441 583.08 234.12C588.088 239.338 600.898 240.581 606.062 241.249C608.748 241.597 610.349 241.56 611.36 241.206C613.004 241.049 613.524 240.451 613.986 239.655C614.79 238.271 612.172 228.069 611.562 225.749Z" fill="#BC6C64"/>
<path opacity="0.28" d="M583.08 234.119C580.95 235.369 578.13 235.03 576.384 234.628C576.513 233.618 576.605 232.632 576.65 231.681C578.799 231.822 581.012 232.186 583.221 232.697C583.751 233.2 583.809 233.69 583.08 234.119Z" fill="#3A130C"/>
<path d="M596.146 217.852C596.146 217.852 604.047 218.951 606.857 217.225C606.154 218.745 605.833 219.358 605.833 219.358C605.833 219.358 601.844 219.653 596.146 217.852Z" fill="#600E00"/>
<path d="M604.671 218.226L604.119 215.988" stroke="#600E00" stroke-width="0.4606" stroke-miterlimit="10"/>
<path d="M604.244 212.536C604.244 212.536 596.081 209.726 592.95 214.438C594.358 211.47 596.453 208.578 603.235 209.507C604.244 212.536 604.244 212.536 604.244 212.536Z" fill="#600E00"/>
<path d="M582.688 223.272C582.279 219.996 581.749 212.242 581.58 210.205C580.616 211.808 579.968 218.265 579.144 219.992C579.144 219.992 581.616 220.816 582.688 223.272Z" fill="#600E00"/>
<path d="M573.999 245.231C573.999 245.231 567.908 259.339 554.95 264.265C545.974 267.679 537.741 279.012 536.728 304.773C614.476 304.773 614.476 304.773 614.476 304.773C614.476 304.773 614.881 291.016 602.936 276.052C590.989 261.087 573.999 245.231 573.999 245.231Z" fill="#BC6C64"/>
<path d="M553.959 264.676C554.289 264.529 554.619 264.39 554.95 264.264C556.664 263.613 558.255 262.801 559.728 261.882C564.093 265.241 581.686 278.263 595.24 280.727C607.577 282.764 587.677 258.832 587.664 258.817C592.627 264 598.18 270.096 602.934 276.052C614.88 291.014 614.475 304.773 614.475 304.773C614.475 304.773 614.475 304.773 563.826 304.773C564.577 296.477 565.329 274.647 553.959 264.676Z" fill="#FFC061"/>
<path d="M587.926 259.091C592.293 263.729 604.271 279.757 600.304 281.795C590.335 287.514 565.491 268.608 558.206 262.761C558.726 262.48 559.236 262.19 559.728 261.884C564.093 265.243 581.686 278.264 595.24 280.728C607.577 282.765 587.677 258.834 587.664 258.819C587.751 258.907 587.839 259 587.926 259.091Z" fill="white"/>
<path d="M587.664 258.817C587.646 259.687 587.424 260.484 587.153 261.261C586.855 262.028 586.51 262.779 585.956 263.451C585.972 262.58 586.195 261.785 586.467 261.009C586.766 260.239 587.112 259.49 587.664 258.817Z" fill="#75240E"/>
<path d="M575.197 222.736C573.805 222.736 572.505 223.147 571.388 223.849C571.286 224.187 571.201 224.541 571.149 224.925C570.591 229.113 574.326 233.952 581.943 234.119C582.416 233.077 582.69 231.914 582.69 230.682C582.688 226.292 579.335 222.736 575.197 222.736Z" fill="#A35652"/>
<path d="M579.961 234.278C579.961 235.312 579.122 236.152 578.087 236.152C577.052 236.152 576.213 235.312 576.213 234.278C576.213 233.243 577.052 232.404 578.087 232.404C579.122 232.404 579.961 233.243 579.961 234.278Z" fill="#F9F4D4"/>
<path d="M611.289 230.225C611.289 230.225 611.289 230.225 610.849 228.207L603.446 229.672C603.446 229.672 607.253 230.593 611.289 230.225Z" fill="#FFF2DD"/>
<path opacity="0.18" d="M605.171 223.682C605.171 224.654 603.281 225.443 600.95 225.443C598.618 225.443 596.728 224.655 596.728 223.682C596.728 222.709 598.618 221.923 600.95 221.923C603.281 221.923 605.171 222.711 605.171 223.682Z" fill="#AF0808"/>
</g>
<path d="M237.307 226.879C237.135 226.879 237 226.743 237 226.57V214.427C237 213.846 237.479 213.365 238.074 213.365H242.297C245.157 213.365 246.574 215.217 246.574 217.073C246.574 218.928 246.133 219.138 245.23 219.852C246.63 220.528 247.342 221.821 247.342 223.133C247.342 225.008 245.921 226.879 243.042 226.879H237.307ZM239.13 219.215H242.22C243.717 219.215 244.466 218.249 244.466 217.286C244.466 216.323 243.717 215.393 242.22 215.393H239.13V219.215ZM239.13 224.853H242.969C244.485 224.853 245.233 223.868 245.233 222.902C245.233 221.936 244.485 220.972 242.969 220.972H239.13V224.853Z" fill="#EBEBEB"/>
<path d="M258.085 214.486C258.085 213.905 258.564 213.424 259.16 213.424C259.755 213.424 260.215 213.905 260.215 214.486V226.629C260.215 226.802 260.062 226.938 259.89 226.938H258.392C258.22 226.938 258.085 226.802 258.085 226.629V214.486Z" fill="#EBEBEB"/>
<path d="M262.326 214.486C262.326 213.905 262.728 213.423 263.419 213.423C264.109 213.423 264.416 213.887 264.704 214.291L271.382 223.229V214.482C271.382 213.902 271.842 213.42 272.438 213.42C273.033 213.42 273.512 213.902 273.512 214.482V226.625C273.512 226.798 273.358 226.934 273.186 226.934H272.094C271.747 226.934 271.557 226.761 271.403 226.567L264.456 217.261V226.625C264.456 226.798 264.302 226.934 264.131 226.934H262.633C262.461 226.934 262.326 226.798 262.326 226.625V214.482V214.486Z" fill="#EBEBEB"/>
<path d="M279.155 220.315L277.602 221.859V226.626C277.602 226.798 277.449 226.934 277.277 226.934H275.78C275.608 226.934 275.473 226.798 275.473 226.626V214.483C275.473 213.902 275.951 213.421 276.547 213.421C277.142 213.421 277.602 213.902 277.602 214.483V219.172L283.166 213.652C283.359 213.479 283.608 213.38 283.838 213.38C284.068 213.38 284.317 213.476 284.492 213.652C284.857 214.057 284.894 214.637 284.51 215.004L280.634 218.845L285.24 225.372C285.587 225.835 285.412 226.434 284.952 226.78C284.78 226.916 284.587 226.971 284.375 226.971C284.068 226.971 283.761 226.817 283.568 226.545L279.155 220.309V220.315Z" fill="#EBEBEB"/>
<path d="M256.569 225.774C256.569 225.774 256.496 226.243 256.358 226.613C256.223 226.978 256.029 227.305 255.781 227.586C255.535 227.867 255.247 228.086 254.928 228.24C254.596 228.401 254.243 228.481 253.881 228.481H253.455H253.181H251.933H251.543H251.153C250.788 228.481 250.438 228.401 250.107 228.243C249.794 228.092 249.499 227.867 249.254 227.589C249.005 227.305 248.812 226.981 248.677 226.616C248.535 226.24 248.465 225.838 248.465 225.425V214.192C248.465 213.782 248.538 213.235 248.674 212.871C248.809 212.507 249.002 212.179 249.25 211.895C249.496 211.614 249.784 211.392 250.107 211.241C250.435 211.083 250.797 211 251.153 211H253.881C254.243 211 254.593 211.08 254.928 211.241C255.247 211.392 255.535 211.614 255.781 211.895C256.026 212.176 256.223 212.501 256.358 212.868C256.496 213.241 256.566 213.794 256.566 214.192V222.769C256.566 223.205 256.259 223.557 255.876 223.557H254.446C254.062 223.557 253.752 223.205 253.752 222.769V214.476C253.752 214.041 253.439 213.689 253.059 213.689H251.972C251.589 213.689 251.282 214.044 251.282 214.476V224.986C251.282 225.422 251.592 225.774 251.975 225.774H256.569Z" fill="#EBEBEB"/>
</g>
<defs>
<clipPath id="clip0_429_1165">
<rect width="736" height="736" fill="white"/>
</clipPath>
</defs>
</svg>
