<svg width="749" height="768" viewBox="0 0 749 768" fill="none" xmlns="http://www.w3.org/2000/svg">
<g clip-path="url(#clip0_429_1403)">
<path d="M668.103 285.169C666.478 246.783 655.599 209.662 631.422 175.499C540.489 47.0137 312.568 50.2685 186.448 122.61C148.579 144.332 116.002 177.637 102.953 218.829C92.4129 252.1 95.1332 287.731 95.3235 322.534C95.5362 361.772 87.1714 390.875 71.1263 426.089C58.2839 454.273 55.5846 487.774 60.7826 517.898C72.0596 583.261 120.575 636.157 178.792 666.157C271.32 713.836 418.132 714.419 531.011 686.954C588.059 673.073 642.543 644.977 670.247 605.45C692.29 574 695.704 538.031 688.666 504.908C683.007 478.275 669.625 454.476 658.438 429.363C649.47 409.232 653.264 391.732 658.631 369.847C665.611 341.384 669.279 312.944 668.103 285.169Z" fill="#FFC737"/>
<path opacity="0.35" d="M95.3221 322.531C95.2382 307.068 94.6599 291.442 94.961 275.933C129.165 287.261 181.37 320.565 173.832 418.156C165.458 526.588 269.303 645.658 350.475 704.838C286.945 702.447 225.844 690.4 178.789 666.154C120.572 636.154 72.0566 583.258 60.7797 517.895C55.5816 487.771 58.281 454.27 71.1234 426.086C87.1699 390.874 95.5363 361.769 95.3221 322.531Z" fill="#CECECE"/>
<path opacity="0.35" d="M399.788 72.6924C491.91 74.6907 581.944 105.589 631.42 175.497C655.6 209.661 666.477 246.781 668.102 285.167C669.028 307.037 666.939 329.318 662.607 351.698C497.396 372.068 423.363 160.976 399.788 72.6924Z" fill="#FFC737"/>
<path d="M480.349 602.494C480.349 602.494 481.223 450.043 513.273 439.373C545.324 428.702 525.596 478.745 525.596 478.745C525.596 478.745 563.503 401.996 584.331 417.783C605.158 433.568 578.222 462.837 578.222 462.837C578.222 462.837 621.444 412.788 642.088 433.955C662.732 455.121 601.658 487.96 601.658 487.96C601.658 487.96 652.324 467.475 646.038 497.673C639.752 527.873 555.371 538.833 555.371 538.833C555.371 538.833 613.639 534.156 598.427 564.333C580.255 600.381 480.349 602.494 480.349 602.494Z" fill="#53707C"/>
<path d="M480.349 602.495C484.046 591.047 488.952 580.031 494.431 569.346C497.153 563.989 500.133 558.771 503.205 553.61C506.325 548.478 509.641 543.469 513.074 538.545C516.561 533.659 520.243 528.917 524.083 524.311C527.961 519.738 532.028 515.328 536.321 511.163C540.595 506.974 545.166 503.111 549.872 499.464C554.646 495.901 559.627 492.642 564.828 489.84C560.083 493.4 555.457 497.053 551.074 500.999C546.707 504.959 542.492 509.072 538.471 513.381C530.455 522.019 523.057 531.241 516.232 540.901C509.36 550.53 503.045 560.583 497.081 570.868C491.152 581.175 485.538 591.694 480.349 602.495Z" fill="#56514D"/>
<path d="M453.193 640.137C453.193 640.137 512.819 493.812 547.772 496.538C582.725 499.265 544.447 539.416 544.447 539.416C544.447 539.416 610.513 480.94 624.467 504.573C638.419 528.204 601.216 545.444 601.216 545.444C601.216 545.444 662.101 514.813 673.802 543.547C685.501 572.283 614.078 579.117 614.078 579.117C614.078 579.117 670.725 579.948 653.032 606.456C635.339 632.963 549.926 609.3 549.926 609.3C549.926 609.3 607.792 628.422 581.519 651.29C550.133 678.608 453.193 640.137 453.193 640.137Z" fill="#FFC061"/>
<path d="M453.193 640.137C461.294 630.758 470.254 622.158 479.689 614.165C484.39 610.142 489.268 606.339 494.22 602.637C499.202 598.977 504.318 595.507 509.518 592.171C514.747 588.883 520.111 585.815 525.569 582.935C531.047 580.095 536.649 577.499 542.367 575.204C548.079 572.89 553.944 570.993 559.862 569.358C565.823 567.87 571.84 566.652 577.916 565.996C571.968 567.429 566.079 568.967 560.333 570.991C554.588 572.997 548.926 575.212 543.378 577.71C532.299 582.728 521.601 588.597 511.293 595.128C500.96 601.621 491.004 608.754 481.325 616.28C476.496 620.057 471.722 623.917 467.034 627.895C462.302 631.824 457.727 635.944 453.193 640.137Z" fill="#BF7B28"/>
<path d="M301.614 615.535C301.614 615.535 300.704 456.952 267.365 445.853C234.025 434.752 254.546 486.809 254.546 486.809C254.546 486.809 215.115 406.974 193.449 423.394C171.783 439.815 199.804 470.26 199.804 470.26C199.804 470.26 154.844 418.199 133.369 440.216C111.895 462.235 175.425 496.392 175.425 496.392C175.425 496.392 122.722 475.083 129.26 506.497C135.799 537.912 223.572 549.312 223.572 549.312C223.572 549.312 162.962 544.446 178.785 575.837C197.69 613.337 301.614 615.535 301.614 615.535Z" fill="#53707C"/>
<path d="M301.614 615.535C296.216 604.299 290.376 593.358 284.205 582.637C278.002 571.939 271.432 561.482 264.285 551.465C257.184 541.415 249.489 531.823 241.151 522.838C236.969 518.357 232.584 514.078 228.042 509.958C223.484 505.852 218.672 502.054 213.735 498.351C219.146 501.264 224.326 504.656 229.292 508.362C234.187 512.155 238.94 516.174 243.388 520.53C247.853 524.863 252.085 529.452 256.118 534.207C260.111 538.998 263.942 543.931 267.57 549.012C271.143 554.135 274.591 559.345 277.836 564.684C281.033 570.053 284.132 575.481 286.963 581.053C292.664 592.168 297.768 603.628 301.614 615.535Z" fill="#56514D"/>
<path d="M328.769 653.178C328.769 653.178 269.143 506.852 234.19 509.579C199.237 512.305 237.515 552.456 237.515 552.456C237.515 552.456 171.449 493.981 157.495 517.613C143.543 541.245 180.746 558.485 180.746 558.485C180.746 558.485 119.861 527.854 108.16 556.588C96.4591 585.323 167.884 592.157 167.884 592.157C167.884 592.157 111.237 592.988 128.93 619.496C146.623 646.003 232.036 622.341 232.036 622.341C232.036 622.341 174.169 641.463 200.443 664.331C231.83 691.647 328.769 653.178 328.769 653.178Z" fill="#FFC061"/>
<path d="M328.769 653.178C324.234 648.984 319.661 644.865 314.927 640.937C310.24 636.959 305.466 633.099 300.636 629.322C290.959 621.794 281.002 614.663 270.669 608.17C260.361 601.639 249.663 595.77 238.583 590.752C233.038 588.254 227.375 586.039 221.629 584.033C215.884 582.009 209.994 580.47 204.045 579.038C210.121 579.692 216.139 580.912 222.099 582.399C228.018 584.033 233.883 585.932 239.594 588.245C245.311 590.54 250.915 593.136 256.393 595.976C261.85 598.856 267.215 601.923 272.444 605.212C277.644 608.548 282.759 612.018 287.742 615.678C292.694 619.38 297.572 623.181 302.272 627.206C311.708 635.197 320.666 643.799 328.769 653.178Z" fill="#BF7B28"/>
<path d="M203.897 78.7106C213.317 63.8682 232.967 71.3624 233.132 86.5165C233.349 106.581 204.381 123.33 204.381 123.33C204.381 123.33 175.056 107.245 174.839 87.1816C174.676 72.0275 194.16 64.0863 203.897 78.7106Z" fill="#FFC061"/>
<path d="M205.78 76.1822C215.216 73.0042 226.058 80.0207 226.18 91.2596C226.325 104.697 213.39 116.636 204.823 123.066C208.404 120.898 233.334 105.14 233.132 86.5164C232.979 72.3115 215.701 64.8373 205.78 76.1822Z" fill="#E0A24F"/>
<path d="M261.364 187.777C266.458 179.75 277.087 183.803 277.176 191.999C277.295 202.851 261.626 211.911 261.626 211.911C261.626 211.911 245.765 203.211 245.648 192.359C245.558 184.161 256.097 179.867 261.364 187.777Z" fill="#455A64"/>
<path d="M262.381 186.409C267.484 184.69 273.349 188.485 273.415 194.563C273.494 201.83 266.497 208.289 261.864 211.767C263.801 210.595 277.286 202.071 277.176 191.998C277.092 184.315 267.746 180.274 262.381 186.409Z" fill="#263238"/>
<path d="M262.213 114.102C269.459 102.684 284.575 108.449 284.701 120.106C284.869 135.539 262.584 148.423 262.584 148.423C262.584 148.423 240.027 136.051 239.86 120.617C239.734 108.961 254.723 102.853 262.213 114.102Z" fill="#B2B2B2"/>
<path d="M263.661 112.157C270.921 109.713 279.26 115.109 279.354 123.755C279.467 134.091 269.515 143.276 262.926 148.221C265.682 146.552 284.858 134.432 284.702 120.106C284.584 109.179 271.294 103.429 263.661 112.157Z" fill="#919191"/>
<path d="M224.752 150.455C230.052 142.106 241.107 146.322 241.2 154.847C241.323 166.135 225.025 175.558 225.025 175.558C225.025 175.558 208.527 166.51 208.404 155.222C208.312 146.695 219.272 142.229 224.752 150.455Z" fill="white"/>
<path d="M522.192 203.538C522.192 213.751 520.528 222.032 518.474 222.032C516.421 222.032 514.756 213.753 514.756 203.538C514.756 193.325 516.422 185.045 518.474 185.045C520.527 185.045 522.192 193.325 522.192 203.538Z" fill="white"/>
<path d="M518.473 199.725C528.435 199.725 536.509 201.431 536.509 203.537C536.509 205.643 528.435 207.349 518.473 207.349C508.513 207.349 500.437 205.643 500.437 203.537C500.439 201.433 508.513 199.725 518.473 199.725Z" fill="white"/>
<path d="M113.668 475.923C113.668 481.322 109.399 485.698 104.133 485.698C98.8679 485.698 94.6001 481.322 94.6001 475.923C94.6001 470.524 98.8679 466.146 104.133 466.146C109.399 466.146 113.668 470.524 113.668 475.923Z" fill="white"/>
<path d="M585.721 382.663L576.378 389.124L567.034 395.584L566.249 384.058L565.465 372.53L575.593 377.598L585.721 382.663Z" fill="white"/>
<path d="M190.859 242.407C188.721 245.477 184.521 246.196 181.525 244.004L164.322 231.41C161.326 229.217 160.625 224.912 162.764 221.84C164.902 218.769 169.102 218.05 172.098 220.242L189.301 232.836C192.297 235.029 192.998 239.335 190.859 242.407Z" fill="#A05955"/>
<path d="M266.974 347.646L261.278 361.387C261.278 361.387 249.017 322.648 248.398 309.26C238.32 313.028 221.091 318.493 204.896 319.039C205.091 320.125 205.278 321.234 205.452 322.396C209.29 348.148 221.015 433.654 229.982 454.762C238.948 475.87 263.034 498.045 286.928 479.802C302.377 437.6 310.823 381.777 310.823 381.777C310.823 381.777 294.887 343.711 266.974 347.646Z" fill="#BC6C64"/>
<path d="M320.419 254.774C320.419 254.774 291.983 287.342 278.028 322.397C265.816 350.297 265.816 350.297 265.816 350.297C265.816 350.297 285.703 356.021 300.009 373.91C310.826 381.78 310.826 381.78 310.826 381.78L320.419 254.774Z" fill="#FF8B89"/>
<path d="M312.449 360.263C301.097 346.996 282.896 339.078 272.353 335.356C265.814 350.297 265.813 350.297 265.813 350.297C265.813 350.297 285.7 356.022 300.006 373.91C310.823 381.781 310.823 381.781 310.823 381.781L312.449 360.263Z" fill="white"/>
<path d="M488.943 575.688L498.828 694.567H302.101C302.101 694.567 294.25 619.155 296.867 558.515C343.445 512.365 452.829 500.021 452.829 500.021L488.943 575.688Z" fill="#263238"/>
<path d="M340.307 586.42C340.307 586.42 339.26 630.961 358.624 645.988" stroke="#040C08" stroke-width="1.0578" stroke-miterlimit="10"/>
<path d="M357.055 586.42C357.055 586.42 356.532 657.283 364.381 694.567" stroke="#040C08" stroke-width="1.0578" stroke-miterlimit="10"/>
<path d="M381.168 586.42C381.168 586.42 403.527 644.286 462.556 640.658" stroke="#040C08" stroke-width="1.0578" stroke-miterlimit="10"/>
<path d="M459.635 552.611L464.344 694.567" stroke="#040C08" stroke-width="1.0578" stroke-miterlimit="10"/>
<path d="M488.943 575.688L452.831 500.021C452.831 500.021 343.447 512.365 296.868 558.515C296.384 569.722 296.258 581.433 296.375 593.08C314.709 597.872 360.839 606.956 448.121 607.351C461.991 607.351 470.626 602.522 470.626 602.522C470.626 602.522 481.103 602.271 491.084 601.431L488.943 575.688Z" fill="#A5A39A"/>
<path d="M437.827 228.48C437.827 228.48 520.344 273.2 529.242 290.015C500.981 472.115 497.317 482.849 497.317 482.849L499.41 589.105C499.41 589.105 362.811 605.204 289.015 585.348C276.977 354.055 316.754 262.289 320.418 254.776C324.082 247.264 384.792 226.692 384.792 226.692L437.827 228.48Z" fill="#FF8B89"/>
<path d="M307.782 293.186C305.991 300.202 304.136 308.221 302.303 317.327C370.366 327.196 457.735 333.111 521.992 336.421C523.139 329.137 524.339 321.485 525.592 313.461C408.244 310.017 339.366 299.454 307.782 293.186Z" fill="#F44DFE"/>
<path d="M295.785 356.006C294.733 363.563 293.734 371.581 292.808 380.082C362.977 389.573 450.354 395.159 512.13 398.196C513.287 391.073 514.53 383.364 515.869 374.999C401.648 372.139 331.485 362.544 295.785 356.006Z" fill="#F44DFE"/>
<path d="M289.069 424.2C288.593 431.816 288.181 439.721 287.841 447.918C358.69 456.665 443.101 461.768 500.946 464.494C501.996 458.685 503.331 451.073 505.03 441.079C398.497 438.806 328.947 430.691 289.069 424.2Z" fill="#F44DFE"/>
<path d="M497.891 511.992C398.957 511.927 330.35 506.374 286.762 500.918C286.758 508.466 286.807 516.189 286.927 524.134C361.176 531.213 445.676 534.482 498.361 535.933L497.891 511.992Z" fill="#F44DFE"/>
<path opacity="0.54" d="M498.214 528.353L497.318 482.847C497.318 482.847 498.072 480.64 501.529 461.256L325.619 442.958L316.757 464.423C316.757 464.423 344.092 477.891 374.632 485.869C401.337 492.847 450.711 533.941 498.214 528.353Z" fill="#A06B2B"/>
<path d="M305.973 401.747C305.973 401.747 296.17 404.313 295.821 411.56C295.472 418.808 300.898 422.744 300.898 422.744L305.973 401.747Z" fill="#B26A59"/>
<path d="M457.018 396.985C457.018 396.985 481.092 417.377 539.186 401.278C525.055 379.813 472.195 379.277 457.018 396.985Z" fill="#A36923"/>
<path d="M535.174 391.44C535.174 391.44 524.01 464.423 512.844 486.605C501.679 508.786 476.556 502.346 459.808 499.842C443.061 497.338 391.771 474.083 375.721 472.294C359.672 470.504 321.989 467.285 316.755 464.423C311.521 461.562 309.778 453.69 309.778 453.69C309.778 453.69 301.404 449.397 302.451 434.014C297.566 426.143 299.66 421.134 301.404 418.629C295.472 408.969 302.102 400.741 309.778 401.277C317.454 401.813 339.784 406.108 339.784 406.108C339.784 406.108 339.784 378.559 354.439 375.698C363.162 373.908 361.417 382.853 360.72 388.577C360.022 394.302 363.162 412.906 373.979 418.987C384.796 425.07 401.195 427.931 425.269 429.363C449.343 430.794 461.557 433.298 461.557 433.298C461.557 433.298 467.14 395.733 471.676 384.284C503.772 383.212 535.174 391.44 535.174 391.44Z" fill="#BC6C64"/>
<path d="M461.554 433.298C466.917 433.525 472.19 434.608 477.341 436.103C482.455 437.677 487.547 439.72 491.909 442.958C489.417 441.942 486.922 441.053 484.43 440.17C481.918 439.336 479.402 438.525 476.868 437.769C471.796 436.242 466.684 434.872 461.554 433.298Z" fill="#75240E"/>
<path d="M471.672 384.284C469.975 388.568 468.133 396.506 466.489 404.765C479.17 402.77 504.239 400.489 532.62 406.888C534.23 397.604 535.174 391.439 535.174 391.439C535.174 391.439 503.772 383.212 471.672 384.284Z" fill="#A35652"/>
<path d="M529.242 290.014C529.242 290.014 546.513 309.512 539.186 401.278C511.447 386.789 476.382 386.253 457.018 396.985C465.914 323.465 480.569 268.37 529.242 290.014Z" fill="#FF8B89"/>
<path d="M460.199 373.481C459.044 381.042 457.996 388.901 457.018 396.985C476.382 386.252 511.447 386.789 539.186 401.278C539.879 392.595 540.351 384.561 540.64 377.126C513.116 365.107 478.464 369.672 460.199 373.481Z" fill="white"/>
<path d="M375.372 452.618C376.888 452.8 378.337 453.317 379.709 453.995C381.087 454.671 382.378 455.565 383.503 456.69C384.6 457.828 385.566 459.186 386.042 460.771C386.507 462.357 386.411 464.059 385.84 465.496C385.71 463.926 385.41 462.534 384.812 461.267C384.177 460.023 383.311 458.924 382.318 457.928C381.345 456.906 380.205 456.025 379.039 455.155C377.86 454.3 376.639 453.473 375.372 452.618Z" fill="#75240E"/>
<path d="M261.278 361.388C263.859 366.419 266.025 371.661 268.018 376.965C270.019 382.269 271.71 387.694 273.216 393.173C274.702 398.658 275.875 404.235 276.741 409.858C277.598 415.485 278.048 421.179 278.026 426.857C277.608 424.042 277.428 421.22 276.893 418.437C276.523 415.635 275.989 412.863 275.457 410.093C274.297 404.573 273.093 399.065 271.582 393.633C270.129 388.187 268.494 382.791 266.794 377.41C265.939 374.722 265.046 372.045 264.107 369.382C263.227 366.695 262.239 364.053 261.278 361.388Z" fill="#75240E"/>
<path d="M243.135 447.608C237.908 447.608 232.992 448.946 228.67 451.284C229.112 452.582 229.551 453.748 229.981 454.763C237.256 471.893 254.492 489.724 273.501 486.085C273.944 483.943 274.187 481.726 274.187 479.448C274.188 461.864 260.285 447.608 243.135 447.608Z" fill="#A35652"/>
<path d="M506.591 469.074C489.633 469.074 475.886 483.17 475.886 500.558C475.886 501.118 475.94 501.665 475.969 502.218C489.969 503.67 504.92 502.346 512.845 486.605C514.74 482.84 516.635 477.61 518.474 471.523C514.818 469.948 510.803 469.074 506.591 469.074Z" fill="#A35652"/>
<path d="M460.199 373.481C459.918 362.316 460.969 351.123 462.983 340.093C465.027 329.074 468.158 318.144 473.256 307.965C475.879 302.934 478.965 298.056 482.931 293.867C486.9 289.732 491.732 286.204 497.239 284.432C499.971 283.532 502.811 282.996 505.649 282.897C508.487 282.787 511.304 283.106 514.033 283.668C519.504 284.825 524.58 287.158 529.242 290.014C524.149 288.077 518.972 286.386 513.694 285.905C508.45 285.293 503.165 285.891 498.419 287.819C493.68 289.769 489.478 292.929 486.023 296.866C482.511 300.752 479.654 305.307 477.236 310.1C474.743 314.864 472.769 319.941 470.991 325.093C469.195 330.246 467.754 335.541 466.392 340.869C463.777 351.558 461.772 362.451 460.199 373.481Z" fill="#DB973E"/>
<path d="M294.258 367.594C294.562 357.851 295.533 348.169 296.782 338.532C297.368 333.705 298.165 328.913 298.92 324.109C299.757 319.322 300.623 314.539 301.604 309.774C302.601 305.015 303.709 300.277 304.863 295.551C305.463 293.193 306.143 290.854 306.78 288.505C307.11 287.333 307.412 286.156 307.763 284.991L308.882 281.512C311.857 272.268 315.242 263.001 320.418 254.774C316.934 263.832 314.576 273.165 312.251 282.507C309.998 291.866 307.892 301.271 305.995 310.732C304.938 315.437 304.064 320.19 303.088 324.917L300.225 339.13C298.331 348.618 296.406 358.106 294.258 367.594Z" fill="#DB973E"/>
<path d="M288.13 566.243C288.388 572.507 288.678 578.864 289.017 585.346C362.811 605.202 499.411 589.103 499.411 589.103L499 568.286C381.617 582.837 315.853 572.962 288.13 566.243Z" fill="white"/>
<path d="M451.897 252.389L506.004 284.303" stroke="#DB973E" stroke-width="2.1157" stroke-miterlimit="10"/>
<path d="M360.878 247.35L315.097 268.345" stroke="#DB973E" stroke-width="2.1157" stroke-miterlimit="10"/>
<path d="M437.827 228.48L384.793 226.69C384.793 226.69 374.124 230.308 361.469 235.057C358.479 250.933 359.192 279.025 399.563 284.29C441.232 289.026 452.923 253.672 455.993 238.651C445.305 232.532 437.827 228.48 437.827 228.48Z" fill="white"/>
<path d="M359.845 119.438C359.845 119.438 334.026 107.377 329.141 88.7729C324.256 70.1689 347.807 81.6182 347.807 81.6182C347.807 81.6182 340.305 61.2263 350.249 55.1437C360.193 49.0612 377.289 71.4223 377.289 71.4223C377.289 71.4223 370.136 57.5184 377.812 54.0962C385.488 50.6724 383.395 63.1939 405.551 70.3501C427.706 77.5048 447.769 83.5874 453.701 95.2149C459.807 85.7347 463.471 89.3919 460.854 99.9949C472.018 101.476 474.635 112.387 463.471 111.314C467.831 124.729 458.935 158.36 447.421 176.426C435.908 194.493 430.151 199.86 430.151 199.86L410.96 174.459L394.176 129.38L359.845 119.438Z" fill="#51200B"/>
<path d="M347.271 81.3696C352.132 85.2803 356.608 89.3061 361.322 93.0171C363.683 94.8557 366.057 96.6513 368.535 98.3132C371.04 99.9291 373.603 101.41 376.419 102.771C373.308 102.735 370.226 101.828 367.364 100.547C364.495 99.2533 361.857 97.5115 359.387 95.5884C356.929 93.6453 354.677 91.4565 352.635 89.0865C350.592 86.7226 348.715 84.1943 347.271 81.3696Z" fill="#351515"/>
<path d="M377.291 71.4224C378.483 74.9183 379.827 78.2483 381.343 81.4601C382.892 84.6519 384.62 87.7132 386.662 90.5225C388.622 93.4025 391.02 95.9093 393.615 98.2041C396.181 100.596 399.219 102.307 402.325 104.248C398.801 103.595 395.195 102.417 392.148 100.247C391.755 99.995 391.351 99.7554 390.966 99.4912L389.889 98.5927C389.186 97.9752 388.419 97.4176 387.766 96.7433C387.115 96.0675 386.488 95.3625 385.849 94.6713C385.224 93.9678 384.691 93.189 384.111 92.4471C381.95 89.3628 380.215 85.9836 379.063 82.4171C377.911 78.8612 377.189 75.1456 377.291 71.4224Z" fill="#351515"/>
<path d="M389.808 61.833C389.798 66.4871 390.432 70.9999 391.54 75.3483C392.108 77.5171 392.769 79.6521 393.598 81.7135C394.052 82.7272 394.418 83.7794 394.885 84.7839L396.409 87.7376C396.899 88.7314 397.541 89.6377 398.1 90.5946L398.967 92.0139C399.3 92.4562 399.643 92.8909 399.962 93.344C400.618 94.2365 401.244 95.1581 401.929 96.0351C402.673 96.8584 403.397 97.7032 404.116 98.5603L405.205 99.8383L406.403 101.01L408.782 103.409C410.416 104.965 412.186 106.372 413.839 108.005C411.811 106.984 409.772 105.907 407.828 104.669L405.036 102.612L403.649 101.557L402.375 100.362C398.835 97.2992 396.036 93.4101 393.645 89.3243C391.368 85.151 389.832 80.5538 389.127 75.8567C388.42 71.1719 388.49 66.3212 389.808 61.833Z" fill="#351515"/>
<path d="M433.289 163.366L437.828 228.478C437.828 228.478 437.614 240.794 425.756 254.773C411.357 271.746 377.104 259.234 380.001 236.936L384.097 205.403L433.289 163.366Z" fill="#BC6C64"/>
<path d="M380.576 232.489C401.586 224.38 416.193 202.002 416.193 202.002L383.665 208.712C383.229 212.068 382.35 218.84 380.576 232.489Z" fill="#753835"/>
<path d="M432.943 151.471C432.943 151.471 435.56 181.523 426.401 192.524C417.243 203.524 402.327 212.648 377.206 215.332C352.084 218.015 354.701 209.696 353.392 189.035C352.084 168.375 350.775 108.807 364.906 102.368C379.036 95.9276 418.028 103.709 422.999 112.295C427.971 120.881 427.971 132.42 426.401 141.811C424.83 151.202 432.943 151.471 432.943 151.471Z" fill="#BC6C64"/>
<path d="M393.318 143.511C387.621 143.511 383.001 147.595 383.001 152.634C383.001 152.73 383.015 152.826 383.018 152.922C386.186 154.102 389.665 154.756 393.318 154.756C396.97 154.756 400.45 154.102 403.617 152.922C403.62 152.826 403.633 152.732 403.633 152.634C403.635 147.595 399.015 143.511 393.318 143.511Z" fill="#EFEEE4"/>
<path d="M403.617 152.922C403.62 152.826 403.633 152.732 403.633 152.634C403.633 147.595 399.015 143.511 393.317 143.511C391.237 143.511 389.307 144.06 387.687 144.995C387.161 146.179 386.862 147.491 386.862 148.878C386.862 150.929 387.509 152.819 388.595 154.365C390.129 154.609 391.702 154.756 393.317 154.756C396.97 154.756 400.45 154.102 403.617 152.922Z" fill="#51200B"/>
<path d="M360.864 153.185C360.867 153.102 360.877 153.021 360.877 152.938C360.877 148.931 357.466 145.633 353.071 145.18C352.908 148.359 352.793 151.559 352.722 154.726C355.601 154.649 358.35 154.121 360.864 153.185Z" fill="#51200B"/>
<path d="M382.35 145.121C383.723 143.567 385.441 142.338 387.303 141.415C389.171 140.498 391.254 140.008 393.342 139.976C395.418 140.023 397.538 140.413 399.377 141.415C400.348 141.805 401.154 142.498 402.03 143.041C402.838 143.691 403.585 144.418 404.333 145.121C403.468 144.556 402.68 143.899 401.815 143.372C400.914 142.908 400.093 142.289 399.132 141.986C397.312 141.137 395.316 140.776 393.349 140.788C391.372 140.753 389.401 141.221 387.549 141.986C385.698 142.76 383.942 143.817 382.35 145.121Z" fill="#8C4A43"/>
<path d="M353.211 142.329C353.91 142.402 354.514 142.581 355.13 142.802C355.736 143.026 356.319 143.301 356.875 143.622C357.982 144.27 358.98 145.086 359.845 146.015C358.888 145.184 357.828 144.494 356.7 143.986C356.133 143.736 355.551 143.534 354.959 143.387C354.376 143.243 353.749 143.141 353.197 143.143L353.211 142.329Z" fill="#8C4A43"/>
<path d="M386.971 121.372C392.16 121.155 402.43 121.961 408.867 130.631C409.034 123.301 405.714 112.884 386.68 113.469C384.664 113.53 382.979 115.183 382.9 117.251C382.898 117.303 382.897 117.355 382.895 117.407C382.844 119.676 384.76 121.464 386.971 121.372Z" fill="#51200B"/>
<path d="M358.475 123.086C360.523 123.172 362.296 121.516 362.248 119.415C362.247 119.367 362.245 119.318 362.244 119.27C362.17 117.356 360.611 115.827 358.743 115.768C358.112 115.748 357.54 115.771 356.945 115.777C356.337 118.031 355.814 120.502 355.356 123.113C356.523 123.044 357.58 123.049 358.475 123.086Z" fill="#51200B"/>
<path d="M455.725 160.18C451.783 169.032 443.401 173.78 437.001 170.785C430.602 167.789 428.609 158.185 432.552 149.333C436.493 140.481 444.876 135.733 451.276 138.728C457.674 141.724 459.666 151.327 455.725 160.18Z" fill="#BC6C64"/>
<path d="M403.617 152.922C403.424 150.26 401.978 147.995 400.052 146.534C398.115 145.066 395.713 144.315 393.318 144.322C390.923 144.316 388.521 145.067 386.585 146.536C384.66 147.996 383.214 150.26 383.018 152.922C382.787 151.612 382.988 150.221 383.455 148.927C383.96 147.646 384.781 146.488 385.798 145.559C387.831 143.671 390.593 142.716 393.318 142.699C396.043 142.717 398.805 143.673 400.837 145.56C401.854 146.49 402.673 147.648 403.179 148.929C403.647 150.221 403.846 151.611 403.617 152.922Z" fill="#542121"/>
<path d="M360.864 153.185C360.867 153.102 360.877 153.021 360.877 152.938C360.877 148.93 357.466 145.626 353.073 145.173" stroke="#542121" stroke-width="0.9064" stroke-miterlimit="10"/>
<path d="M437.827 163.645C437.827 166.496 438.471 169.18 439.59 171.562C445.51 172.467 452.297 167.879 455.725 160.18C457.861 155.383 458.241 150.373 457.134 146.305C456.194 146.126 455.229 146.015 454.239 146.015C445.176 146.015 437.827 153.909 437.827 163.645Z" fill="#A0524E"/>
<path d="M426.4 141.811C426.4 141.811 423.373 177.054 401.638 180.323C389.118 169.358 366.407 168.285 352.815 176.156C348.296 201.199 349.225 223.383 361.844 223.202C374.463 223.022 436.989 216.943 432.942 151.471C432.385 132.865 426.4 141.811 426.4 141.811Z" fill="#51200B"/>
<path d="M365.602 180.718C365.602 180.718 374.151 179.644 379.21 176.783C384.269 173.921 388.98 175.889 386.188 179.644C383.397 183.401 374.674 185.547 369.963 185.189C365.255 184.833 362.967 181.146 365.602 180.718Z" fill="#EFEEE4"/>
<path d="M365.785 165.759C365.785 165.759 364.242 171.93 364.491 174.747C368.15 174.244 373.505 171.528 374.551 170.857C375.598 170.186 365.785 165.759 365.785 165.759Z" fill="#BC6C64"/>
<path d="M368.395 156.861C367.921 158.406 367.497 159.95 367.067 161.484C366.645 163.02 366.252 164.558 365.888 166.095C365.556 167.64 365.232 169.18 365.011 170.732C364.789 172.282 364.671 173.837 364.648 175.388L363.793 174.725C365.375 174.388 366.953 174.036 368.519 173.629C370.078 173.204 371.657 172.806 373.118 172.052C372.514 172.632 371.779 173.049 371.054 173.448C370.321 173.843 369.573 174.211 368.805 174.517C367.276 175.159 365.701 175.665 364.115 176.112L363.321 176.336L363.259 175.45C363.032 172.121 363.598 168.834 364.497 165.714C364.957 164.154 365.511 162.629 366.155 161.146C366.798 159.663 367.539 158.223 368.395 156.861Z" fill="#590A06"/>
<path opacity="0.26" d="M364.906 102.368C353.088 107.753 352.069 150.287 352.818 176.154H352.817C348.297 201.197 349.226 223.382 361.845 223.201C365.73 223.145 374.347 222.523 384.293 219.789C391.699 212.353 394.229 199.648 401.64 180.322C415.366 163.043 416.191 107.382 416.194 107.257C403.138 101.13 376.154 97.2425 364.906 102.368Z" fill="white"/>
<path opacity="0.27" d="M407.999 165.154C407.999 167.969 403.266 170.252 397.43 170.252C391.594 170.252 386.862 167.969 386.862 165.154C386.862 162.338 391.594 160.056 397.43 160.056C403.268 160.056 407.999 162.338 407.999 165.154Z" fill="#AF0808"/>
<path opacity="0.27" d="M352.685 170.123C357.392 169.608 360.908 167.581 360.908 165.155C360.908 162.721 357.369 160.689 352.642 160.182C352.616 163.608 352.636 166.942 352.685 170.123Z" fill="#AF0808"/>
<path d="M225.656 325.004H184.137C179.416 325.004 175.588 321.079 175.588 316.238V227.75C175.588 222.909 179.416 218.984 184.137 218.984H225.656C230.378 218.984 234.205 222.909 234.205 227.75V316.238C234.205 321.079 230.378 325.004 225.656 325.004Z" fill="#263238"/>
<path d="M225.21 322.724H184.584C179.964 322.724 176.219 318.884 176.219 314.147V227.563C176.219 222.826 179.964 218.986 184.584 218.986H225.21C229.83 218.986 233.575 222.826 233.575 227.563V314.147C233.576 318.884 229.831 322.724 225.21 322.724Z" stroke="#455A64" stroke-width="1.0578" stroke-miterlimit="10"/>
<path d="M225.03 317.818H184.765C181.528 317.818 178.903 315.127 178.903 311.808V229.147C178.903 225.827 181.528 223.136 184.765 223.136H225.03C228.267 223.136 230.891 225.827 230.891 229.147V311.808C230.891 315.127 228.267 317.818 225.03 317.818Z" fill="#FFC061"/>
<path d="M227.663 244.604H181.607V283.512H227.663V244.604Z" fill="#EBEBEB"/>
<path d="M227.663 283.51H181.607V312.243H227.663V283.51Z" fill="white"/>
<path d="M224.162 224.627H185.632C182.535 224.627 180.024 227.202 180.024 230.378V231.424H229.773V230.378C229.771 227.202 227.26 224.627 224.162 224.627Z" fill="white"/>
<path d="M197.738 286.764C193.331 286.008 192.071 290.373 192.071 290.373C192.071 290.373 190.811 286.008 186.404 286.764C181.997 287.519 185.285 296.5 192.071 299.354C198.857 296.5 202.145 287.518 197.738 286.764Z" fill="#FFC061"/>
<path d="M225.395 287.447H202.193V289.298H225.395V287.447Z" fill="#EBEBEB"/>
<path d="M225.395 292.089H202.193V293.94H225.395V292.089Z" fill="#EBEBEB"/>
<path d="M225.395 296.73H202.193V298.581H225.395V296.73Z" fill="#EBEBEB"/>
<path d="M225.395 301.373H184.401V303.223H225.395V301.373Z" fill="#EBEBEB"/>
<path d="M225.395 306.014H184.401V307.865H225.395V306.014Z" fill="#EBEBEB"/>
<path d="M191.659 260.297C191.659 260.406 191.358 260.495 190.756 260.564C190.154 260.623 189.551 260.653 188.949 260.653C188.347 260.653 187.957 260.628 187.779 260.579C187.611 260.52 187.527 260.426 187.527 260.297V253.9H186.017C185.849 253.9 185.765 253.539 185.765 252.819C185.765 252.098 185.849 251.446 186.017 250.864C186.066 250.676 186.59 250.503 187.587 250.345C188.584 250.187 189.349 250.108 189.882 250.108C190.415 250.108 190.771 250.128 190.949 250.168C191.126 250.207 191.26 250.256 191.348 250.316C191.437 250.365 191.506 250.424 191.556 250.493C191.625 250.602 191.659 250.706 191.659 250.804V260.297ZM193.72 253.974C193.443 253.974 193.201 253.648 192.994 252.996C192.797 252.345 192.698 251.718 192.698 251.115C192.698 250.977 192.851 250.824 193.157 250.656C193.463 250.479 193.927 250.321 194.549 250.182C195.171 250.044 195.847 249.975 196.578 249.975C199.412 249.975 200.828 250.967 200.828 252.952C200.828 253.505 200.71 254.023 200.473 254.507C200.236 254.991 199.974 255.381 199.688 255.677C199.402 255.963 199.066 256.23 198.681 256.476C198.237 256.753 197.812 256.97 197.407 257.128H200.369C200.429 257.128 200.493 257.158 200.562 257.217C200.631 257.266 200.705 257.424 200.784 257.691C200.863 257.948 200.902 258.273 200.902 258.668C200.902 259.053 200.878 259.379 200.828 259.646C200.779 259.902 200.72 260.09 200.651 260.209C200.503 260.475 200.369 260.618 200.251 260.638L200.177 260.653H193.69C193.068 260.653 192.757 259.68 192.757 257.735C192.757 257.518 193.399 256.921 194.682 255.943C195.166 255.588 195.61 255.198 196.015 254.773C196.42 254.349 196.622 254.003 196.622 253.737C196.622 253.441 196.4 253.292 195.956 253.292C195.512 253.292 195.043 253.406 194.549 253.633C194.065 253.86 193.789 253.974 193.72 253.974ZM205.868 260.297C205.868 260.406 205.591 260.495 205.038 260.564C204.485 260.623 203.908 260.653 203.305 260.653C202.703 260.653 202.313 260.628 202.136 260.579C201.958 260.52 201.869 260.426 201.869 260.297V250.049C201.869 249.832 202.145 249.62 202.698 249.412C203.261 249.205 203.863 249.101 204.505 249.101C205.413 249.101 205.868 249.328 205.868 249.783V255.321H206.06C206.534 253.06 206.884 251.93 207.112 251.93C207.684 251.93 208.375 252.063 209.185 252.33C209.995 252.596 210.399 252.893 210.399 253.218C210.399 253.455 210.202 253.909 209.807 254.581C209.412 255.252 209.002 255.8 208.578 256.225C209.99 257.913 210.696 258.915 210.696 259.231C210.696 259.527 210.246 259.888 209.348 260.312C208.449 260.737 207.817 260.949 207.452 260.949C207.274 260.949 207.087 260.737 206.889 260.312C206.692 259.878 206.48 259.231 206.253 258.372L205.868 258.831V260.297Z" fill="#263238"/>
<path d="M227.663 235.065H181.607V242.456H227.663V235.065Z" fill="white"/>
<path d="M188.061 228.325C188.061 229.362 187.241 230.203 186.229 230.203C185.217 230.203 184.396 229.362 184.396 228.325C184.396 227.288 185.217 226.446 186.229 226.446C187.241 226.446 188.061 227.286 188.061 228.325Z" fill="#263238"/>
<path d="M248.398 309.261C248.398 309.261 244.582 295.012 251.429 275.474C258.276 255.936 236.747 238.763 228.67 238.048C220.594 237.332 227.295 261.621 233.574 271.993C223.106 298.824 236.295 323.194 236.295 323.194L248.398 309.261Z" fill="#BC6C64"/>
<path d="M190.132 258.167C188.124 261.054 184.176 261.728 181.363 259.668L165.2 247.835C162.385 245.775 161.727 241.728 163.736 238.843C165.745 235.957 169.692 235.283 172.507 237.342L188.67 249.176C191.484 251.234 192.143 255.281 190.132 258.167Z" fill="#BC6C64"/>
<path d="M188.853 272.551C186.844 275.437 182.897 276.111 180.082 274.051L163.919 262.218C161.104 260.158 160.447 256.111 162.455 253.225C164.464 250.339 168.411 249.664 171.225 251.724L187.388 263.557C190.203 265.619 190.862 269.665 188.853 272.551Z" fill="#BC6C64"/>
<path d="M186.293 282.32C184.822 284.432 181.934 284.926 179.874 283.418L168.044 274.758C165.985 273.249 165.502 270.288 166.973 268.176C168.444 266.064 171.332 265.569 173.392 267.078L185.222 275.738C187.282 277.246 187.764 280.209 186.293 282.32Z" fill="#BC6C64"/>
<path d="M168.223 250.564C171.117 251.669 173.729 253.22 176.276 254.874C178.794 256.576 181.242 258.384 183.408 260.644C180.512 259.542 177.9 257.991 175.355 256.334C172.839 254.629 170.39 252.819 168.223 250.564Z" fill="#75240E"/>
<path d="M168.467 265.548C171.601 266.657 174.469 268.224 177.277 269.896C180.057 271.617 182.773 273.448 185.222 275.739C182.087 274.633 179.218 273.067 176.412 271.391C173.633 269.666 170.918 267.835 168.467 265.548Z" fill="#75240E"/>
<path opacity="0.54" d="M457.018 293.939C457.018 293.939 420.179 359.258 320.418 351.309C361.056 344.976 424.79 329.318 457.018 293.939Z" fill="#E24DB2"/>
<path d="M193.407 597.88L82.5281 574.874L102.083 616.658L73.0981 650.556L181.315 683.429L193.407 597.88Z" fill="#3B4F56"/>
<path d="M144.418 607.897L193.407 597.88V653.785L144.418 607.897Z" fill="#263238"/>
<path d="M572.082 597.88L682.961 574.874L663.406 616.658L692.392 650.556L584.175 683.429L572.082 597.88Z" fill="#3B4F56"/>
<path d="M621.071 607.897L572.082 597.88V653.785L621.071 607.897Z" fill="#263238"/>
<path d="M382.745 645.045C382.745 645.045 272.732 646.459 144.418 607.898C144.418 691.184 144.418 678.857 144.418 678.857C144.418 678.857 233.008 716.195 382.745 716.195C532.481 716.195 621.071 678.857 621.071 678.857C621.071 678.857 621.071 691.184 621.071 607.898C492.758 646.458 382.745 645.045 382.745 645.045Z" fill="#455A64"/>
<path d="M611.183 155.325L590.804 176.124V155.325H611.183Z" fill="#DB973E"/>
<path d="M668.06 159.023H518.17C512.96 159.023 508.736 154.692 508.736 149.35V112.059C508.736 106.716 512.959 102.385 518.17 102.385H668.059C673.269 102.385 677.493 106.716 677.493 112.059V149.35C677.493 154.692 673.27 159.023 668.06 159.023Z" fill="#263238"/>
<path d="M674.982 159.023H525.094C519.884 159.023 515.66 154.692 515.66 149.35V112.059C515.66 106.716 519.884 102.385 525.094 102.385H674.982C680.192 102.385 684.417 106.716 684.417 112.059V149.35C684.417 154.692 680.192 159.023 674.982 159.023Z" fill="#455A64"/>
<path d="M617.157 155.325L596.778 176.124V155.325H617.157Z" fill="#455A64"/>
<path d="M590.804 176.124H596.778V159.023H591.013L590.804 176.124Z" fill="#263238"/>
<path d="M603.417 129.861C603.417 134.151 600.025 137.628 595.843 137.628C591.659 137.628 588.268 134.151 588.268 129.861C588.268 125.571 591.659 122.093 595.843 122.093C600.025 122.095 603.417 125.571 603.417 129.861Z" fill="white"/>
<path d="M635.183 129.861C635.183 134.151 631.792 137.628 627.608 137.628C623.424 137.628 620.033 134.151 620.033 129.861C620.033 125.571 623.424 122.093 627.608 122.093C631.792 122.093 635.183 125.571 635.183 129.861Z" fill="white"/>
<path d="M666.95 129.861C666.95 134.151 663.559 137.628 659.375 137.628C655.191 137.628 651.799 134.151 651.799 129.861C651.799 125.571 655.191 122.093 659.375 122.093C663.559 122.095 666.95 125.571 666.95 129.861Z" fill="white"/>
<path d="M552.239 151.916C563.569 151.916 572.754 142.498 572.754 130.881C572.754 119.263 563.569 109.845 552.239 109.845C540.909 109.845 531.724 119.263 531.724 130.881C531.724 142.498 540.909 151.916 552.239 151.916Z" fill="#FFC061"/>
<path d="M559.947 122.749C559.947 127.114 556.495 130.653 552.239 130.653C547.982 130.653 544.531 127.114 544.531 122.749C544.531 118.384 547.982 114.845 552.239 114.845C556.495 114.845 559.947 118.384 559.947 122.749Z" fill="white"/>
<path d="M552.239 133.446C545.576 133.446 540.174 138.985 540.174 145.817V147.867C543.465 150.328 547.488 151.812 551.853 151.896H552.627C556.992 151.812 561.015 150.33 564.306 147.867V145.817C564.304 138.985 558.902 133.446 552.239 133.446Z" fill="white"/>
<path d="M106.983 391.182L121.927 406.435V391.182H106.983Z" fill="#DB973E"/>
<path d="M65.2694 393.893H175.194C179.015 393.893 182.113 390.717 182.113 386.798V359.45C182.113 355.531 179.015 352.355 175.194 352.355H65.2694C61.448 352.355 58.3501 355.531 58.3501 359.448V386.797C58.3516 390.718 61.448 393.893 65.2694 393.893Z" fill="#DB973E"/>
<path d="M60.1927 393.893H170.117C173.939 393.893 177.037 390.717 177.037 386.798V359.45C177.037 355.531 173.939 352.355 170.117 352.355H60.1927C56.3713 352.355 53.2734 355.531 53.2734 359.45V386.798C53.2734 390.718 56.3713 393.893 60.1927 393.893Z" fill="#FFC061"/>
<path d="M102.601 391.182L117.547 406.435V391.182H102.601Z" fill="#FFC061"/>
<path d="M121.927 406.434H117.547V393.893H121.774L121.927 406.434Z" fill="#DB973E"/>
<path d="M153.577 372.508C153.577 375.653 156.063 378.203 159.131 378.203C162.199 378.203 164.686 375.653 164.686 372.508C164.686 369.362 162.199 366.812 159.131 366.812C156.063 366.81 153.577 369.362 153.577 372.508Z" fill="white"/>
<path d="M130.28 372.508C130.28 375.653 132.766 378.203 135.834 378.203C138.902 378.203 141.39 375.653 141.39 372.508C141.39 369.362 138.904 366.812 135.834 366.812C132.766 366.81 130.28 369.362 130.28 372.508Z" fill="white"/>
<path d="M106.983 372.508C106.983 375.653 109.47 378.203 112.539 378.203C115.607 378.203 118.094 375.653 118.094 372.508C118.094 369.362 115.607 366.812 112.539 366.812C109.47 366.81 106.983 369.362 106.983 372.508Z" fill="white"/>
<path d="M81.1289 388.681C89.4377 388.681 96.1733 381.775 96.1733 373.255C96.1733 364.736 89.4377 357.829 81.1289 357.829C72.8201 357.829 66.0845 364.736 66.0845 373.255C66.0845 381.775 72.8201 388.681 81.1289 388.681Z" fill="white"/>
<path d="M81.129 373.088C84.2514 373.088 86.7825 370.493 86.7825 367.291C86.7825 364.089 84.2514 361.494 81.129 361.494C78.0067 361.494 75.4756 364.089 75.4756 367.291C75.4756 370.493 78.0067 373.088 81.129 373.088Z" fill="#455A64"/>
<path d="M81.1289 375.135C86.0154 375.135 89.9776 379.198 89.9776 384.208V385.712C87.5643 387.517 84.6148 388.604 81.4135 388.666H80.8458C77.6446 388.604 74.695 387.517 72.2817 385.712V384.208C72.2802 379.198 76.2425 375.135 81.1289 375.135Z" fill="#455A64"/>
<path d="M87.6226 200.116L109.206 222.146V200.116H87.6226Z" fill="#263238"/>
<path d="M115.534 222.145H109.206V201.921H115.313L115.534 222.145Z" fill="#455A64"/>
<path d="M89.5657 203.538H137.601C144.114 203.538 149.393 198.124 149.393 191.447V142.192C149.393 135.513 144.114 130.101 137.601 130.101H89.5657C83.0524 130.101 77.7734 135.513 77.7734 142.192V191.445C77.7719 198.124 83.0524 203.538 89.5657 203.538Z" fill="#455A64"/>
<path d="M80.1926 203.538H128.228C134.741 203.538 140.02 198.124 140.02 191.447V142.192C140.02 135.513 134.741 130.101 128.228 130.101H80.1926C73.6793 130.101 68.4004 135.513 68.4004 142.192V191.445C68.4004 198.124 73.6793 203.538 80.1926 203.538Z" fill="#263238"/>
<path d="M130.262 154.416H87.4565V160.309H130.262V154.416Z" fill="white"/>
<path d="M125.537 172.095H82.7319V177.988H125.537V172.095Z" fill="white"/>
<path fill-rule="evenodd" clip-rule="evenodd" d="M90.4258 187.779L96.3384 143.888H102.086L96.1736 187.779H90.4258Z" fill="white"/>
<path fill-rule="evenodd" clip-rule="evenodd" d="M110.583 187.779L116.494 143.888H122.241L116.329 187.779H110.583Z" fill="white"/>
<path d="M593.791 297.488C615.141 297.488 632.45 279.74 632.45 257.848C632.45 235.956 615.141 218.208 593.791 218.208C572.44 218.208 555.132 235.956 555.132 257.848C555.132 279.74 572.44 297.488 593.791 297.488Z" fill="#FFC061"/>
<path d="M593.791 290.763C573.545 290.763 556.946 274.803 555.28 254.486C555.189 255.595 555.132 256.715 555.132 257.848C555.132 279.741 572.44 297.488 593.791 297.488C615.142 297.488 632.45 279.741 632.45 257.848C632.45 256.715 632.393 255.595 632.301 254.486C630.637 274.803 614.036 290.763 593.791 290.763Z" fill="#DB973E"/>
<path d="M584.675 243.138C584.675 246.279 582.192 248.827 579.127 248.827C576.062 248.827 573.578 246.28 573.578 243.138C573.578 239.995 576.062 237.448 579.127 237.448C582.192 237.448 584.675 239.996 584.675 243.138Z" fill="#51200B"/>
<path d="M608.454 248.827C611.519 248.827 614.003 246.28 614.003 243.138C614.003 239.995 611.519 237.448 608.454 237.448C605.39 237.448 602.906 239.995 602.906 243.138C602.906 246.28 605.39 248.827 608.454 248.827Z" fill="#51200B"/>
<path d="M567.913 256.816C571.428 268.033 581.682 276.153 593.791 276.153C605.899 276.153 616.153 268.033 619.668 256.816H567.913Z" fill="white"/>
<path d="M641.374 398.346H646.64V381.512H641.558L641.374 398.346Z" fill="#494746"/>
<path d="M662.989 382.857H623.006C617.585 382.857 613.19 378.351 613.19 372.792V331.794C613.19 326.236 617.585 321.729 623.006 321.729H662.989C668.411 321.729 672.806 326.236 672.806 331.794V372.792C672.806 378.351 668.411 382.857 662.989 382.857Z" fill="#494746"/>
<path d="M670.791 382.857H630.808C625.387 382.857 620.992 378.351 620.992 372.792V331.794C620.992 326.236 625.387 321.729 630.808 321.729H670.791C676.212 321.729 680.608 326.236 680.608 331.794V372.792C680.606 378.351 676.212 382.857 670.791 382.857Z" fill="#7A7774"/>
<path d="M664.606 380.008L646.64 398.346V380.008H664.606Z" fill="#7A7774"/>
<path d="M674.145 354.213C669.67 354.69 666.068 355.176 663.234 355.892C660.002 356.712 657.84 357.799 656.238 359.411C654.627 361.032 653.546 363.197 652.741 366.449C652.03 369.301 651.546 372.925 651.072 377.426C650.598 372.915 650.115 369.301 649.404 366.449C648.589 363.197 647.508 361.023 645.906 359.411C644.295 357.79 642.143 356.702 638.911 355.892C636.076 355.176 632.474 354.69 628 354.213C632.474 353.736 636.076 353.25 638.911 352.535C642.143 351.714 644.295 350.627 645.906 349.015C647.518 347.394 648.598 345.229 649.404 341.977C650.115 339.126 650.598 335.501 651.072 331C651.546 335.501 652.03 339.126 652.741 341.977C653.556 345.229 654.636 347.404 656.238 349.015C657.85 350.637 660.002 351.724 663.234 352.535C666.068 353.25 669.67 353.736 674.145 354.213Z" fill="#FFC200"/>
</g>
<defs>
<clipPath id="clip0_429_1403">
<rect width="749" height="768" fill="white"/>
</clipPath>
</defs>
</svg>
