<svg width="31" height="32" viewBox="0 0 31 32" fill="none" xmlns="http://www.w3.org/2000/svg">
<path d="M0.989739 17.5832H8.97703C9.22658 22.5974 10.6987 27.4496 13.2427 31.6432C10.0558 31.1001 7.12464 29.4257 4.90742 26.8818C2.6902 24.3379 1.31344 21.0679 0.989739 17.5832ZM0.988281 14.4166C1.31161 10.9318 2.68948 7.6617 4.90643 5.1175C7.12339 2.5733 10.0544 0.898491 13.2412 0.35498C10.6972 4.54861 9.22512 9.40079 8.97557 14.415L0.988281 14.4166ZM30.0091 14.4166H22.0218C21.7725 9.40183 20.3004 4.54907 17.7562 0.35498C20.943 0.898098 23.8742 2.57253 26.0914 5.11644C28.3087 7.66036 29.6869 10.9303 30.0106 14.415M30.0106 17.5816C29.6869 21.0661 28.3089 24.3359 26.092 26.8798C23.8751 29.4236 20.9442 31.0982 17.7577 31.6416C20.3014 27.4485 21.7735 22.5969 22.0233 17.5832L30.0106 17.5816ZM11.8981 17.5832H19.1022C18.8627 21.8575 17.6229 25.9948 15.5002 29.6039C13.3774 25.9948 12.1376 21.8575 11.8981 17.5832ZM11.8981 14.4166C12.1376 10.1423 13.3774 6.00496 15.5002 2.3959C17.6229 6.00496 18.8627 10.1423 19.1022 14.4166H11.8981Z" fill="white"/>
</svg>
