<svg width="14" height="14" viewBox="0 0 14 14" fill="none" xmlns="http://www.w3.org/2000/svg">
<g clip-path="url(#clip0_666_1039)">
<path d="M3.25567 6.67658L4.5561 7.11008C5.41567 7.39601 5.84453 7.53989 6.15258 7.84796C6.46062 8.15602 6.6045 8.58583 6.89041 9.44361L7.32388 10.7441C8.04695 12.9153 8.40849 14 9.07346 14C9.7375 14 10.1 12.9153 10.823 10.7441L13.4405 2.89312C13.9496 1.36571 14.2041 0.602012 13.8011 0.198947C13.3981 -0.204118 12.6344 0.0504496 11.108 0.558662L3.25475 3.17812C1.08645 3.90032 0 4.26188 0 4.92689C0 5.59098 1.08553 5.95346 3.25567 6.67658Z" fill="black" fill-opacity="0.25"/>
<path d="M3.25567 6.67658L4.5561 7.11008C5.41567 7.39601 5.84453 7.53989 6.15258 7.84796C6.46062 8.15602 6.6045 8.58583 6.89041 9.44361L7.32388 10.7441C8.04695 12.9153 8.40849 14 9.07346 14C9.7375 14 10.1 12.9153 10.823 10.7441L13.4405 2.89312C13.9496 1.36571 14.2041 0.602012 13.8011 0.198947C13.3981 -0.204118 12.6344 0.0504496 11.108 0.558662L3.25475 3.17812C1.08645 3.90032 0 4.26188 0 4.92689C0 5.59098 1.08553 5.95346 3.25567 6.67658Z" fill="#FCB341"/>
<path d="M4.72079 8.76585L3.04692 8.20817C2.92979 8.16912 2.8053 8.15731 2.68291 8.17363C2.56053 8.18994 2.44348 8.23396 2.34068 8.30233L1.45585 8.89168C1.3511 8.96146 1.2689 9.06018 1.21922 9.17582C1.16955 9.29146 1.15455 9.41905 1.17605 9.54306C1.19755 9.66707 1.25462 9.78216 1.34032 9.87434C1.42603 9.96651 1.53667 10.0318 1.65879 10.0622L3.2458 10.4584C3.31722 10.4762 3.38244 10.5131 3.43449 10.5652C3.48654 10.6172 3.52345 10.6825 3.54128 10.7539L3.93743 12.3409C3.96788 12.463 4.03316 12.5736 4.12534 12.6593C4.21751 12.7451 4.3326 12.8021 4.45661 12.8236C4.58062 12.8451 4.70821 12.8301 4.82385 12.7805C4.9395 12.7308 5.03822 12.6486 5.108 12.5438L5.69734 11.659C5.76571 11.5562 5.80973 11.4391 5.82605 11.3168C5.84237 11.1944 5.83055 11.0699 5.79151 10.9528L5.23382 9.27889C5.19396 9.15944 5.12685 9.05091 5.03781 8.96186C4.94877 8.87282 4.84023 8.80571 4.72079 8.76585Z" fill="#333333"/>
</g>
<defs>
<clipPath id="clip0_666_1039">
<rect width="14" height="14" fill="white"/>
</clipPath>
</defs>
</svg>
