<svg width="40" height="45" viewBox="0 0 63 62" fill="none" xmlns="http://www.w3.org/2000/svg">
<path d="M42.8078 17.7793L8.11214 30.0073C7.76278 30.1304 7.45626 30.348 7.22819 30.6349C7.00012 30.9217 6.85985 31.2661 6.82366 31.6278C6.78748 31.9896 6.85687 32.354 7.02377 32.6788C7.19067 33.0035 7.44824 33.2752 7.76657 33.4623L16.1782 38.4038L30.9821 31.8156L24.2525 46.3084L29.3001 54.5433C29.4902 54.8563 29.7675 55.1098 30.0994 55.2742C30.4313 55.4385 30.8042 55.507 31.1744 55.4715C31.5447 55.436 31.8969 55.2981 32.19 55.0738C32.483 54.8495 32.7048 54.5481 32.8293 54.205L45.3197 20.2385C45.4461 19.8954 45.4701 19.5241 45.3889 19.1681C45.3077 18.8122 45.1246 18.4862 44.8612 18.2282C44.5977 17.9703 44.2647 17.7911 43.9011 17.7117C43.5375 17.6322 43.1583 17.6556 42.8078 17.7793Z" fill="#333333"/>
</svg>
