<svg width="50" height="45" viewBox="0 0 57 56" fill="none" xmlns="http://www.w3.org/2000/svg">
<g filter="url(#filter0_d_274_335)">
<path fill-rule="evenodd" clip-rule="evenodd" d="M42.7525 20.7863C42.9068 21.8175 42.1814 22.7764 41.1324 22.9281C37.1871 23.4985 34.8622 24.3784 33.1667 25.4386C32.0822 26.1167 31.2065 26.8938 30.2844 27.8329C32.8767 29.3147 34.7691 31.3359 36.8649 33.8781C37.5325 34.6879 37.406 35.8764 36.5822 36.5327C35.7585 37.189 34.5495 37.0645 33.8819 36.2547C31.2884 33.1089 29.4419 31.3325 26.4215 30.1917C22.3854 28.6663 19.4249 28.2914 16.7746 28.3347C15.7144 28.352 14.8407 27.5212 14.8231 26.479C14.8055 25.4368 15.6506 24.5779 16.7108 24.5606C19.571 24.5139 22.6696 24.8914 26.5578 26.2212C27.8845 24.7956 29.2602 23.4077 31.1059 22.2536C33.3914 20.8246 36.2776 19.8148 40.5737 19.1936C41.6227 19.042 42.5982 19.755 42.7525 20.7863Z" fill="white"/>
<path fill-rule="evenodd" clip-rule="evenodd" d="M28.7979 13.2521C22.595 13.2521 17.5666 18.1952 17.5666 24.2929C17.5666 30.3906 22.595 35.3338 28.7979 35.3338C35.0007 35.3338 40.0291 30.3906 40.0291 24.2929C40.0291 18.1952 35.0007 13.2521 28.7979 13.2521ZM13.7269 24.2929C13.7269 16.1105 20.4744 9.4774 28.7979 9.4774C37.1213 9.4774 43.8688 16.1105 43.8688 24.2929C43.8688 32.4753 37.1213 39.1085 28.7979 39.1085C20.4744 39.1085 13.7269 32.4753 13.7269 24.2929Z" fill="white"/>
<path fill-rule="evenodd" clip-rule="evenodd" d="M19.2625 2.80887C22.2707 1.51824 25.5183 0.854199 28.8005 0.858603C29.8608 0.860026 30.7192 1.70616 30.7177 2.74851C30.7163 3.79085 29.8555 4.63468 28.7952 4.63326C26.0434 4.62956 23.3205 5.18631 20.7984 6.2684C19.8266 6.68534 18.695 6.24889 18.2709 5.29357C17.8467 4.33825 18.2907 3.22581 19.2625 2.80887ZM35.4379 4.14472C35.8625 3.18963 36.9944 2.75381 37.966 3.17129C43.4763 5.53908 47.875 9.8633 50.2837 15.2802C50.7083 16.2353 50.265 17.348 49.2934 17.7655C48.3219 18.1829 47.19 17.7471 46.7654 16.792C44.744 12.246 41.0524 8.61706 36.4281 6.62997C35.4565 6.21249 35.0132 5.0998 35.4379 4.14472ZM14.6588 7.7244C15.4075 8.4625 15.4057 9.65749 14.6549 10.3935C12.7954 12.2162 11.3209 14.3823 10.3159 16.7673C9.311 19.1522 8.79555 21.7089 8.79923 24.2903C8.80071 25.3326 7.94236 26.1788 6.88205 26.1803C5.82174 26.1817 4.96098 25.3379 4.9595 24.2956C4.95511 21.2167 5.56989 18.1673 6.76849 15.3227C7.96709 12.4782 9.72586 9.89463 11.9437 7.7206C12.6945 6.98461 13.9101 6.98631 14.6588 7.7244ZM50.7137 22.4056C51.774 22.4042 52.6348 23.248 52.6362 24.2903C52.6407 27.5169 51.9652 30.7094 50.6523 33.6667C50.2282 34.622 49.0966 35.0584 48.1248 34.6415C47.153 34.2246 46.709 33.1121 47.1331 32.1568C48.2339 29.6774 48.8002 27.0007 48.7965 24.2955C48.795 23.2532 49.6534 22.407 50.7137 22.4056ZM7.93404 31.1824C8.90559 30.7649 10.0375 31.2007 10.4621 32.1558C12.4835 36.7018 16.175 40.3308 20.7994 42.3179C21.771 42.7354 22.2143 43.848 21.7896 44.8031C21.3649 45.7582 20.2331 46.194 19.2615 45.7765C13.7512 43.4088 9.35244 39.0845 6.94383 33.6676C6.51915 32.7125 6.96248 31.5999 7.93404 31.1824ZM45.652 38.1924C46.4029 38.9284 46.4046 40.1234 45.6559 40.8614C43.4444 43.0417 40.8163 44.7706 37.9227 45.9489C35.0291 47.1272 31.9272 47.7316 28.7952 47.7272C27.7349 47.7258 26.8765 46.8796 26.878 45.8373C26.8795 44.7949 27.7402 43.9511 28.8005 43.9526C31.4265 43.9562 34.0272 43.4495 36.4533 42.4616C38.8793 41.4737 41.0828 40.0241 42.9369 38.1962C43.6856 37.4581 44.9012 37.4564 45.652 38.1924Z" fill="white"/>
</g>
<defs>
<filter id="filter0_d_274_335" x="0.959473" y="0.858582" width="55.6768" height="54.8687" filterUnits="userSpaceOnUse" color-interpolation-filters="sRGB">
<feFlood flood-opacity="0" result="BackgroundImageFix"/>
<feColorMatrix in="SourceAlpha" type="matrix" values="0 0 0 0 0 0 0 0 0 0 0 0 0 0 0 0 0 0 127 0" result="hardAlpha"/>
<feOffset dy="4"/>
<feGaussianBlur stdDeviation="2"/>
<feComposite in2="hardAlpha" operator="out"/>
<feColorMatrix type="matrix" values="0 0 0 0 1 0 0 0 0 0.4625 0 0 0 0 0.656 0 0 0 0.25 0"/>
<feBlend mode="normal" in2="BackgroundImageFix" result="effect1_dropShadow_274_335"/>
<feBlend mode="normal" in="SourceGraphic" in2="effect1_dropShadow_274_335" result="shape"/>
</filter>
</defs>
</svg>
