<svg width="36" height="36" viewBox="0 0 36 36" fill="none" xmlns="http://www.w3.org/2000/svg">
<path fill-rule="evenodd" clip-rule="evenodd" d="M12.642 26.1885C12.4559 26.7523 12.0546 27.2197 11.5254 27.4889C10.9962 27.758 10.382 27.8071 9.81681 27.6254C9.25158 27.4437 8.78106 27.046 8.5078 26.5189C8.23455 25.9918 8.1807 25.3781 8.358 24.8115L14.8785 4.52546C15.091 3.86468 15.5078 3.2884 16.0687 2.87958C16.6297 2.47076 17.3059 2.25049 18 2.25049C18.6941 2.25049 19.3703 2.47076 19.9313 2.87958C20.4922 3.2884 20.909 3.86468 21.1215 4.52546L27.642 24.8115C27.7351 25.0934 27.7714 25.3911 27.7489 25.6871C27.7263 25.9832 27.6454 26.2719 27.5108 26.5366C27.3762 26.8013 27.1905 27.0367 26.9645 27.2292C26.7385 27.4218 26.4766 27.5677 26.1939 27.6586C25.9112 27.7495 25.6133 27.7835 25.3174 27.7587C25.0215 27.7339 24.7334 27.6507 24.4698 27.5141C24.2062 27.3774 23.9722 27.1899 23.7814 26.9624C23.5906 26.7349 23.4467 26.4718 23.358 26.1885L21.4485 20.25H14.5515L12.642 26.1885ZM15.9975 15.75H20.0025L18 9.51896L15.9975 15.75ZM5.25 31.5C5.25 30.9032 5.48705 30.3309 5.90901 29.909C6.33097 29.487 6.90326 29.25 7.5 29.25H28.5C29.0967 29.25 29.669 29.487 30.091 29.909C30.5129 30.3309 30.75 30.9032 30.75 31.5C30.75 32.0967 30.5129 32.669 30.091 33.0909C29.669 33.5129 29.0967 33.75 28.5 33.75H7.5C6.90326 33.75 6.33097 33.5129 5.90901 33.0909C5.48705 32.669 5.25 32.0967 5.25 31.5Z" fill="white"/>
</svg>
