<svg width="42" height="42" viewBox="0 0 42 42" fill="none" xmlns="http://www.w3.org/2000/svg">
<path d="M30.8438 14.4374H22.3125V26.3319C22.3125 26.68 22.1742 27.0138 21.9281 27.26C21.6819 27.5061 21.3481 27.6444 21 27.6444C20.6519 27.6444 20.3181 27.5061 20.0719 27.26C19.8258 27.0138 19.6875 26.68 19.6875 26.3319V14.4374H11.1562C9.93831 14.4387 8.77063 14.9231 7.90942 15.7843C7.0482 16.6455 6.5638 17.8132 6.5625 19.0311V34.7811C6.5638 35.9991 7.0482 37.1667 7.90942 38.028C8.77063 38.8892 9.93831 39.3736 11.1562 39.3749H30.8438C32.0617 39.3736 33.2294 38.8892 34.0906 38.028C34.9518 37.1667 35.4362 35.9991 35.4375 34.7811V19.0311C35.4362 17.8132 34.9518 16.6455 34.0906 15.7843C33.2294 14.9231 32.0617 14.4387 30.8438 14.4374ZM22.3125 7.10625L26.6347 11.4277C26.8829 11.6634 27.2133 11.7929 27.5555 11.7885C27.8978 11.7841 28.2248 11.6462 28.4668 11.4042C28.7088 11.1622 28.8468 10.8352 28.8511 10.4929C28.8555 10.1507 28.726 9.82025 28.4903 9.57211L21.9278 3.00961C21.6817 2.76365 21.3479 2.62549 21 2.62549C20.6521 2.62549 20.3183 2.76365 20.0722 3.00961L13.5097 9.57211C13.274 9.82025 13.1445 10.1507 13.1489 10.4929C13.1533 10.8352 13.2912 11.1622 13.5332 11.4042C13.7752 11.6462 14.1022 11.7841 14.4445 11.7885C14.7867 11.7929 15.1171 11.6634 15.3653 11.4277L19.6875 7.10625V14.4374H22.3125V7.10625Z" fill="white"/>
</svg>
