<svg width="30" height="30" viewBox="0 0 44 44" fill="none" xmlns="http://www.w3.org/2000/svg">
<path fill-rule="evenodd" clip-rule="evenodd" d="M12.8353 10.4101C12.8353 7.87582 13.8421 5.44532 15.6341 3.65331C17.4261 1.8613 19.8566 0.854553 22.3909 0.854553C24.9252 0.854553 27.3557 1.8613 29.1477 3.65331C30.9397 5.44532 31.9464 7.87582 31.9464 10.4101C31.9464 12.9444 30.9397 15.3749 29.1477 17.1669C27.3557 18.9589 24.9252 19.9657 22.3909 19.9657C19.8566 19.9657 17.4261 18.9589 15.6341 17.1669C13.8421 15.3749 12.8353 12.9444 12.8353 10.4101ZM12.8353 24.7434C9.66745 24.7434 6.62933 26.0019 4.38932 28.2419C2.1493 30.4819 0.890869 33.52 0.890869 36.6879C0.890869 38.5886 1.64593 40.4115 2.98994 41.7555C4.33395 43.0995 6.15682 43.8546 8.05754 43.8546H36.7242C38.6249 43.8546 40.4478 43.0995 41.7918 41.7555C43.1358 40.4115 43.8909 38.5886 43.8909 36.6879C43.8909 33.52 42.6324 30.4819 40.3924 28.2419C38.1524 26.0019 35.1143 24.7434 31.9464 24.7434H12.8353Z" fill="#333333"/>
</svg>
