<svg width="30" height="35" viewBox="0 0 38 36" fill="none" xmlns="http://www.w3.org/2000/svg">
<path fill-rule="evenodd" clip-rule="evenodd" d="M19.0452 0.571106C9.05914 0.571106 0.96437 8.49566 0.96437 18.2717C0.961043 20.8798 1.54829 23.4563 2.68385 25.8157L1.00234 33.8464C0.942472 34.1332 0.956165 34.43 1.04219 34.7102C1.12822 34.9905 1.2839 35.2456 1.49529 35.4525C1.70668 35.6595 1.96719 35.8119 2.2535 35.8961C2.5398 35.9803 2.84297 35.9937 3.13587 35.9351L11.3391 34.2889C13.6788 35.3687 16.2933 35.9705 19.0452 35.9705C29.0312 35.9705 37.1259 28.0477 37.1259 18.2699C37.1259 8.49565 29.0312 0.569336 19.0452 0.569336" fill="#333333"/>
</svg>
