<svg width="30" height="30" viewBox="0 0 43 45" fill="none" xmlns="http://www.w3.org/2000/svg">
<path d="M40.4555 22.617C36.7657 23.0246 33.795 23.4402 31.4576 24.0515C28.7919 24.7525 27.0095 25.6817 25.6884 27.0591C24.3594 28.4448 23.4683 30.295 22.8038 33.0743C22.2175 35.5114 21.8188 38.6086 21.4279 42.4557C21.0371 38.6005 20.6384 35.5114 20.0521 33.0743C19.3798 30.295 18.4886 28.4366 17.1674 27.0591C15.8385 25.6735 14.0639 24.7444 11.3982 24.0515C9.06081 23.4402 6.0902 23.0246 2.40039 22.617C6.0902 22.2095 9.06081 21.7938 11.3982 21.1825C14.0639 20.4816 15.8385 19.5524 17.1674 18.1749C18.4964 16.7893 19.3876 14.9391 20.0521 12.1597C20.6384 9.72268 21.0371 6.62543 21.4279 2.77832C21.8188 6.62543 22.2175 9.72268 22.8038 12.1597C23.4761 14.9391 24.3673 16.7975 25.6884 18.1749C27.0174 19.5605 28.7919 20.4897 31.4576 21.1825C33.795 21.7938 36.7657 22.2095 40.4555 22.617Z" stroke="#333333" stroke-width="4" stroke-linejoin="round"/>
</svg>
