<svg width="661" height="551" viewBox="0 0 661 551" fill="none" xmlns="http://www.w3.org/2000/svg">
<rect width="661" height="661" fill="#BABABA"/>
<path d="M422 331C404.159 332.89 389.796 334.818 378.495 337.652C365.606 340.903 356.988 345.212 350.6 351.6C344.174 358.025 339.865 366.606 336.652 379.495C333.818 390.796 331.89 405.159 330 423C328.11 405.122 326.182 390.796 323.348 379.495C320.097 366.606 315.788 357.988 309.4 351.6C302.975 345.174 294.394 340.865 281.505 337.652C270.204 334.818 255.841 332.89 238 331C255.841 329.11 270.204 327.182 281.505 324.348C294.394 321.097 302.975 316.788 309.4 310.4C315.826 303.975 320.135 295.394 323.348 282.505C326.182 271.204 328.11 256.841 330 239C331.89 256.841 333.818 271.204 336.652 282.505C339.903 295.394 344.212 304.012 350.6 310.4C357.025 316.826 365.606 321.135 378.495 324.348C389.796 327.182 404.159 329.11 422 331Z" fill="#828282"/>
</svg>
