<svg width="32" height="36" viewBox="0 0 32 36" fill="none" xmlns="http://www.w3.org/2000/svg">
<path fill-rule="evenodd" clip-rule="evenodd" d="M31.947 16.1363V24.9455C31.947 30.4078 31.947 33.1407 30.6439 34.3334C30.0225 34.9032 29.2378 35.2614 28.4016 35.3567C26.6493 35.556 24.6023 33.7564 20.51 30.159C18.6991 28.5694 17.7955 27.7737 16.7498 27.5655C16.2342 27.4621 15.703 27.4621 15.1874 27.5655C14.14 27.7737 13.2363 28.5694 11.4272 30.159C7.33496 33.7564 5.28795 35.556 3.53566 35.3549C2.6981 35.2594 1.91281 34.9017 1.29336 34.3334C-0.00976573 33.1407 -0.00976562 30.4096 -0.00976562 24.9455V16.1346C-0.00976562 8.57102 -0.00976584 4.78835 2.33018 2.43653C4.67012 0.0847168 8.43747 0.0847168 15.9686 0.0847168C23.5015 0.0847168 27.2671 0.0847168 29.607 2.43477C31.947 4.78658 31.947 8.57101 31.947 16.1363ZM9.31095 7.14193C9.31095 6.79099 9.45124 6.45442 9.70095 6.20627C9.95066 5.95811 10.2893 5.8187 10.6425 5.8187H21.2947C21.6479 5.8187 21.9866 5.95811 22.2363 6.20627C22.486 6.45442 22.6263 6.79099 22.6263 7.14193C22.6263 7.49287 22.486 7.82944 22.2363 8.07759C21.9866 8.32575 21.6479 8.46516 21.2947 8.46516H10.6425C10.2893 8.46516 9.95066 8.32575 9.70095 8.07759C9.45124 7.82944 9.31095 7.49287 9.31095 7.14193Z" fill="#333333"/>
</svg>
