<svg width="35" height="35" viewBox="0 0 48 48" fill="none" xmlns="http://www.w3.org/2000/svg">
<g filter="url(#filter0_d_255_890)">
<path d="M20.4647 8.6869H28.2425C28.2425 7.6555 27.8328 6.66634 27.1035 5.93704C26.3742 5.20773 25.385 4.79801 24.3536 4.79801C23.3222 4.79801 22.3331 5.20773 21.6038 5.93704C20.8745 6.66634 20.4647 7.6555 20.4647 8.6869ZM16.5758 8.6869C16.5758 6.6241 17.3953 4.64579 18.8539 3.18718C20.3125 1.72856 22.2908 0.909119 24.3536 0.909119C26.4164 0.909119 28.3947 1.72856 29.8533 3.18718C31.312 4.64579 32.1314 6.6241 32.1314 8.6869H41.8536C42.3693 8.6869 42.8639 8.89176 43.2286 9.25641C43.5932 9.62107 43.7981 10.1156 43.7981 10.6313C43.7981 11.147 43.5932 11.6416 43.2286 12.0063C42.8639 12.3709 42.3693 12.5758 41.8536 12.5758H40.1386L38.4158 32.6813C38.2502 34.6228 37.3619 36.4314 35.9267 37.7492C34.4914 39.0671 32.6138 39.7982 30.6653 39.798H18.042C16.0934 39.7982 14.2158 39.0671 12.7806 37.7492C11.3453 36.4314 10.457 34.6228 10.2914 32.6813L8.56862 12.5758H6.85362C6.33793 12.5758 5.84335 12.3709 5.47869 12.0063C5.11404 11.6416 4.90918 11.147 4.90918 10.6313C4.90918 10.1156 5.11404 9.62107 5.47869 9.25641C5.84335 8.89176 6.33793 8.6869 6.85362 8.6869H16.5758ZM30.187 20.3536C30.187 19.8379 29.9821 19.3433 29.6174 18.9786C29.2528 18.614 28.7582 18.4091 28.2425 18.4091C27.7268 18.4091 27.2322 18.614 26.8676 18.9786C26.5029 19.3433 26.2981 19.8379 26.2981 20.3536V28.1313C26.2981 28.647 26.5029 29.1416 26.8676 29.5063C27.2322 29.8709 27.7268 30.0758 28.2425 30.0758C28.7582 30.0758 29.2528 29.8709 29.6174 29.5063C29.9821 29.1416 30.187 28.647 30.187 28.1313V20.3536ZM20.4647 18.4091C19.949 18.4091 19.4545 18.614 19.0898 18.9786C18.7252 19.3433 18.5203 19.8379 18.5203 20.3536V28.1313C18.5203 28.647 18.7252 29.1416 19.0898 29.5063C19.4545 29.8709 19.949 30.0758 20.4647 30.0758C20.9804 30.0758 21.475 29.8709 21.8397 29.5063C22.2043 29.1416 22.4092 28.647 22.4092 28.1313V20.3536C22.4092 19.8379 22.2043 19.3433 21.8397 18.9786C21.475 18.614 20.9804 18.4091 20.4647 18.4091Z" fill="white"/>
</g>
<defs>
<filter id="filter0_d_255_890" x="0.90918" y="0.909119" width="46.8887" height="46.8889" filterUnits="userSpaceOnUse" color-interpolation-filters="sRGB">
<feFlood flood-opacity="0" result="BackgroundImageFix"/>
<feColorMatrix in="SourceAlpha" type="matrix" values="0 0 0 0 0 0 0 0 0 0 0 0 0 0 0 0 0 0 127 0" result="hardAlpha"/>
<feOffset dy="4"/>
<feGaussianBlur stdDeviation="2"/>
<feComposite in2="hardAlpha" operator="out"/>
<feColorMatrix type="matrix" values="0 0 0 0 1 0 0 0 0 1 0 0 0 0 1 0 0 0 0.25 0"/>
<feBlend mode="normal" in2="BackgroundImageFix" result="effect1_dropShadow_255_890"/>
<feBlend mode="normal" in="SourceGraphic" in2="effect1_dropShadow_255_890" result="shape"/>
</filter>
</defs>
</svg>
